<svg id="Componente_21_9" data-name="Componente 21 – 9" xmlns="http://www.w3.org/2000/svg" width="40" height="41" viewBox="0 0 40 41">
    <defs>
        <style>
            .cls-2{fill:#fff}
        </style>
    </defs>
    <g id="Retângulo_338" data-name="Retângulo 338" style="stroke:#f7f7f7;fill:none">
        <path style="stroke:none" d="M0 0h40v41H0z"/>
        <path style="fill:none" d="M.5.5h39v40H.5z"/>
    </g>
    <g id="Grupo_578" data-name="Grupo 578" transform="translate(-235.316 -877.143)">
        <path id="Caminho_6744" data-name="Caminho 6744" class="cls-2" d="M255.517 909.092h-11.486a.621.621 0 0 1-.709-.708q0-6.569-.006-13.138a.8.8 0 0 1 .494-.8c1-.51 1.994-1.045 2.992-1.564a.288.288 0 0 0 .183-.3c-.007-1.573 0-3.147 0-4.72a.629.629 0 0 1 .707-.719h9.027c2.2 0 4.392-.006 6.588 0a.887.887 0 0 1 .511.142.651.651 0 0 1 .227.446c.016 1.121 0 2.241 0 3.362 0 .517.01 1.035.006 1.552 0 .115.055.156.142.2 1.038.544 2.071 1.095 3.111 1.633a.7.7 0 0 1 .413.69q-.008 6.628 0 13.255a.6.6 0 0 1-.67.661zm10.973-1.22v-11.778l-.141.07-2.9 1.526-7.576 3.989a.683.683 0 0 1-.692.007c-.287-.157-.572-.318-.861-.469-.916-.48-1.835-.953-2.751-1.434q-3.442-1.808-6.882-3.621c-.042-.022-.087-.036-.136-.056v11.767zm-18.28-19.506c-.006.044-.01.063-.01.082v8.044a.216.216 0 0 0 .149.217q2.347 1.231 4.691 2.469c.775.409 1.551.816 2.323 1.23a.319.319 0 0 0 .34-.015q3.446-1.821 6.9-3.63a.382.382 0 0 0 .243-.4q-.01-3.9 0-7.808c0-.062-.006-.125-.009-.19zm15.849 5.8v1.826l1.738-.913zm-18.816.913 1.727.909v-1.817z"/>
        <path id="Caminho_6745" data-name="Caminho 6745" class="cls-2" d="M304.067 916.285h-4.187a.6.6 0 0 1-.675-.6.62.62 0 0 1 .672-.614c.956 0 1.912.011 2.868.011q2.78 0 5.561-.011a.622.622 0 0 1 .636.453.586.586 0 0 1-.292.684.835.835 0 0 1-.357.075c-1.409.004-2.817.002-4.226.002z" transform="translate(-48.564 -24.267)"/>
        <path id="Caminho_6746" data-name="Caminho 6746" class="cls-2" d="M304.053 934.918h-4.229a.6.6 0 0 1-.539-.912.575.575 0 0 1 .52-.3h8.518a.61.61 0 0 1 .486 1.006.62.62 0 0 1-.526.209q-2.116-.005-4.23-.003z" transform="translate(-48.558 -40.459)"/>
        <path id="Caminho_6747" data-name="Caminho 6747" class="cls-2" d="M312.166 953.495h-3.029a.606.606 0 1 1-.025-1.211c.478-.01.957 0 1.436 0h4.622a.612.612 0 0 1 .568.927.58.58 0 0 1-.543.288c-1.01-.006-2.02-.004-3.029-.004z" transform="translate(-56.649 -56.599)"/>
    </g>
</svg>
