<?xml version="1.0" encoding="utf-8"?>
<!-- Generator: Adobe Illustrator 25.0.0, SVG Export Plug-In . SVG Version: 6.00 Build 0)  -->
<svg version="1.1" id="Layer_1" xmlns="http://www.w3.org/2000/svg" xmlns:xlink="http://www.w3.org/1999/xlink" x="0px" y="0px"
	 viewBox="0 0 90 90" style="enable-background:new 0 0 90 90;" xml:space="preserve">
<path fill="#fff" d="M74.9,70c-0.8,0-1.6,0.1-2.3,0.3L60.2,44.8c13.2-7.2,22.4-23.4,22.4-42c0-1.1-0.8-1.8-1.8-1.8H8.4c-1.1,0-1.8,0.8-1.8,1.8
	C6.6,21.6,16,37.8,29.4,45l-5.8,11.9c-0.2,0.2-0.3,0.4-0.3,0.7L8.7,87c-0.5,0.9-0.2,2,0.8,2.5c0.2,0.2,0.5,0.2,0.8,0.2
	c0.6,0,1.2-0.3,1.7-0.9l14.2-28.8h37.3l5.8,12c-2.3,1.8-3.8,4.5-3.8,7.7c0,5.4,4.3,9.7,9.5,9.7c5.2,0,9.5-4.3,9.5-9.7
	S80.2,70,74.9,70z M56.5,42.6c-3.7,1.7-7.6,2.6-11.8,2.6c-18.5,0-33.6-18.1-34.3-40.6h68.5c-0.6,17-9.2,31.5-21.3,37.5 M27.9,56.2
	l4.8-9.7c3.8,1.5,7.8,2.4,11.9,2.4c4.3,0,8.4-0.9,12.3-2.5l4.8,9.8H27.9z M74.9,85.8c-3.2,0-5.8-2.6-5.8-6c0-2.3,1.2-4.2,3-5.2
	c0.1,0,0.2-0.1,0.4-0.1c0.1-0.1,0.2-0.1,0.3-0.2c0.7-0.3,1.4-0.4,2.1-0.4c3.2,0,5.8,2.6,5.8,6C80.8,83.2,78.2,85.8,74.9,85.8z"/>
</svg>
