<?xml version="1.0" encoding="utf-8"?>
<!-- Generator: Adobe Illustrator 25.0.0, SVG Export Plug-In . SVG Version: 6.00 Build 0)  -->
<svg version="1.1" id="Layer_1" xmlns="http://www.w3.org/2000/svg" xmlns:xlink="http://www.w3.org/1999/xlink" x="0px" y="0px"
	 viewBox="0 0 90 90" style="enable-background:new 0 0 90 90;" xml:space="preserve">
<path fill="#fff" d="M77.5,41.7H57.2c-0.7,0-1.5-0.4-1.8-1l-1.6-2.8c-0.4-0.6-0.4-1.5,0-2.1l10.1-17.5c-0.6-0.4-1.2-0.9-1.8-1.2l-1.6-0.9
	c-0.6-0.3-1.2-0.6-1.8-0.9L48.6,32.8c-0.3,0.6-1,1-1.8,1h-3.4c-0.7,0-1.5-0.4-1.8-1L31.5,15.3c-0.6,0.3-1.2,0.6-1.8,0.9L27.9,17
	c-0.6,0.4-1.2,0.7-1.8,1.2l10.1,17.5c0.4,0.6,0.4,1.5,0,2.1l-1.6,3c-0.4,0.6-1,1-1.8,1H12.5c0,0.6-0.1,1.3-0.1,1.9v2.1
	c0,0.6,0.1,1.3,0.1,1.9h20.2c0.7,0,1.5,0.4,1.8,1l1.6,2.8c0.4,0.6,0.4,1.5,0,2.1L26,71.1c0.6,0.4,1.2,0.9,1.8,1.2l1.8,1
	c0.6,0.3,1.2,0.6,1.8,0.9l10.1-17.5c0.3-0.6,1-1,1.8-1h3.4c0.7,0,1.5,0.4,1.8,1l10.1,17.5c0.6-0.3,1.2-0.6,1.8-0.9l1.8-1
	c0.6-0.4,1.2-0.7,1.8-1.2l-9.9-17.4c-0.4-0.6-0.4-1.5,0-2.1l1.6-2.8c0.4-0.6,1-1,1.8-1h20.2c0.1-0.6,0.1-1.3,0.1-1.9v-2.2
	C77.6,43.1,77.5,42.5,77.5,41.7z M45,52.1c-4.2,0-7.4-3.3-7.4-7.4s3.3-7.4,7.4-7.4s7.4,3.3,7.4,7.4S49.2,52.1,45,52.1z M45,1.5
	C21.3,1.5,1.8,21,1.8,44.7S21.3,87.9,45,87.9s43.2-19.4,43.2-43.2S68.7,1.5,45,1.5z M45,84C23.3,84,5.7,66.4,5.7,44.7
	S23.3,5.5,45,5.5s39.3,17.6,39.3,39.3S66.7,84,45,84z"/>
</svg>
