<?xml version="1.0" encoding="utf-8"?>
<!-- Generator: Adobe Illustrator 25.2.1, SVG Export Plug-In . SVG Version: 6.00 Build 0)  -->
<svg version="1.1" id="Layer_1" xmlns="http://www.w3.org/2000/svg" xmlns:xlink="http://www.w3.org/1999/xlink" x="0px" y="0px"
	 viewBox="0 0 28 28" style="enable-background:new 0 0 28 28;" xml:space="preserve">
<style type="text/css">
	.st0{fill:#1A1C1E;}
	.st1{fill:#FFFFFF;}
</style>
<rect x="-49.6" y="-0.8" class="st0" width="30" height="31.4"/>
<g>
	<g id="Group_149_1_" transform="translate(-1432.293 -1567.293)">
		<g id="Rectangle_39_1_">
			<path class="st1" d="M1446.4,1568.5l9.4,4l-9.6,4l-9.4-4L1446.4,1568.5 M1446.4,1567.3l-12.4,5.1l12.2,5.2l12.4-5.1
				L1446.4,1567.3L1446.4,1567.3z"/>
		</g>
	</g>
	<g>
		<polygon class="st1" points="13.9,14.9 1.7,9.7 1.7,8.5 13.9,13.7 26.3,8.6 26.3,9.8 		"/>
	</g>
	<g>
		<polygon class="st1" points="13.9,19.3 1.7,14.1 1.7,12.9 13.9,18.1 26.3,13 26.3,14.1 		"/>
	</g>
	<g>
		<polygon class="st1" points="13.9,23.6 1.7,18.4 1.7,17.3 13.9,22.5 26.3,17.3 26.3,18.5 		"/>
	</g>
	<g>
		<polygon class="st1" points="13.9,28 1.7,22.8 1.7,21.6 13.9,26.8 26.3,21.7 26.3,22.9 		"/>
	</g>
</g>
</svg>
