<?xml version="1.0" encoding="utf-8"?>
<!-- Generator: Adobe Illustrator 25.0.0, SVG Export Plug-In . SVG Version: 6.00 Build 0)  -->
<svg version="1.1" id="Layer_1" xmlns="http://www.w3.org/2000/svg" xmlns:xlink="http://www.w3.org/1999/xlink" x="0px" y="0px"
	 viewBox="0 0 90 90" style="enable-background:new 0 0 90 90;" xml:space="preserve">
<path fill="#fff" d="M78.7,30.1H62v-1.7C62,21,56,15,48.6,15H15.3C7.9,15,1.9,21,1.9,28.4v46.7h42H62h27V40.4C89,34.7,84.4,30.1,78.7,30.1z
	 M43.9,72.1h-39V28.4C4.9,22.7,9.6,18,15.3,18h33.3C54.3,18,59,22.7,59,28.4v1.7h-4.8c-5.7,0-10.3,4.6-10.3,10.3V72.1z M86,72.1
	H67.1H62h-3c0,0-0.8,0-0.9,0c-1.5,0-11.2,0-11.2,0V40.4c0-4,3.3-7.3,7.3-7.3h3.9H59h3h5.1h11.6c4,0,7.3,3.3,7.3,7.3V72.1z"/>
</svg>
