<?xml version="1.0" encoding="utf-8"?>
<!-- Generator: Adobe Illustrator 24.0.1, SVG Export Plug-In . SVG Version: 6.00 Build 0)  -->
<svg version="1.1" id="Layer_1" xmlns="http://www.w3.org/2000/svg" xmlns:xlink="http://www.w3.org/1999/xlink" x="0px" y="0px"
	 viewBox="0 0 974.84 769" style="enable-background:new 0 0 974.84 769;" xml:space="preserve">
<style type="text/css">
	.st0{fill:#404041;}
	.st1{fill:#231F20;}
	.st2{fill:#D0D2D3;}
	.st3{fill:#DAA77F;}
</style>
<g>
	<polygon class="st0" points="480.84,587.44 522.38,587.44 501.6,551.46 480.84,515.48 460.06,551.46 439.29,587.44 	"/>
	<g>
		<g>
			<path class="st1" d="M234.15,645.85c0-0.55,0.44-1.03,1.03-1.03h14.8c6.53,0,11.87,5.17,11.87,11.64c0,5.01-3.32,9.14-8.06,11.05
				l7.45,13.82c0.38,0.71,0,1.58-0.93,1.58h-4.25c-0.43,0-0.75-0.27-0.87-0.49L247.98,668h-8.22v13.87c0,0.54-0.49,1.03-1.03,1.03
				h-3.54c-0.6,0-1.03-0.49-1.03-1.03V645.85z M249.55,663.31c3.54,0,6.64-2.99,6.64-6.75c0-3.54-3.1-6.48-6.64-6.48h-9.68v13.22
				H249.55z"/>
			<path class="st1" d="M269.87,645.85c0-0.55,0.49-1.03,1.03-1.03h3.65c0.6,0,1.03,0.49,1.03,1.03v22.47
				c0,5.44,3.48,9.69,9.03,9.69c5.61,0,9.14-4.19,9.14-9.58v-22.58c0-0.55,0.44-1.03,1.04-1.03h3.64c0.55,0,1.04,0.49,1.04,1.03
				v22.86c0,8.27-6.26,14.75-14.86,14.75c-8.54,0-14.74-6.48-14.74-14.75V645.85z"/>
			<path class="st1" d="M304.45,681.49l16.71-36.62c0.16-0.32,0.65-0.6,0.93-0.6h0.54c0.28,0,0.77,0.27,0.93,0.6l16.6,36.62
				c0.33,0.71-0.11,1.41-0.93,1.41h-3.43c-0.65,0-1.04-0.33-1.25-0.82l-3.37-7.45h-17.8c-1.08,2.5-2.23,4.95-3.32,7.45
				c-0.16,0.38-0.6,0.82-1.25,0.82h-3.43C304.55,682.9,304.12,682.2,304.45,681.49z M329.1,669.95l-6.69-14.91h-0.28l-6.64,14.91
				H329.1z"/>
			<path class="st1" d="M374.45,644.27c5.5,0,9.47,1.85,13.17,5.06c0.49,0.44,0.49,1.09,0.06,1.52l-2.4,2.45
				c-0.38,0.49-0.87,0.49-1.36,0c-2.56-2.23-6.04-3.64-9.42-3.64c-7.78,0-13.65,6.53-13.65,14.15c0,7.62,5.93,14.1,13.71,14.1
				c3.97,0,6.75-1.58,9.36-3.59c0.49-0.38,0.98-0.33,1.31-0.06l2.5,2.45c0.44,0.38,0.32,1.09-0.05,1.47
				c-3.7,3.59-8.38,5.28-13.23,5.28c-10.88,0-19.64-8.65-19.64-19.54C354.81,653.03,363.57,644.27,374.45,644.27z"/>
			<path class="st1" d="M390.36,681.49l16.71-36.62c0.17-0.32,0.66-0.6,0.93-0.6h0.55c0.27,0,0.76,0.27,0.93,0.6l16.59,36.62
				c0.33,0.71-0.11,1.41-0.93,1.41h-3.42c-0.65,0-1.03-0.33-1.26-0.82l-3.37-7.45h-17.8c-1.09,2.5-2.23,4.95-3.32,7.45
				c-0.16,0.38-0.6,0.82-1.25,0.82h-3.43C390.47,682.9,390.04,682.2,390.36,681.49z M415.02,669.95l-6.69-14.91h-0.27l-6.64,14.91
				H415.02z"/>
			<path class="st1" d="M431.52,645.85c0-0.55,0.44-1.03,1.04-1.03h14.8c6.53,0,11.86,5.17,11.86,11.64c0,5.01-3.32,9.14-8.05,11.05
				l7.45,13.82c0.38,0.71,0,1.58-0.93,1.58h-4.24c-0.44,0-0.77-0.27-0.87-0.49L445.34,668h-8.21v13.87c0,0.54-0.49,1.03-1.04,1.03
				h-3.54c-0.6,0-1.04-0.49-1.04-1.03V645.85z M446.92,663.31c3.54,0,6.64-2.99,6.64-6.75c0-3.54-3.1-6.48-6.64-6.48h-9.69v13.22
				H446.92z"/>
			<path class="st1" d="M467.72,645.85c0-0.55,0.44-1.03,1.04-1.03h3.59c0.55,0,1.04,0.49,1.04,1.03v32h14.74
				c0.6,0,1.04,0.49,1.04,1.03v2.99c0,0.54-0.44,1.03-1.04,1.03h-19.37c-0.6,0-1.04-0.49-1.04-1.03V645.85z"/>
			<path class="st1" d="M511.65,644.27c10.89,0,19.59,8.76,19.59,19.64c0,10.88-8.7,19.54-19.59,19.54
				c-10.88,0-19.54-8.65-19.54-19.54C492.12,653.03,500.78,644.27,511.65,644.27z M511.65,678.01c7.78,0,14.15-6.31,14.15-14.1
				c0-7.73-6.37-14.2-14.15-14.2c-7.73,0-14.09,6.48-14.09,14.2C497.56,671.69,503.93,678.01,511.65,678.01z"/>
			<path class="st1" d="M536.6,677.41c0.49-0.71,0.93-1.52,1.41-2.23c0.49-0.71,1.26-0.93,1.85-0.43c0.33,0.27,4.52,3.75,8.71,3.75
				c3.75,0,6.15-2.29,6.15-5.06c0-3.26-2.83-5.33-8.21-7.56c-5.55-2.34-9.91-5.22-9.91-11.54c0-4.25,3.26-10.07,11.92-10.07
				c5.44,0,9.52,2.83,10.07,3.21c0.43,0.27,0.87,1.03,0.32,1.85c-0.44,0.65-0.93,1.41-1.36,2.07c-0.44,0.71-1.14,1.03-1.9,0.54
				c-0.38-0.22-4.19-2.72-7.35-2.72c-4.57,0-6.15,2.88-6.15,4.9c0,3.1,2.39,5.01,6.91,6.86c6.31,2.56,11.7,5.55,11.7,12.19
				c0,5.66-5.06,10.29-12.13,10.29c-6.64,0-10.83-3.48-11.7-4.3C536.44,678.71,536.06,678.33,536.6,677.41z"/>
			<path class="st1" d="M577.82,677.41c0.49-0.71,0.93-1.52,1.42-2.23c0.49-0.71,1.24-0.93,1.85-0.43c0.32,0.27,4.51,3.75,8.7,3.75
				c3.76,0,6.15-2.29,6.15-5.06c0-3.26-2.83-5.33-8.21-7.56c-5.55-2.34-9.91-5.22-9.91-11.54c0-4.25,3.27-10.07,11.92-10.07
				c5.44,0,9.53,2.83,10.07,3.21c0.44,0.27,0.87,1.03,0.33,1.85c-0.44,0.65-0.93,1.41-1.36,2.07c-0.44,0.71-1.15,1.03-1.91,0.54
				c-0.38-0.22-4.19-2.72-7.34-2.72c-4.57,0-6.15,2.88-6.15,4.9c0,3.1,2.4,5.01,6.91,6.86c6.31,2.56,11.7,5.55,11.7,12.19
				c0,5.66-5.06,10.29-12.14,10.29c-6.64,0-10.83-3.48-11.7-4.3C577.65,678.71,577.27,678.33,577.82,677.41z"/>
			<path class="st1" d="M609.5,645.85c0-0.55,0.49-1.03,1.03-1.03h3.59c0.54,0,1.03,0.49,1.03,1.03v36.02
				c0,0.54-0.49,1.03-1.03,1.03h-3.59c-0.54,0-1.03-0.49-1.03-1.03V645.85z"/>
			<path class="st1" d="M625.73,645.85c0-0.55,0.44-1.03,1.03-1.03h3.59c0.54,0,1.03,0.49,1.03,1.03v32h14.75
				c0.6,0,1.03,0.49,1.03,1.03v2.99c0,0.54-0.44,1.03-1.03,1.03h-19.38c-0.6,0-1.03-0.49-1.03-1.03V645.85z"/>
			<path class="st1" d="M647.84,646.23c-0.33-0.71,0.11-1.41,0.93-1.41h3.86c0.44,0,0.82,0.33,0.93,0.6l11.97,26.94h0.32
				l11.97-26.94c0.11-0.27,0.44-0.6,0.93-0.6h3.87c0.81,0,1.25,0.71,0.93,1.41l-16.71,36.62c-0.16,0.32-0.49,0.6-0.92,0.6h-0.55
				c-0.38,0-0.76-0.27-0.93-0.6L647.84,646.23z"/>
			<path class="st1" d="M683.93,681.49l16.71-36.62c0.16-0.32,0.65-0.6,0.93-0.6h0.54c0.28,0,0.77,0.27,0.93,0.6l16.6,36.62
				c0.33,0.71-0.11,1.41-0.93,1.41h-3.43c-0.65,0-1.04-0.33-1.25-0.82l-3.37-7.45h-17.8c-1.08,2.5-2.23,4.95-3.32,7.45
				c-0.16,0.38-0.6,0.82-1.25,0.82h-3.43C684.03,682.9,683.6,682.2,683.93,681.49z M708.58,669.95l-6.69-14.91h-0.28l-6.64,14.91
				H708.58z"/>
			<path class="st1" d="M298.05,721.31c0.11-0.44,0.54-0.82,0.98-0.82h0.87c0.33,0,0.82,0.27,0.93,0.6l11.37,27.81h0.22l11.32-27.81
				c0.11-0.32,0.55-0.6,0.93-0.6h0.87c0.44,0,0.87,0.38,0.98,0.82l6.7,36.57c0.16,0.76-0.22,1.25-0.98,1.25h-3.54
				c-0.49,0-0.93-0.38-1.03-0.76l-4.03-24.32c-0.05,0-0.16,0-0.16,0l-9.79,25.03c-0.11,0.32-0.44,0.6-0.93,0.6h-0.98
				c-0.44,0-0.81-0.27-0.93-0.6l-9.85-25.03c-0.05,0-0.16,0-0.21,0l-3.92,24.32c-0.06,0.38-0.55,0.76-0.98,0.76h-3.53
				c-0.77,0-1.15-0.49-1.04-1.25L298.05,721.31z"/>
			<path class="st1" d="M342.15,752.11c2.13,0,3.81,1.69,3.81,3.81c0,2.07-1.69,3.76-3.81,3.76c-2.06,0-3.75-1.69-3.75-3.76
				C338.39,753.8,340.08,752.11,342.15,752.11z"/>
			<path class="st1" d="M382.48,720.49c5.23,0,9.53,1.91,13.23,5.06c0.44,0.44,0.49,1.09,0.05,1.52c-0.82,0.87-1.63,1.69-2.45,2.56
				c-0.44,0.49-0.87,0.44-1.42-0.06c-2.56-2.23-5.93-3.7-9.25-3.7c-7.73,0-13.66,6.53-13.66,14.15c0,7.57,5.93,14.1,13.66,14.1
				c4.51,0,7.61-1.63,8.16-1.85v-6.1h-5.33c-0.6,0-1.04-0.43-1.04-0.98v-3.16c0-0.6,0.44-1.03,1.04-1.03h9.9
				c0.54,0,0.98,0.49,0.98,1.03c0,4.35,0.05,8.82,0.05,13.17c0,0.27-0.21,0.71-0.43,0.87c0,0-5.61,3.59-13.5,3.59
				c-10.83,0-19.59-8.65-19.59-19.54C362.89,729.26,371.65,720.49,382.48,720.49z"/>
			<path class="st1" d="M404.49,722.07c0-0.55,0.49-1.03,1.04-1.03h3.65c0.6,0,1.03,0.49,1.03,1.03v22.47
				c0,5.44,3.48,9.69,9.03,9.69c5.61,0,9.15-4.19,9.15-9.58v-22.58c0-0.55,0.44-1.03,1.03-1.03h3.65c0.54,0,1.03,0.49,1.03,1.03
				v22.86c0,8.27-6.25,14.75-14.86,14.75c-8.54,0-14.74-6.48-14.74-14.75V722.07z"/>
			<path class="st1" d="M444.18,722.07c0-0.55,0.49-1.03,1.03-1.03h3.59c0.54,0,1.03,0.49,1.03,1.03v36.02
				c0,0.54-0.49,1.03-1.03,1.03h-3.59c-0.54,0-1.03-0.49-1.03-1.03V722.07z"/>
			<path class="st1" d="M464.54,721.31c0.11-0.44,0.55-0.82,0.98-0.82h0.87c0.32,0,0.81,0.27,0.93,0.6l11.37,27.81h0.22l11.32-27.81
				c0.11-0.32,0.54-0.6,0.93-0.6h0.87c0.44,0,0.87,0.38,0.98,0.82l6.69,36.57c0.16,0.76-0.21,1.25-0.98,1.25h-3.54
				c-0.49,0-0.93-0.38-1.04-0.76l-4.03-24.32c-0.05,0-0.16,0-0.16,0l-9.79,25.03c-0.11,0.32-0.44,0.6-0.93,0.6h-0.98
				c-0.44,0-0.82-0.27-0.93-0.6l-9.85-25.03c-0.05,0-0.16,0-0.22,0l-3.92,24.32c-0.05,0.38-0.54,0.76-0.98,0.76h-3.54
				c-0.76,0-1.14-0.49-1.03-1.25L464.54,721.31z"/>
			<path class="st1" d="M502.6,757.72l16.71-36.62c0.16-0.32,0.65-0.6,0.93-0.6h0.54c0.27,0,0.77,0.27,0.93,0.6l16.6,36.62
				c0.32,0.71-0.11,1.41-0.93,1.41h-3.44c-0.65,0-1.03-0.33-1.24-0.82l-3.38-7.45h-17.8c-1.09,2.5-2.23,4.95-3.32,7.45
				c-0.16,0.38-0.6,0.82-1.26,0.82h-3.42C502.71,759.13,502.27,758.42,502.6,757.72z M527.25,746.18l-6.69-14.91h-0.27l-6.64,14.91
				H527.25z"/>
			<path class="st1" d="M543.76,722.07c0-0.55,0.44-1.03,1.03-1.03h14.8c6.53,0,11.87,5.17,11.87,11.64c0,5.01-3.32,9.14-8.06,11.05
				l7.45,13.82c0.38,0.71,0,1.58-0.93,1.58h-4.25c-0.43,0-0.75-0.27-0.87-0.49l-7.24-14.42h-8.22v13.87c0,0.54-0.49,1.03-1.03,1.03
				h-3.54c-0.6,0-1.03-0.49-1.03-1.03V722.07z M559.16,739.54c3.54,0,6.64-2.99,6.64-6.75c0-3.54-3.1-6.48-6.64-6.48h-9.68v13.22
				H559.16z"/>
			<path class="st1" d="M574.85,757.72l16.71-36.62c0.16-0.32,0.65-0.6,0.93-0.6h0.54c0.27,0,0.77,0.27,0.93,0.6l16.6,36.62
				c0.32,0.71-0.11,1.41-0.93,1.41h-3.43c-0.65,0-1.03-0.33-1.24-0.82l-3.38-7.45h-17.8c-1.08,2.5-2.23,4.95-3.32,7.45
				c-0.16,0.38-0.6,0.82-1.26,0.82h-3.42C574.96,759.13,574.52,758.42,574.85,757.72z M584.92,715.22
				c-0.55-0.33-0.49-0.87-0.32-1.25c0.49-0.98,2.12-4.57,5.33-4.57c3.16,0,4.19,3.48,5.93,3.48c1.26,0,1.69-1.36,2.23-2.18
				c0.32-0.54,0.71-0.87,1.36-0.49c0.44,0.32,1.08,0.6,1.41,1.03c0.27,0.44,0.11,0.87-0.16,1.47c-0.55,1.2-2.12,4.08-5.12,4.08
				c-2.78,0-4.25-3.54-5.82-3.54c-1.31,0-2.01,1.52-2.34,2.23c-0.28,0.6-0.54,0.93-1.26,0.55L584.92,715.22z M599.5,746.18
				l-6.69-14.91h-0.27l-6.64,14.91H599.5z"/>
			<path class="st1" d="M616.01,722.07c0-0.55,0.44-1.03,1.03-1.03h21.77c0.6,0,1.04,0.49,1.04,1.03v3.05
				c0,0.54-0.44,1.03-1.04,1.03h-17.2v11.1h14.53c0.55,0,1.04,0.49,1.04,1.03v3.05c0,0.6-0.49,1.03-1.04,1.03h-14.53v11.7h17.2
				c0.6,0,1.04,0.49,1.04,1.03v2.99c0,0.54-0.44,1.03-1.04,1.03h-21.77c-0.6,0-1.03-0.49-1.03-1.03V722.07z"/>
			<path class="st1" d="M645.62,753.64c0.49-0.71,0.93-1.52,1.42-2.23c0.49-0.71,1.25-0.93,1.85-0.43c0.33,0.27,4.52,3.75,8.71,3.75
				c3.75,0,6.15-2.29,6.15-5.06c0-3.26-2.83-5.33-8.21-7.56c-5.55-2.34-9.91-5.22-9.91-11.54c0-4.25,3.26-10.07,11.92-10.07
				c5.44,0,9.52,2.83,10.07,3.21c0.44,0.27,0.87,1.03,0.32,1.85c-0.44,0.65-0.93,1.41-1.36,2.07c-0.44,0.71-1.14,1.03-1.91,0.54
				c-0.38-0.22-4.19-2.72-7.34-2.72c-4.57,0-6.15,2.88-6.15,4.9c0,3.1,2.4,5.01,6.91,6.86c6.32,2.56,11.7,5.55,11.7,12.19
				c0,5.66-5.06,10.29-12.13,10.29c-6.64,0-10.83-3.48-11.7-4.3C645.46,754.94,645.08,754.56,645.62,753.64z"/>
		</g>
	</g>
	<rect y="45.24" class="st2" width="971.78" height="400.4"/>
	<polygon class="st3" points="704.62,46.32 972.64,46.32 972.64,250.17 884.07,250.29 884.07,445.73 746.61,445.26 746.61,169.21 
		704,169.21 	"/>
	<rect x="704" class="st3" width="88.93" height="72.25"/>
</g>
</svg>
