<?xml version="1.0" encoding="utf-8"?>
<!-- Generator: Adobe Illustrator 24.0.1, SVG Export Plug-In . SVG Version: 6.00 Build 0)  -->
<svg version="1.1" id="Layer_1" xmlns="http://www.w3.org/2000/svg" xmlns:xlink="http://www.w3.org/1999/xlink" x="0px" y="0px"
	 viewBox="0 0 974.84 769" style="enable-background:new 0 0 974.84 769;" xml:space="preserve">
<style type="text/css">
	.st0{fill:#404041;}
	.st1{fill:#D0D2D3;}
	.st2{fill:#DAA77F;}
	.st3{fill:#231F20;}
</style>
<g>
	<polygon class="st0" points="482.66,596.66 524.18,596.66 503.42,560.7 482.66,524.73 461.89,560.7 441.13,596.66 	"/>
	<rect x="2.04" y="54.71" class="st1" width="971.34" height="400.22"/>
	<g>
		<defs>
			<polygon id="SVGID_1_" points="974.84,455.85 0,456.36 0,55.45 974.15,54.49 			"/>
		</defs>
		<clipPath id="SVGID_2_">
			<use xlink:href="#SVGID_1_"  style="overflow:visible;"/>
		</clipPath>
	</g>
	<polygon class="st2" points="972.78,54.92 703.09,54.92 703.09,258.12 631.01,258.12 631.01,454.48 693.14,454.48 774.54,492.39 
		826.75,453.24 972.16,453.24 	"/>
	<g>
		<rect x="704.11" y="0.18" class="st2" width="88.8" height="54.87"/>
	</g>
	<g>
		<g>
			<path class="st3" d="M236.09,655.05c0-0.54,0.44-1.03,1.04-1.03h14.8c6.53,0,11.85,5.17,11.85,11.64c0,5-3.32,9.14-8.05,11.04
				l7.45,13.82c0.38,0.71,0,1.58-0.93,1.58h-4.24c-0.44,0-0.77-0.27-0.87-0.49l-7.23-14.41h-8.21v13.87c0,0.54-0.49,1.03-1.04,1.03
				h-3.53c-0.6,0-1.04-0.49-1.04-1.03V655.05z M251.49,672.5c3.53,0,6.63-2.99,6.63-6.74c0-3.53-3.1-6.47-6.63-6.47h-9.68v13.22
				H251.49z"/>
			<path class="st3" d="M271.79,655.05c0-0.54,0.49-1.03,1.04-1.03h3.65c0.6,0,1.03,0.49,1.03,1.03v22.46
				c0,5.44,3.48,9.68,9.03,9.68c5.6,0,9.14-4.19,9.14-9.57v-22.57c0-0.54,0.44-1.03,1.03-1.03h3.65c0.54,0,1.03,0.49,1.03,1.03
				v22.85c0,8.27-6.26,14.74-14.85,14.74c-8.54,0-14.74-6.47-14.74-14.74V655.05z"/>
			<path class="st3" d="M306.35,690.67l16.7-36.61c0.16-0.32,0.65-0.6,0.93-0.6h0.55c0.27,0,0.76,0.27,0.93,0.6l16.59,36.61
				c0.32,0.71-0.11,1.41-0.92,1.41h-3.43c-0.65,0-1.03-0.33-1.25-0.82l-3.37-7.45h-17.78c-1.09,2.5-2.23,4.95-3.32,7.45
				c-0.17,0.38-0.6,0.82-1.25,0.82h-3.43C306.46,692.09,306.03,691.38,306.35,690.67z M330.99,679.14l-6.7-14.9h-0.27l-6.64,14.9
				H330.99z"/>
			<path class="st3" d="M376.33,653.47c5.49,0,9.46,1.85,13.16,5.06c0.49,0.44,0.49,1.09,0.05,1.52l-2.39,2.45
				c-0.38,0.49-0.87,0.49-1.36,0c-2.56-2.23-6.04-3.64-9.41-3.64c-7.78,0-13.65,6.53-13.65,14.14c0,7.62,5.93,14.09,13.71,14.09
				c3.97,0,6.74-1.58,9.35-3.59c0.49-0.38,0.98-0.33,1.31-0.06l2.5,2.45c0.44,0.38,0.33,1.09-0.05,1.47
				c-3.7,3.59-8.38,5.28-13.21,5.28c-10.88,0-19.64-8.65-19.64-19.53C356.69,662.23,365.44,653.47,376.33,653.47z"/>
			<path class="st3" d="M392.23,690.67l16.7-36.61c0.16-0.32,0.65-0.6,0.92-0.6h0.54c0.27,0,0.77,0.27,0.93,0.6l16.59,36.61
				c0.32,0.71-0.11,1.41-0.92,1.41h-3.43c-0.65,0-1.03-0.33-1.24-0.82l-3.37-7.45h-17.79c-1.08,2.5-2.23,4.95-3.32,7.45
				c-0.16,0.38-0.59,0.82-1.25,0.82h-3.42C392.34,692.09,391.9,691.38,392.23,690.67z M416.87,679.14l-6.69-14.9h-0.27l-6.63,14.9
				H416.87z"/>
			<path class="st3" d="M433.37,655.05c0-0.54,0.44-1.03,1.03-1.03h14.8c6.53,0,11.86,5.17,11.86,11.64c0,5-3.32,9.14-8.05,11.04
				l7.45,13.82c0.38,0.71,0,1.58-0.92,1.58h-4.25c-0.43,0-0.75-0.27-0.87-0.49l-7.23-14.41h-8.22v13.87c0,0.54-0.49,1.03-1.03,1.03
				h-3.54c-0.6,0-1.03-0.49-1.03-1.03V655.05z M448.76,672.5c3.54,0,6.64-2.99,6.64-6.74c0-3.53-3.1-6.47-6.64-6.47h-9.68v13.22
				H448.76z"/>
			<path class="st3" d="M469.56,655.05c0-0.54,0.44-1.03,1.03-1.03h3.59c0.54,0,1.03,0.49,1.03,1.03v31.98h14.74
				c0.6,0,1.03,0.49,1.03,1.03v2.99c0,0.54-0.44,1.03-1.03,1.03h-19.37c-0.6,0-1.03-0.49-1.03-1.03V655.05z"/>
			<path class="st3" d="M513.47,653.47c10.87,0,19.58,8.76,19.58,19.64c0,10.88-8.71,19.53-19.58,19.53
				c-10.88,0-19.53-8.65-19.53-19.53C493.94,662.23,502.59,653.47,513.47,653.47z M513.47,687.19c7.78,0,14.14-6.31,14.14-14.09
				c0-7.72-6.36-14.2-14.14-14.2c-7.73,0-14.09,6.47-14.09,14.2C499.38,680.88,505.74,687.19,513.47,687.19z"/>
			<path class="st3" d="M538.4,686.59c0.49-0.71,0.93-1.52,1.42-2.23c0.49-0.71,1.24-0.92,1.85-0.43c0.32,0.27,4.51,3.75,8.7,3.75
				c3.76,0,6.15-2.29,6.15-5.06c0-3.26-2.83-5.33-8.21-7.56c-5.55-2.34-9.9-5.22-9.9-11.53c0-4.24,3.27-10.06,11.91-10.06
				c5.44,0,9.52,2.83,10.07,3.21c0.44,0.27,0.87,1.03,0.33,1.85c-0.44,0.65-0.92,1.41-1.36,2.07c-0.44,0.71-1.15,1.03-1.91,0.54
				c-0.38-0.22-4.19-2.72-7.34-2.72c-4.57,0-6.15,2.88-6.15,4.89c0,3.1,2.4,5,6.91,6.85c6.31,2.56,11.7,5.55,11.7,12.18
				c0,5.66-5.06,10.28-12.13,10.28c-6.64,0-10.83-3.48-11.7-4.3C538.24,687.9,537.86,687.52,538.4,686.59z"/>
			<path class="st3" d="M579.6,686.59c0.49-0.71,0.92-1.52,1.41-2.23c0.49-0.71,1.25-0.92,1.85-0.43c0.33,0.27,4.52,3.75,8.71,3.75
				c3.75,0,6.14-2.29,6.14-5.06c0-3.26-2.83-5.33-8.21-7.56c-5.55-2.34-9.9-5.22-9.9-11.53c0-4.24,3.26-10.06,11.92-10.06
				c5.44,0,9.51,2.83,10.06,3.21c0.43,0.27,0.87,1.03,0.32,1.85c-0.44,0.65-0.92,1.41-1.36,2.07c-0.44,0.71-1.14,1.03-1.9,0.54
				c-0.38-0.22-4.19-2.72-7.34-2.72c-4.57,0-6.14,2.88-6.14,4.89c0,3.1,2.39,5,6.91,6.85c6.31,2.56,11.69,5.55,11.69,12.18
				c0,5.66-5.06,10.28-12.13,10.28c-6.63,0-10.82-3.48-11.69-4.3C579.44,687.9,579.05,687.52,579.6,686.59z"/>
			<path class="st3" d="M611.27,655.05c0-0.54,0.49-1.03,1.04-1.03h3.59c0.55,0,1.04,0.49,1.04,1.03v36.01
				c0,0.54-0.49,1.03-1.04,1.03h-3.59c-0.54,0-1.04-0.49-1.04-1.03V655.05z"/>
			<path class="st3" d="M627.48,655.05c0-0.54,0.44-1.03,1.04-1.03h3.59c0.55,0,1.04,0.49,1.04,1.03v31.98h14.74
				c0.6,0,1.04,0.49,1.04,1.03v2.99c0,0.54-0.44,1.03-1.04,1.03h-19.36c-0.6,0-1.04-0.49-1.04-1.03V655.05z"/>
			<path class="st3" d="M649.58,655.43c-0.32-0.71,0.11-1.41,0.92-1.41h3.86c0.44,0,0.81,0.33,0.93,0.6l11.96,26.92h0.33
				l11.97-26.92c0.11-0.27,0.44-0.6,0.92-0.6h3.86c0.82,0,1.25,0.71,0.92,1.41l-16.7,36.61c-0.16,0.32-0.49,0.6-0.92,0.6h-0.54
				c-0.38,0-0.77-0.27-0.92-0.6L649.58,655.43z"/>
			<path class="st3" d="M685.66,690.67l16.7-36.61c0.16-0.32,0.65-0.6,0.92-0.6h0.55c0.27,0,0.76,0.27,0.92,0.6l16.59,36.61
				c0.32,0.71-0.11,1.41-0.92,1.41h-3.43c-0.65,0-1.03-0.33-1.25-0.82l-3.37-7.45h-17.78c-1.09,2.5-2.23,4.95-3.32,7.45
				c-0.17,0.38-0.6,0.82-1.25,0.82h-3.43C685.77,692.09,685.34,691.38,685.66,690.67z M710.31,679.14l-6.7-14.9h-0.27l-6.64,14.9
				H710.31z"/>
			<path class="st3" d="M299.95,730.48c0.11-0.44,0.55-0.82,0.98-0.82h0.87c0.32,0,0.81,0.27,0.93,0.6l11.37,27.8h0.22l11.32-27.8
				c0.11-0.32,0.54-0.6,0.92-0.6h0.87c0.44,0,0.87,0.38,0.98,0.82l6.69,36.55c0.16,0.76-0.21,1.25-0.98,1.25h-3.53
				c-0.49,0-0.92-0.38-1.04-0.76l-4.02-24.31c-0.05,0-0.16,0-0.16,0l-9.79,25.02c-0.11,0.32-0.44,0.6-0.93,0.6h-0.98
				c-0.44,0-0.82-0.27-0.92-0.6l-9.84-25.02c-0.05,0-0.16,0-0.22,0l-3.92,24.31c-0.05,0.38-0.54,0.76-0.98,0.76h-3.54
				c-0.76,0-1.14-0.49-1.03-1.25L299.95,730.48z"/>
			<path class="st3" d="M344.04,761.26c2.12,0,3.81,1.68,3.81,3.81c0,2.07-1.68,3.76-3.81,3.76c-2.07,0-3.75-1.69-3.75-3.76
				C340.28,762.95,341.97,761.26,344.04,761.26z"/>
			<path class="st3" d="M384.35,729.66c5.22,0,9.51,1.91,13.21,5.06c0.44,0.44,0.49,1.09,0.06,1.52c-0.81,0.87-1.63,1.68-2.45,2.56
				c-0.44,0.49-0.87,0.44-1.41-0.06c-2.56-2.23-5.93-3.7-9.25-3.7c-7.72,0-13.65,6.53-13.65,14.14c0,7.56,5.93,14.09,13.65,14.09
				c4.52,0,7.62-1.63,8.16-1.85v-6.09h-5.34c-0.6,0-1.03-0.43-1.03-0.98v-3.15c0-0.6,0.44-1.03,1.03-1.03h9.9
				c0.55,0,0.98,0.49,0.98,1.03c0,4.35,0.05,8.81,0.05,13.16c0,0.27-0.22,0.71-0.44,0.87c0,0-5.6,3.59-13.49,3.59
				c-10.83,0-19.58-8.65-19.58-19.53C364.77,738.42,373.53,729.66,384.35,729.66z"/>
			<path class="st3" d="M406.35,731.24c0-0.54,0.49-1.03,1.03-1.03h3.65c0.6,0,1.03,0.49,1.03,1.03v22.46
				c0,5.44,3.49,9.68,9.04,9.68c5.6,0,9.14-4.19,9.14-9.57v-22.57c0-0.54,0.44-1.03,1.04-1.03h3.64c0.55,0,1.04,0.49,1.04,1.03
				v22.85c0,8.27-6.26,14.74-14.85,14.74c-8.54,0-14.74-6.47-14.74-14.74V731.24z"/>
			<path class="st3" d="M446.02,731.24c0-0.54,0.49-1.03,1.04-1.03h3.59c0.55,0,1.04,0.49,1.04,1.03v36.01
				c0,0.54-0.49,1.03-1.04,1.03h-3.59c-0.54,0-1.04-0.49-1.04-1.03V731.24z"/>
			<path class="st3" d="M466.37,730.48c0.11-0.44,0.54-0.82,0.98-0.82h0.87c0.33,0,0.82,0.27,0.93,0.6l11.37,27.8h0.22l11.31-27.8
				c0.11-0.32,0.55-0.6,0.92-0.6h0.87c0.44,0,0.87,0.38,0.98,0.82l6.7,36.55c0.16,0.76-0.22,1.25-0.98,1.25h-3.53
				c-0.49,0-0.92-0.38-1.03-0.76l-4.03-24.31c-0.05,0-0.16,0-0.16,0l-9.79,25.02c-0.11,0.32-0.44,0.6-0.92,0.6h-0.98
				c-0.44,0-0.81-0.27-0.92-0.6l-9.85-25.02c-0.05,0-0.16,0-0.21,0l-3.92,24.31c-0.06,0.38-0.55,0.76-0.98,0.76h-3.53
				c-0.77,0-1.15-0.49-1.04-1.25L466.37,730.48z"/>
			<path class="st3" d="M504.41,766.86l16.7-36.61c0.17-0.32,0.66-0.6,0.92-0.6h0.55c0.27,0,0.76,0.27,0.92,0.6l16.59,36.61
				c0.33,0.71-0.11,1.41-0.93,1.41h-3.42c-0.65,0-1.03-0.33-1.25-0.82l-3.37-7.45h-17.79c-1.09,2.5-2.23,4.95-3.32,7.45
				c-0.16,0.38-0.6,0.82-1.25,0.82h-3.43C504.53,768.28,504.09,767.57,504.41,766.86z M529.06,755.33l-6.69-14.9h-0.27l-6.64,14.9
				H529.06z"/>
			<path class="st3" d="M545.56,731.24c0-0.54,0.44-1.03,1.04-1.03h14.8c6.53,0,11.85,5.17,11.85,11.64c0,5-3.32,9.14-8.05,11.04
				l7.45,13.82c0.38,0.71,0,1.58-0.92,1.58h-4.24c-0.44,0-0.77-0.27-0.87-0.49l-7.23-14.41h-8.21v13.87c0,0.54-0.49,1.03-1.04,1.03
				h-3.53c-0.6,0-1.04-0.49-1.04-1.03V731.24z M560.95,748.7c3.53,0,6.63-2.99,6.63-6.74c0-3.53-3.1-6.47-6.63-6.47h-9.68v13.22
				H560.95z"/>
			<path class="st3" d="M576.63,766.86l16.7-36.61c0.17-0.32,0.66-0.6,0.92-0.6h0.55c0.27,0,0.76,0.27,0.92,0.6l16.59,36.61
				c0.33,0.71-0.11,1.41-0.92,1.41h-3.42c-0.65,0-1.03-0.33-1.25-0.82l-3.37-7.45h-17.79c-1.09,2.5-2.23,4.95-3.32,7.45
				c-0.16,0.38-0.6,0.82-1.25,0.82h-3.43C576.74,768.28,576.31,767.57,576.63,766.86z M586.7,724.38c-0.54-0.33-0.49-0.87-0.33-1.25
				c0.49-0.98,2.13-4.57,5.34-4.57c3.15,0,4.19,3.48,5.93,3.48c1.25,0,1.68-1.36,2.23-2.18c0.32-0.54,0.71-0.87,1.36-0.49
				c0.44,0.32,1.09,0.6,1.41,1.03c0.28,0.44,0.11,0.87-0.16,1.47c-0.54,1.2-2.12,4.08-5.11,4.08c-2.77,0-4.24-3.53-5.82-3.53
				c-1.3,0-2.01,1.52-2.34,2.23c-0.27,0.6-0.55,0.92-1.25,0.54L586.7,724.38z M601.27,755.33l-6.69-14.9h-0.27l-6.64,14.9H601.27z"
				/>
			<path class="st3" d="M617.77,731.24c0-0.54,0.44-1.03,1.04-1.03h21.76c0.6,0,1.03,0.49,1.03,1.03v3.05
				c0,0.54-0.44,1.03-1.03,1.03h-17.19v11.1h14.52c0.54,0,1.03,0.49,1.03,1.03v3.05c0,0.6-0.49,1.03-1.03,1.03h-14.52v11.69h17.19
				c0.6,0,1.03,0.49,1.03,1.03v2.99c0,0.54-0.44,1.03-1.03,1.03h-21.76c-0.6,0-1.04-0.49-1.04-1.03V731.24z"/>
			<path class="st3" d="M647.38,762.79c0.49-0.71,0.92-1.52,1.41-2.23c0.49-0.71,1.25-0.92,1.85-0.43c0.32,0.27,4.51,3.75,8.71,3.75
				c3.75,0,6.14-2.29,6.14-5.06c0-3.26-2.83-5.33-8.22-7.56c-5.55-2.34-9.9-5.22-9.9-11.53c0-4.24,3.26-10.06,11.91-10.06
				c5.44,0,9.52,2.83,10.06,3.21c0.44,0.27,0.87,1.03,0.33,1.85c-0.44,0.65-0.92,1.41-1.36,2.07c-0.44,0.71-1.14,1.03-1.9,0.54
				c-0.38-0.22-4.19-2.72-7.34-2.72c-4.57,0-6.14,2.88-6.14,4.89c0,3.1,2.39,5,6.91,6.85c6.3,2.56,11.69,5.55,11.69,12.18
				c0,5.66-5.06,10.28-12.13,10.28c-6.64,0-10.83-3.48-11.7-4.3C647.21,764.09,646.84,763.71,647.38,762.79z"/>
		</g>
	</g>
</g>
</svg>
