<?xml version="1.0" encoding="utf-8"?>
<!-- Generator: Adobe Illustrator 24.0.1, SVG Export Plug-In . SVG Version: 6.00 Build 0)  -->
<svg version="1.1" id="Layer_1" xmlns="http://www.w3.org/2000/svg" xmlns:xlink="http://www.w3.org/1999/xlink" x="0px" y="0px"
	 viewBox="0 0 974.84 769" style="enable-background:new 0 0 974.84 769;" xml:space="preserve">
<style type="text/css">
	.st0{fill:#404041;}
	.st1{fill:#231F20;}
	.st2{fill:#D0D2D3;}
	.st3{fill:#DAA77F;}
</style>
<g>
	<polygon class="st0" points="482.35,596.18 524.02,596.18 503.18,560.09 482.35,523.99 461.5,560.09 440.67,596.18 	"/>
	<g>
		<g>
			<path class="st1" d="M234.89,654.77c0-0.55,0.44-1.04,1.04-1.04h14.85c6.55,0,11.89,5.18,11.89,11.68
				c0,5.02-3.33,9.17-8.08,11.08l7.48,13.86c0.38,0.71,0,1.58-0.93,1.58h-4.26c-0.44,0-0.77-0.27-0.87-0.49l-7.26-14.47h-8.24v13.92
				c0,0.55-0.49,1.04-1.04,1.04h-3.55c-0.6,0-1.04-0.49-1.04-1.04V654.77z M250.34,672.29c3.55,0,6.66-3,6.66-6.77
				c0-3.55-3.11-6.5-6.66-6.5h-9.72v13.27H250.34z"/>
			<path class="st1" d="M270.72,654.77c0-0.55,0.49-1.04,1.04-1.04h3.66c0.6,0,1.04,0.49,1.04,1.04v22.54
				c0,5.46,3.49,9.72,9.06,9.72c5.62,0,9.17-4.2,9.17-9.61v-22.65c0-0.55,0.44-1.04,1.03-1.04h3.66c0.54,0,1.04,0.49,1.04,1.04
				v22.93c0,8.3-6.28,14.79-14.9,14.79c-8.57,0-14.8-6.5-14.8-14.79V654.77z"/>
			<path class="st1" d="M305.4,690.53l16.76-36.74c0.17-0.33,0.66-0.6,0.93-0.6h0.55c0.27,0,0.76,0.27,0.93,0.6l16.65,36.74
				c0.33,0.71-0.11,1.42-0.93,1.42h-3.44c-0.65,0-1.03-0.33-1.25-0.82l-3.39-7.48h-17.85c-1.09,2.51-2.24,4.97-3.33,7.48
				c-0.17,0.38-0.6,0.82-1.26,0.82h-3.44C305.52,691.95,305.08,691.24,305.4,690.53z M330.14,678.95L323.42,664h-0.27l-6.66,14.96
				H330.14z"/>
			<path class="st1" d="M375.63,653.19c5.51,0,9.49,1.86,13.21,5.08c0.49,0.44,0.49,1.09,0.05,1.53l-2.4,2.46
				c-0.38,0.49-0.88,0.49-1.37,0c-2.57-2.24-6.06-3.66-9.44-3.66c-7.81,0-13.7,6.55-13.7,14.19c0,7.64,5.95,14.14,13.76,14.14
				c3.98,0,6.77-1.58,9.39-3.6c0.49-0.38,0.98-0.33,1.31-0.06l2.51,2.46c0.44,0.38,0.33,1.09-0.05,1.47
				c-3.71,3.6-8.41,5.3-13.26,5.3c-10.92,0-19.71-8.68-19.71-19.6C355.93,661.98,364.71,653.19,375.63,653.19z"/>
			<path class="st1" d="M391.59,690.53l16.76-36.74c0.16-0.33,0.65-0.6,0.93-0.6h0.54c0.27,0,0.77,0.27,0.93,0.6l16.65,36.74
				c0.33,0.71-0.11,1.42-0.93,1.42h-3.45c-0.65,0-1.03-0.33-1.25-0.82l-3.39-7.48h-17.85c-1.09,2.51-2.24,4.97-3.33,7.48
				c-0.16,0.38-0.6,0.82-1.26,0.82h-3.43C391.7,691.95,391.26,691.24,391.59,690.53z M416.32,678.95L409.61,664h-0.27l-6.66,14.96
				H416.32z"/>
			<path class="st1" d="M432.88,654.77c0-0.55,0.44-1.04,1.04-1.04h14.85c6.55,0,11.91,5.18,11.91,11.68
				c0,5.02-3.33,9.17-8.08,11.08l7.48,13.86c0.38,0.71,0,1.58-0.93,1.58h-4.26c-0.43,0-0.76-0.27-0.87-0.49l-7.26-14.47h-8.25v13.92
				c0,0.55-0.49,1.04-1.03,1.04h-3.55c-0.6,0-1.04-0.49-1.04-1.04V654.77z M448.32,672.29c3.55,0,6.66-3,6.66-6.77
				c0-3.55-3.11-6.5-6.66-6.5h-9.71v13.27H448.32z"/>
			<path class="st1" d="M469.2,654.77c0-0.55,0.44-1.04,1.04-1.04h3.61c0.54,0,1.04,0.49,1.04,1.04v32.1h14.8
				c0.6,0,1.03,0.49,1.03,1.04v3c0,0.55-0.44,1.04-1.03,1.04h-19.44c-0.6,0-1.04-0.49-1.04-1.04V654.77z"/>
			<path class="st1" d="M513.27,653.19c10.91,0,19.65,8.79,19.65,19.71c0,10.92-8.74,19.6-19.65,19.6c-10.92,0-19.6-8.68-19.6-19.6
				C493.67,661.98,502.34,653.19,513.27,653.19z M513.27,687.03c7.8,0,14.19-6.33,14.19-14.14c0-7.75-6.38-14.25-14.19-14.25
				c-7.76,0-14.15,6.5-14.15,14.25C499.12,680.7,505.51,687.03,513.27,687.03z"/>
			<path class="st1" d="M538.29,686.43c0.5-0.71,0.93-1.53,1.42-2.24c0.49-0.71,1.25-0.93,1.86-0.43c0.32,0.27,4.52,3.77,8.73,3.77
				c3.77,0,6.17-2.29,6.17-5.08c0-3.27-2.84-5.35-8.24-7.59c-5.57-2.35-9.94-5.24-9.94-11.57c0-4.26,3.28-10.1,11.95-10.1
				c5.46,0,9.56,2.84,10.1,3.22c0.44,0.27,0.88,1.04,0.33,1.86c-0.44,0.65-0.93,1.42-1.37,2.07c-0.44,0.71-1.15,1.03-1.91,0.54
				c-0.38-0.22-4.2-2.73-7.37-2.73c-4.59,0-6.17,2.89-6.17,4.91c0,3.11,2.41,5.02,6.93,6.88c6.33,2.57,11.74,5.57,11.74,12.23
				c0,5.68-5.08,10.32-12.18,10.32c-6.66,0-10.86-3.49-11.74-4.31C538.12,687.74,537.74,687.36,538.29,686.43z"/>
			<path class="st1" d="M579.63,686.43c0.49-0.71,0.93-1.53,1.42-2.24c0.49-0.71,1.26-0.93,1.86-0.43c0.33,0.27,4.53,3.77,8.74,3.77
				c3.77,0,6.17-2.29,6.17-5.08c0-3.27-2.84-5.35-8.24-7.59c-5.57-2.35-9.94-5.24-9.94-11.57c0-4.26,3.27-10.1,11.96-10.1
				c5.46,0,9.55,2.84,10.1,3.22c0.43,0.27,0.87,1.04,0.33,1.86c-0.44,0.65-0.93,1.42-1.37,2.07c-0.44,0.71-1.14,1.03-1.91,0.54
				c-0.38-0.22-4.2-2.73-7.37-2.73c-4.58,0-6.17,2.89-6.17,4.91c0,3.11,2.4,5.02,6.93,6.88c6.33,2.57,11.73,5.57,11.73,12.23
				c0,5.68-5.08,10.32-12.17,10.32c-6.66,0-10.86-3.49-11.73-4.31C579.47,687.74,579.09,687.36,579.63,686.43z"/>
			<path class="st1" d="M611.42,654.77c0-0.55,0.5-1.04,1.04-1.04h3.6c0.55,0,1.04,0.49,1.04,1.04v36.14c0,0.55-0.49,1.04-1.04,1.04
				h-3.6c-0.54,0-1.04-0.49-1.04-1.04V654.77z"/>
			<path class="st1" d="M627.69,654.77c0-0.55,0.44-1.04,1.04-1.04h3.6c0.55,0,1.04,0.49,1.04,1.04v32.1h14.79
				c0.6,0,1.04,0.49,1.04,1.04v3c0,0.55-0.44,1.04-1.04,1.04h-19.43c-0.6,0-1.04-0.49-1.04-1.04V654.77z"/>
			<path class="st1" d="M649.87,655.15c-0.33-0.71,0.11-1.42,0.93-1.42h3.88c0.44,0,0.82,0.33,0.93,0.6l12.01,27.02h0.33
				l12.01-27.02c0.11-0.27,0.44-0.6,0.93-0.6h3.87c0.82,0,1.26,0.71,0.93,1.42l-16.76,36.74c-0.16,0.33-0.49,0.6-0.93,0.6h-0.54
				c-0.38,0-0.77-0.27-0.93-0.6L649.87,655.15z"/>
			<path class="st1" d="M686.08,690.53l16.76-36.74c0.17-0.33,0.66-0.6,0.93-0.6h0.55c0.27,0,0.76,0.27,0.93,0.6l16.65,36.74
				c0.33,0.71-0.11,1.42-0.93,1.42h-3.44c-0.65,0-1.03-0.33-1.25-0.82l-3.39-7.48h-17.85c-1.09,2.51-2.24,4.97-3.33,7.48
				c-0.17,0.38-0.6,0.82-1.26,0.82h-3.44C686.19,691.95,685.75,691.24,686.08,690.53z M710.81,678.95L704.09,664h-0.27l-6.66,14.96
				H710.81z"/>
			<path class="st1" d="M298.98,730.47c0.11-0.44,0.55-0.82,0.99-0.82h0.87c0.33,0,0.82,0.27,0.93,0.6l11.41,27.9h0.22l11.36-27.9
				c0.11-0.33,0.54-0.6,0.93-0.6h0.87c0.44,0,0.87,0.38,0.98,0.82l6.71,36.68c0.17,0.77-0.21,1.26-0.98,1.26h-3.55
				c-0.49,0-0.93-0.38-1.04-0.77l-4.04-24.4c-0.05,0-0.17,0-0.17,0l-9.82,25.11c-0.11,0.33-0.44,0.6-0.93,0.6h-0.98
				c-0.44,0-0.82-0.27-0.93-0.6l-9.88-25.11c-0.05,0-0.16,0-0.22,0l-3.93,24.4c-0.05,0.38-0.54,0.77-0.98,0.77h-3.55
				c-0.76,0-1.14-0.49-1.04-1.26L298.98,730.47z"/>
			<path class="st1" d="M343.23,761.37c2.13,0,3.82,1.69,3.82,3.82c0,2.07-1.69,3.77-3.82,3.77c-2.07,0-3.77-1.69-3.77-3.77
				C339.46,763.06,341.15,761.37,343.23,761.37z"/>
			<path class="st1" d="M383.69,729.65c5.24,0,9.55,1.91,13.26,5.08c0.44,0.44,0.49,1.09,0.06,1.53c-0.82,0.87-1.64,1.69-2.46,2.57
				c-0.44,0.49-0.88,0.44-1.42-0.06c-2.57-2.24-5.95-3.71-9.28-3.71c-7.75,0-13.7,6.55-13.7,14.19c0,7.59,5.95,14.14,13.7,14.14
				c4.53,0,7.64-1.64,8.19-1.86v-6.12h-5.36c-0.6,0-1.03-0.43-1.03-0.98v-3.17c0-0.6,0.44-1.04,1.03-1.04h9.94
				c0.55,0,0.99,0.49,0.99,1.04c0,4.37,0.05,8.84,0.05,13.21c0,0.27-0.22,0.71-0.44,0.87c0,0-5.62,3.6-13.54,3.6
				c-10.87,0-19.65-8.68-19.65-19.6C364.04,738.44,372.82,729.65,383.69,729.65z"/>
			<path class="st1" d="M405.76,731.24c0-0.55,0.49-1.04,1.04-1.04h3.66c0.6,0,1.03,0.49,1.03,1.04v22.54c0,5.46,3.5,9.72,9.07,9.72
				c5.62,0,9.17-4.2,9.17-9.61v-22.65c0-0.55,0.44-1.04,1.04-1.04h3.65c0.55,0,1.04,0.49,1.04,1.04v22.93
				c0,8.3-6.28,14.79-14.9,14.79c-8.57,0-14.8-6.5-14.8-14.79V731.24z"/>
			<path class="st1" d="M445.57,731.24c0-0.55,0.5-1.04,1.04-1.04h3.6c0.55,0,1.04,0.49,1.04,1.04v36.14c0,0.55-0.49,1.04-1.04,1.04
				h-3.6c-0.54,0-1.04-0.49-1.04-1.04V731.24z"/>
			<path class="st1" d="M466,730.47c0.11-0.44,0.54-0.82,0.98-0.82h0.87c0.33,0,0.82,0.27,0.93,0.6l11.41,27.9h0.22l11.35-27.9
				c0.11-0.33,0.55-0.6,0.93-0.6h0.88c0.44,0,0.87,0.38,0.98,0.82l6.72,36.68c0.16,0.77-0.22,1.26-0.99,1.26h-3.55
				c-0.49,0-0.93-0.38-1.03-0.77l-4.04-24.4c-0.05,0-0.16,0-0.16,0l-9.83,25.11c-0.11,0.33-0.44,0.6-0.93,0.6h-0.99
				c-0.44,0-0.82-0.27-0.93-0.6l-9.88-25.11c-0.05,0-0.16,0-0.21,0l-3.93,24.4c-0.06,0.38-0.55,0.77-0.99,0.77h-3.54
				c-0.77,0-1.15-0.49-1.04-1.26L466,730.47z"/>
			<path class="st1" d="M504.18,766.99l16.76-36.74c0.17-0.33,0.66-0.6,0.93-0.6h0.55c0.27,0,0.76,0.27,0.93,0.6l16.65,36.74
				c0.33,0.71-0.11,1.42-0.93,1.42h-3.43c-0.66,0-1.03-0.33-1.26-0.82l-3.38-7.48h-17.85c-1.09,2.51-2.24,4.97-3.33,7.48
				c-0.17,0.38-0.6,0.82-1.25,0.82h-3.45C504.29,768.41,503.86,767.7,504.18,766.99z M528.91,755.42l-6.71-14.96h-0.27l-6.66,14.96
				H528.91z"/>
			<path class="st1" d="M545.47,731.24c0-0.55,0.44-1.04,1.04-1.04h14.85c6.55,0,11.89,5.18,11.89,11.68
				c0,5.02-3.33,9.17-8.08,11.08l7.48,13.86c0.38,0.71,0,1.58-0.93,1.58h-4.26c-0.44,0-0.77-0.27-0.87-0.49l-7.26-14.47h-8.24v13.92
				c0,0.55-0.49,1.04-1.04,1.04h-3.55c-0.6,0-1.04-0.49-1.04-1.04V731.24z M560.92,748.76c3.55,0,6.66-3,6.66-6.77
				c0-3.55-3.11-6.5-6.66-6.5h-9.72v13.27H560.92z"/>
			<path class="st1" d="M576.66,766.99l16.76-36.74c0.17-0.33,0.66-0.6,0.93-0.6h0.55c0.27,0,0.76,0.27,0.93,0.6l16.65,36.74
				c0.33,0.71-0.11,1.42-0.93,1.42h-3.43c-0.66,0-1.04-0.33-1.26-0.82l-3.38-7.48h-17.85c-1.09,2.51-2.23,4.97-3.33,7.48
				c-0.16,0.38-0.6,0.82-1.25,0.82h-3.45C576.77,768.41,576.34,767.7,576.66,766.99z M586.76,724.36c-0.54-0.33-0.49-0.87-0.33-1.26
				c0.5-0.98,2.13-4.58,5.36-4.58c3.16,0,4.2,3.49,5.95,3.49c1.25,0,1.69-1.37,2.24-2.18c0.33-0.55,0.71-0.88,1.36-0.49
				c0.44,0.33,1.1,0.6,1.42,1.04c0.28,0.44,0.11,0.87-0.16,1.47c-0.54,1.2-2.13,4.09-5.13,4.09c-2.78,0-4.26-3.55-5.84-3.55
				c-1.31,0-2.02,1.53-2.35,2.24c-0.27,0.6-0.55,0.93-1.25,0.55L586.76,724.36z M601.39,755.42l-6.72-14.96h-0.27l-6.66,14.96
				H601.39z"/>
			<path class="st1" d="M617.94,731.24c0-0.55,0.44-1.04,1.04-1.04h21.84c0.6,0,1.04,0.49,1.04,1.04v3.06
				c0,0.55-0.44,1.04-1.04,1.04h-17.25v11.14h14.57c0.54,0,1.03,0.49,1.03,1.04v3.06c0,0.6-0.49,1.04-1.03,1.04h-14.57v11.73h17.25
				c0.6,0,1.04,0.49,1.04,1.04v3c0,0.55-0.44,1.04-1.04,1.04h-21.84c-0.6,0-1.04-0.49-1.04-1.04V731.24z"/>
			<path class="st1" d="M647.66,762.9c0.49-0.71,0.93-1.53,1.42-2.24c0.49-0.71,1.25-0.93,1.86-0.43c0.33,0.27,4.53,3.77,8.74,3.77
				c3.77,0,6.17-2.29,6.17-5.08c0-3.27-2.84-5.35-8.25-7.59c-5.57-2.35-9.93-5.24-9.93-11.57c0-4.26,3.27-10.1,11.95-10.1
				c5.46,0,9.55,2.84,10.1,3.22c0.44,0.27,0.87,1.04,0.33,1.86c-0.44,0.65-0.93,1.42-1.37,2.07c-0.44,0.71-1.15,1.03-1.91,0.54
				c-0.38-0.22-4.2-2.73-7.37-2.73c-4.59,0-6.17,2.89-6.17,4.91c0,3.11,2.4,5.02,6.93,6.88c6.33,2.57,11.73,5.57,11.73,12.23
				c0,5.68-5.08,10.32-12.17,10.32c-6.66,0-10.86-3.49-11.74-4.31C647.49,764.21,647.11,763.83,647.66,762.9z"/>
		</g>
	</g>
	<rect x="0" y="52.28" class="st2" width="974.84" height="401.66"/>
	<g>
		<rect x="552.12" y="0.05" class="st3" width="89.12" height="55.07"/>
	</g>
	<polygon class="st3" points="417.53,52.93 641.83,52.65 641.83,453.06 417.97,453.06 417.97,177.39 	"/>
	<polygon class="st3" points="499.5,451.37 531.03,492.15 597.88,449.69 	"/>
</g>
</svg>
