<?xml version="1.0" encoding="utf-8"?>
<!-- Generator: Adobe Illustrator 24.0.1, SVG Export Plug-In . SVG Version: 6.00 Build 0)  -->
<svg version="1.1" id="Layer_1" xmlns="http://www.w3.org/2000/svg" xmlns:xlink="http://www.w3.org/1999/xlink" x="0px" y="0px"
	 viewBox="0 0 672.07 769" style="enable-background:new 0 0 672.07 769;" xml:space="preserve">
<style type="text/css">
	.st0{fill:#D0D2D3;}
	.st1{fill:#404041;}
	.st2{fill:#231F20;}
	.st3{clip-path:url(#SVGID_2_);}
	.st4{fill:none;stroke:#F1F1F2;stroke-width:1.879;stroke-miterlimit:10;}
	.st5{fill:#DAA77F;}
</style>
<g>
	<polygon class="st0" points="672.28,532.28 -0.21,532.28 -0.21,0 532.07,0 532.07,212.67 672.28,212.66 	"/>
	<polygon class="st1" points="333.42,642.74 362.09,642.74 347.75,617.91 333.42,593.07 319.08,617.91 304.74,642.74 	"/>
	<g>
		<g>
			<path class="st2" d="M163.15,683.06c0-0.37,0.3-0.71,0.71-0.71h10.22c4.51,0,8.19,3.57,8.19,8.04c0,3.46-2.29,6.31-5.56,7.63
				l5.15,9.54c0.26,0.49,0,1.09-0.64,1.09h-2.93c-0.3,0-0.52-0.19-0.6-0.34l-4.99-9.95h-5.67v9.58c0,0.37-0.34,0.71-0.71,0.71h-2.44
				c-0.41,0-0.71-0.34-0.71-0.71V683.06z M173.78,695.11c2.44,0,4.58-2.07,4.58-4.66c0-2.44-2.14-4.47-4.58-4.47h-6.68v9.13H173.78z
				"/>
			<path class="st2" d="M187.81,683.06c0-0.37,0.34-0.71,0.71-0.71h2.52c0.41,0,0.71,0.34,0.71,0.71v15.51
				c0,3.75,2.4,6.69,6.24,6.69c3.87,0,6.31-2.89,6.31-6.61v-15.59c0-0.37,0.3-0.71,0.72-0.71h2.51c0.38,0,0.72,0.34,0.72,0.71v15.78
				c0,5.71-4.32,10.18-10.25,10.18c-5.9,0-10.18-4.47-10.18-10.18V683.06z"/>
			<path class="st2" d="M211.67,707.66l11.53-25.28c0.11-0.22,0.45-0.41,0.64-0.41h0.37c0.19,0,0.53,0.19,0.64,0.41l11.46,25.28
				c0.23,0.49-0.07,0.98-0.64,0.98h-2.37c-0.45,0-0.72-0.23-0.86-0.57l-2.33-5.15h-12.29c-0.75,1.73-1.54,3.42-2.29,5.15
				c-0.11,0.26-0.41,0.57-0.86,0.57h-2.37C211.74,708.63,211.45,708.15,211.67,707.66z M228.68,699.69l-4.62-10.29h-0.19
				l-4.58,10.29H228.68z"/>
			<path class="st2" d="M259.99,681.97c3.79,0,6.54,1.28,9.09,3.49c0.34,0.3,0.34,0.75,0.04,1.05l-1.66,1.69
				c-0.26,0.34-0.6,0.34-0.94,0c-1.77-1.54-4.17-2.51-6.5-2.51c-5.37,0-9.42,4.51-9.42,9.77c0,5.26,4.1,9.73,9.46,9.73
				c2.74,0,4.66-1.09,6.46-2.48c0.34-0.26,0.68-0.22,0.9-0.04l1.73,1.7c0.3,0.26,0.22,0.75-0.04,1.01
				c-2.55,2.48-5.78,3.64-9.13,3.64c-7.51,0-13.56-5.97-13.56-13.48C246.43,688.02,252.48,681.97,259.99,681.97z"/>
			<path class="st2" d="M270.97,707.66l11.53-25.28c0.12-0.22,0.46-0.41,0.64-0.41h0.38c0.19,0,0.52,0.19,0.64,0.41l11.45,25.28
				c0.23,0.49-0.07,0.98-0.64,0.98h-2.36c-0.45,0-0.71-0.23-0.87-0.57l-2.33-5.15h-12.28c-0.75,1.73-1.54,3.42-2.29,5.15
				c-0.11,0.26-0.41,0.57-0.86,0.57h-2.37C271.05,708.63,270.75,708.15,270.97,707.66z M287.99,699.69l-4.62-10.29h-0.19
				l-4.58,10.29H287.99z"/>
			<path class="st2" d="M299.38,683.06c0-0.37,0.3-0.71,0.72-0.71h10.22c4.51,0,8.18,3.57,8.18,8.04c0,3.46-2.29,6.31-5.56,7.63
				l5.15,9.54c0.26,0.49,0,1.09-0.64,1.09h-2.93c-0.3,0-0.53-0.19-0.6-0.34l-4.99-9.95h-5.67v9.58c0,0.37-0.34,0.71-0.72,0.71h-2.44
				c-0.41,0-0.72-0.34-0.72-0.71V683.06z M310.01,695.11c2.44,0,4.58-2.07,4.58-4.66c0-2.44-2.14-4.47-4.58-4.47h-6.69v9.13H310.01z
				"/>
			<path class="st2" d="M324.37,683.06c0-0.37,0.3-0.71,0.72-0.71h2.48c0.38,0,0.72,0.34,0.72,0.71v22.09h10.18
				c0.41,0,0.72,0.34,0.72,0.71v2.07c0,0.37-0.3,0.71-0.72,0.71h-13.37c-0.41,0-0.72-0.34-0.72-0.71V683.06z"/>
			<path class="st2" d="M354.69,681.97c7.52,0,13.52,6.05,13.52,13.56c0,7.51-6.01,13.48-13.52,13.48
				c-7.51,0-13.48-5.97-13.48-13.48C341.2,688.02,347.18,681.97,354.69,681.97z M354.69,705.25c5.37,0,9.77-4.36,9.77-9.73
				c0-5.33-4.4-9.8-9.77-9.8c-5.33,0-9.72,4.47-9.72,9.8C344.96,700.9,349.36,705.25,354.69,705.25z"/>
			<path class="st2" d="M371.91,704.84c0.34-0.48,0.64-1.05,0.98-1.54c0.34-0.48,0.87-0.64,1.28-0.3c0.23,0.19,3.12,2.59,6.01,2.59
				c2.59,0,4.24-1.58,4.24-3.49c0-2.25-1.95-3.68-5.67-5.22c-3.83-1.61-6.84-3.6-6.84-7.96c0-2.93,2.25-6.95,8.23-6.95
				c3.75,0,6.57,1.95,6.95,2.22c0.3,0.18,0.6,0.71,0.22,1.28c-0.3,0.45-0.64,0.98-0.94,1.42c-0.3,0.49-0.79,0.71-1.31,0.37
				c-0.26-0.15-2.89-1.88-5.07-1.88c-3.15,0-4.24,1.99-4.24,3.38c0,2.14,1.65,3.46,4.77,4.73c4.36,1.76,8.07,3.83,8.07,8.41
				c0,3.9-3.49,7.1-8.37,7.1c-4.58,0-7.47-2.4-8.07-2.97C371.8,705.74,371.53,705.48,371.91,704.84z"/>
			<path class="st2" d="M400.35,704.84c0.34-0.48,0.64-1.05,0.98-1.54c0.34-0.48,0.86-0.64,1.28-0.3c0.22,0.19,3.11,2.59,6,2.59
				c2.59,0,4.25-1.58,4.25-3.49c0-2.25-1.95-3.68-5.67-5.22c-3.83-1.61-6.84-3.6-6.84-7.96c0-2.93,2.26-6.95,8.22-6.95
				c3.76,0,6.58,1.95,6.95,2.22c0.3,0.18,0.6,0.71,0.23,1.28c-0.3,0.45-0.64,0.98-0.94,1.42c-0.3,0.49-0.79,0.71-1.32,0.37
				c-0.26-0.15-2.89-1.88-5.07-1.88c-3.16,0-4.25,1.99-4.25,3.38c0,2.14,1.66,3.46,4.77,4.73c4.36,1.76,8.08,3.83,8.08,8.41
				c0,3.9-3.49,7.1-8.38,7.1c-4.58,0-7.48-2.4-8.08-2.97C400.24,705.74,399.98,705.48,400.35,704.84z"/>
			<path class="st2" d="M422.22,683.06c0-0.37,0.34-0.71,0.71-0.71h2.48c0.37,0,0.71,0.34,0.71,0.71v24.87
				c0,0.37-0.34,0.71-0.71,0.71h-2.48c-0.37,0-0.71-0.34-0.71-0.71V683.06z"/>
			<path class="st2" d="M433.42,683.06c0-0.37,0.3-0.71,0.71-0.71h2.48c0.37,0,0.71,0.34,0.71,0.71v22.09h10.18
				c0.41,0,0.71,0.34,0.71,0.71v2.07c0,0.37-0.3,0.71-0.71,0.71h-13.37c-0.41,0-0.71-0.34-0.71-0.71V683.06z"/>
			<path class="st2" d="M448.68,683.32c-0.23-0.49,0.07-0.98,0.64-0.98h2.66c0.3,0,0.57,0.23,0.64,0.41l8.26,18.59h0.22l8.26-18.59
				c0.08-0.18,0.3-0.41,0.64-0.41h2.67c0.56,0,0.86,0.49,0.64,0.98l-11.53,25.28c-0.11,0.22-0.34,0.41-0.64,0.41h-0.38
				c-0.26,0-0.52-0.19-0.64-0.41L448.68,683.32z"/>
			<path class="st2" d="M473.59,707.66l11.53-25.28c0.11-0.22,0.45-0.41,0.64-0.41h0.37c0.19,0,0.53,0.19,0.64,0.41l11.46,25.28
				c0.23,0.49-0.07,0.98-0.64,0.98h-2.37c-0.45,0-0.72-0.23-0.86-0.57l-2.33-5.15h-12.29c-0.75,1.73-1.54,3.42-2.29,5.15
				c-0.11,0.26-0.41,0.57-0.86,0.57h-2.37C473.67,708.63,473.37,708.15,473.59,707.66z M490.61,699.69l-4.62-10.29h-0.19
				l-4.58,10.29H490.61z"/>
			<path class="st2" d="M207.25,735.14c0.07-0.3,0.37-0.56,0.68-0.56h0.6c0.23,0,0.57,0.19,0.64,0.41l7.85,19.19h0.15l7.81-19.19
				c0.08-0.22,0.38-0.41,0.64-0.41h0.6c0.3,0,0.6,0.26,0.68,0.56l4.62,25.24c0.11,0.53-0.15,0.87-0.68,0.87h-2.44
				c-0.34,0-0.64-0.26-0.71-0.53l-2.78-16.79c-0.04,0-0.11,0-0.11,0l-6.76,17.28c-0.08,0.22-0.3,0.41-0.64,0.41h-0.68
				c-0.3,0-0.56-0.19-0.64-0.41l-6.8-17.28c-0.04,0-0.11,0-0.15,0l-2.7,16.79c-0.04,0.26-0.38,0.53-0.68,0.53h-2.44
				c-0.53,0-0.79-0.34-0.72-0.87L207.25,735.14z"/>
			<path class="st2" d="M237.69,756.4c1.47,0,2.63,1.16,2.63,2.63c0,1.43-1.16,2.59-2.63,2.59c-1.42,0-2.59-1.16-2.59-2.59
				C235.1,757.57,236.27,756.4,237.69,756.4z"/>
			<path class="st2" d="M265.53,734.58c3.61,0,6.58,1.31,9.13,3.49c0.3,0.3,0.34,0.75,0.04,1.05c-0.57,0.6-1.13,1.16-1.69,1.77
				c-0.3,0.34-0.6,0.3-0.98-0.04c-1.77-1.54-4.09-2.55-6.38-2.55c-5.34,0-9.43,4.51-9.43,9.77c0,5.22,4.1,9.73,9.43,9.73
				c3.12,0,5.26-1.12,5.63-1.28v-4.21h-3.68c-0.41,0-0.72-0.3-0.72-0.68v-2.18c0-0.41,0.3-0.71,0.72-0.71h6.83
				c0.37,0,0.68,0.34,0.68,0.71c0,3.01,0.04,6.08,0.04,9.09c0,0.19-0.15,0.49-0.3,0.6c0,0-3.87,2.48-9.32,2.48
				c-7.47,0-13.52-5.97-13.52-13.48C252.01,740.63,258.06,734.58,265.53,734.58z"/>
			<path class="st2" d="M280.72,735.67c0-0.37,0.34-0.71,0.72-0.71h2.52c0.41,0,0.71,0.34,0.71,0.71v15.51
				c0,3.75,2.4,6.69,6.23,6.69c3.87,0,6.31-2.89,6.31-6.61v-15.59c0-0.37,0.3-0.71,0.71-0.71h2.52c0.37,0,0.71,0.34,0.71,0.71v15.78
				c0,5.71-4.32,10.18-10.25,10.18c-5.89,0-10.18-4.47-10.18-10.18V735.67z"/>
			<path class="st2" d="M308.12,735.67c0-0.37,0.34-0.71,0.71-0.71h2.48c0.37,0,0.71,0.34,0.71,0.71v24.87
				c0,0.37-0.34,0.71-0.71,0.71h-2.48c-0.37,0-0.71-0.34-0.71-0.71V735.67z"/>
			<path class="st2" d="M322.17,735.14c0.08-0.3,0.38-0.56,0.68-0.56h0.6c0.22,0,0.56,0.19,0.64,0.41l7.85,19.19h0.15l7.81-19.19
				c0.07-0.22,0.37-0.41,0.64-0.41h0.6c0.3,0,0.6,0.26,0.68,0.56l4.62,25.24c0.11,0.53-0.15,0.87-0.68,0.87h-2.44
				c-0.34,0-0.64-0.26-0.72-0.53l-2.78-16.79c-0.04,0-0.11,0-0.11,0l-6.76,17.28c-0.07,0.22-0.3,0.41-0.64,0.41h-0.68
				c-0.3,0-0.57-0.19-0.64-0.41l-6.8-17.28c-0.04,0-0.11,0-0.15,0l-2.7,16.79c-0.04,0.26-0.37,0.53-0.68,0.53h-2.44
				c-0.52,0-0.79-0.34-0.71-0.87L322.17,735.14z"/>
			<path class="st2" d="M348.44,760.27l11.53-25.28c0.11-0.22,0.45-0.41,0.64-0.41h0.37c0.19,0,0.53,0.19,0.64,0.41l11.46,25.28
				c0.22,0.49-0.08,0.98-0.64,0.98h-2.37c-0.45,0-0.71-0.23-0.86-0.57l-2.33-5.15H354.6c-0.75,1.73-1.54,3.42-2.29,5.15
				c-0.11,0.26-0.41,0.57-0.87,0.57h-2.36C348.52,761.25,348.21,760.76,348.44,760.27z M365.46,752.31l-4.62-10.29h-0.19
				l-4.58,10.29H365.46z"/>
			<path class="st2" d="M376.85,735.67c0-0.37,0.3-0.71,0.71-0.71h10.22c4.51,0,8.19,3.57,8.19,8.04c0,3.46-2.29,6.31-5.56,7.63
				l5.15,9.54c0.26,0.49,0,1.09-0.64,1.09h-2.93c-0.3,0-0.52-0.19-0.6-0.34l-4.99-9.95h-5.67v9.58c0,0.37-0.34,0.71-0.71,0.71h-2.44
				c-0.41,0-0.71-0.34-0.71-0.71V735.67z M387.48,747.73c2.44,0,4.58-2.07,4.58-4.66c0-2.44-2.14-4.47-4.58-4.47h-6.68v9.13H387.48z
				"/>
			<path class="st2" d="M398.31,760.27l11.53-25.28c0.11-0.22,0.45-0.41,0.64-0.41h0.37c0.19,0,0.53,0.19,0.64,0.41l11.46,25.28
				c0.22,0.49-0.08,0.98-0.64,0.98h-2.37c-0.45,0-0.71-0.23-0.86-0.57l-2.33-5.15h-12.28c-0.75,1.73-1.54,3.42-2.29,5.15
				c-0.11,0.26-0.41,0.57-0.87,0.57h-2.36C398.38,761.25,398.08,760.76,398.31,760.27z M405.26,730.94
				c-0.38-0.22-0.34-0.6-0.22-0.86c0.34-0.68,1.46-3.16,3.68-3.16c2.18,0,2.89,2.4,4.1,2.4c0.87,0,1.17-0.94,1.54-1.5
				c0.22-0.38,0.49-0.6,0.94-0.34c0.3,0.22,0.75,0.41,0.98,0.71c0.19,0.3,0.07,0.6-0.11,1.01c-0.38,0.83-1.46,2.82-3.53,2.82
				c-1.92,0-2.93-2.44-4.02-2.44c-0.9,0-1.39,1.05-1.61,1.54c-0.19,0.41-0.37,0.64-0.87,0.37L405.26,730.94z M415.32,752.31
				l-4.62-10.29h-0.19l-4.58,10.29H415.32z"/>
			<path class="st2" d="M426.71,735.67c0-0.37,0.3-0.71,0.71-0.71h15.02c0.41,0,0.72,0.34,0.72,0.71v2.11c0,0.37-0.3,0.71-0.72,0.71
				h-11.87v7.66h10.03c0.38,0,0.72,0.34,0.72,0.71v2.11c0,0.41-0.34,0.71-0.72,0.71h-10.03v8.07h11.87c0.41,0,0.72,0.34,0.72,0.71
				v2.07c0,0.37-0.3,0.71-0.72,0.71h-15.02c-0.41,0-0.71-0.34-0.71-0.71V735.67z"/>
			<path class="st2" d="M447.15,757.45c0.34-0.48,0.64-1.05,0.98-1.54c0.34-0.48,0.86-0.64,1.27-0.3c0.23,0.19,3.12,2.59,6.01,2.59
				c2.59,0,4.24-1.58,4.24-3.49c0-2.25-1.95-3.68-5.67-5.22c-3.83-1.61-6.84-3.6-6.84-7.96c0-2.93,2.25-6.95,8.23-6.95
				c3.76,0,6.57,1.95,6.95,2.22c0.3,0.18,0.6,0.71,0.22,1.28c-0.3,0.45-0.64,0.98-0.94,1.42c-0.3,0.49-0.79,0.71-1.32,0.37
				c-0.26-0.15-2.89-1.88-5.07-1.88c-3.15,0-4.25,1.99-4.25,3.38c0,2.14,1.66,3.46,4.77,4.73c4.36,1.76,8.07,3.83,8.07,8.41
				c0,3.9-3.49,7.1-8.37,7.1c-4.58,0-7.47-2.4-8.07-2.97C447.04,758.35,446.78,758.09,447.15,757.45z"/>
		</g>
	</g>
	<g>
		<defs>
			<rect id="SVGID_1_" x="531.66" y="213.03" width="140.3" height="318.64"/>
		</defs>
		<clipPath id="SVGID_2_">
			<use xlink:href="#SVGID_1_"  style="overflow:visible;"/>
		</clipPath>
		<g class="st3">
			<line class="st4" x1="369.51" y1="295.16" x2="677.57" y2="139.61"/>
			<line class="st4" x1="370.79" y1="297.68" x2="678.86" y2="142.14"/>
			<line class="st4" x1="372.08" y1="300.2" x2="680.14" y2="144.66"/>
			<line class="st4" x1="373.36" y1="302.72" x2="681.43" y2="147.18"/>
			<line class="st4" x1="374.65" y1="305.25" x2="682.71" y2="149.71"/>
			<line class="st4" x1="375.93" y1="307.77" x2="684" y2="152.23"/>
			<line class="st4" x1="377.22" y1="310.29" x2="685.28" y2="154.75"/>
			<line class="st4" x1="378.5" y1="312.82" x2="686.57" y2="157.27"/>
			<line class="st4" x1="379.79" y1="315.34" x2="687.85" y2="159.8"/>
			<line class="st4" x1="381.07" y1="317.86" x2="689.14" y2="162.32"/>
			<line class="st4" x1="382.36" y1="320.38" x2="690.42" y2="164.84"/>
			<line class="st4" x1="383.64" y1="322.91" x2="691.71" y2="167.37"/>
			<line class="st4" x1="384.93" y1="325.43" x2="692.99" y2="169.89"/>
			<line class="st4" x1="386.21" y1="327.95" x2="694.28" y2="172.41"/>
			<line class="st4" x1="387.5" y1="330.48" x2="695.56" y2="174.93"/>
			<line class="st4" x1="388.78" y1="333" x2="696.85" y2="177.46"/>
			<line class="st4" x1="390.07" y1="335.52" x2="698.13" y2="179.98"/>
			<line class="st4" x1="391.35" y1="338.04" x2="699.42" y2="182.5"/>
			<line class="st4" x1="392.64" y1="340.57" x2="700.7" y2="185.03"/>
			<line class="st4" x1="393.92" y1="343.09" x2="701.99" y2="187.55"/>
			<line class="st4" x1="395.21" y1="345.61" x2="703.27" y2="190.07"/>
			<line class="st4" x1="396.49" y1="348.14" x2="704.56" y2="192.59"/>
			<line class="st4" x1="397.78" y1="350.66" x2="705.84" y2="195.12"/>
			<line class="st4" x1="399.06" y1="353.18" x2="707.13" y2="197.64"/>
			<line class="st4" x1="400.35" y1="355.7" x2="708.41" y2="200.16"/>
			<line class="st4" x1="401.63" y1="358.23" x2="709.7" y2="202.69"/>
			<line class="st4" x1="402.92" y1="360.75" x2="710.98" y2="205.21"/>
			<line class="st4" x1="404.2" y1="363.27" x2="712.27" y2="207.73"/>
			<line class="st4" x1="405.49" y1="365.8" x2="713.55" y2="210.25"/>
			<line class="st4" x1="406.77" y1="368.32" x2="714.84" y2="212.78"/>
			<line class="st4" x1="408.06" y1="370.84" x2="716.12" y2="215.3"/>
			<line class="st4" x1="409.34" y1="373.36" x2="717.41" y2="217.82"/>
			<line class="st4" x1="410.63" y1="375.89" x2="718.69" y2="220.35"/>
			<line class="st4" x1="411.91" y1="378.41" x2="719.98" y2="222.87"/>
			<line class="st4" x1="413.2" y1="380.93" x2="721.26" y2="225.39"/>
			<line class="st4" x1="414.48" y1="383.46" x2="722.55" y2="227.91"/>
			<line class="st4" x1="415.77" y1="385.98" x2="723.83" y2="230.44"/>
			<line class="st4" x1="417.05" y1="388.5" x2="725.12" y2="232.96"/>
			<line class="st4" x1="418.34" y1="391.02" x2="726.4" y2="235.48"/>
			<line class="st4" x1="419.62" y1="393.55" x2="727.69" y2="238"/>
			<line class="st4" x1="420.91" y1="396.07" x2="728.97" y2="240.53"/>
			<line class="st4" x1="422.19" y1="398.59" x2="730.26" y2="243.05"/>
			<line class="st4" x1="423.48" y1="401.12" x2="731.54" y2="245.57"/>
			<line class="st4" x1="424.76" y1="403.64" x2="732.83" y2="248.1"/>
			<line class="st4" x1="426.05" y1="406.16" x2="734.11" y2="250.62"/>
			<line class="st4" x1="427.33" y1="408.68" x2="735.4" y2="253.14"/>
			<line class="st4" x1="428.62" y1="411.21" x2="736.68" y2="255.66"/>
			<line class="st4" x1="429.9" y1="413.73" x2="737.97" y2="258.19"/>
			<line class="st4" x1="431.19" y1="416.25" x2="739.26" y2="260.71"/>
			<line class="st4" x1="432.47" y1="418.78" x2="740.54" y2="263.23"/>
			<line class="st4" x1="433.76" y1="421.3" x2="741.83" y2="265.76"/>
			<line class="st4" x1="435.05" y1="423.82" x2="743.11" y2="268.28"/>
			<line class="st4" x1="436.33" y1="426.34" x2="744.4" y2="270.8"/>
			<line class="st4" x1="437.62" y1="428.87" x2="745.68" y2="273.32"/>
			<line class="st4" x1="438.9" y1="431.39" x2="746.97" y2="275.85"/>
			<line class="st4" x1="440.19" y1="433.91" x2="748.25" y2="278.37"/>
			<line class="st4" x1="441.47" y1="436.43" x2="749.54" y2="280.89"/>
			<line class="st4" x1="442.76" y1="438.96" x2="750.82" y2="283.42"/>
			<line class="st4" x1="444.04" y1="441.48" x2="752.11" y2="285.94"/>
			<line class="st4" x1="445.33" y1="444" x2="753.39" y2="288.46"/>
			<line class="st4" x1="446.61" y1="446.53" x2="754.68" y2="290.98"/>
			<line class="st4" x1="447.9" y1="449.05" x2="755.96" y2="293.51"/>
			<line class="st4" x1="449.18" y1="451.57" x2="757.25" y2="296.03"/>
			<line class="st4" x1="450.47" y1="454.09" x2="758.53" y2="298.55"/>
			<line class="st4" x1="451.75" y1="456.62" x2="759.82" y2="301.08"/>
			<line class="st4" x1="453.04" y1="459.14" x2="761.1" y2="303.6"/>
			<line class="st4" x1="454.32" y1="461.66" x2="762.39" y2="306.12"/>
			<line class="st4" x1="455.61" y1="464.19" x2="763.67" y2="308.64"/>
			<line class="st4" x1="456.89" y1="466.71" x2="764.96" y2="311.17"/>
			<line class="st4" x1="458.18" y1="469.23" x2="766.24" y2="313.69"/>
			<line class="st4" x1="459.46" y1="471.75" x2="767.53" y2="316.21"/>
			<line class="st4" x1="460.75" y1="474.28" x2="768.81" y2="318.74"/>
			<line class="st4" x1="462.03" y1="476.8" x2="770.1" y2="321.26"/>
			<line class="st4" x1="463.32" y1="479.32" x2="771.38" y2="323.78"/>
			<line class="st4" x1="464.6" y1="481.85" x2="772.67" y2="326.3"/>
			<line class="st4" x1="465.89" y1="484.37" x2="773.95" y2="328.83"/>
			<line class="st4" x1="467.17" y1="486.89" x2="775.24" y2="331.35"/>
			<line class="st4" x1="468.46" y1="489.41" x2="776.52" y2="333.87"/>
			<line class="st4" x1="469.74" y1="491.94" x2="777.81" y2="336.4"/>
			<line class="st4" x1="471.03" y1="494.46" x2="779.09" y2="338.92"/>
			<line class="st4" x1="472.31" y1="496.98" x2="780.38" y2="341.44"/>
			<line class="st4" x1="473.6" y1="499.51" x2="781.66" y2="343.96"/>
			<line class="st4" x1="474.88" y1="502.03" x2="782.95" y2="346.49"/>
			<line class="st4" x1="476.17" y1="504.55" x2="784.23" y2="349.01"/>
			<line class="st4" x1="477.45" y1="507.07" x2="785.52" y2="351.53"/>
			<line class="st4" x1="478.74" y1="509.6" x2="786.8" y2="354.05"/>
			<line class="st4" x1="480.02" y1="512.12" x2="788.09" y2="356.58"/>
			<line class="st4" x1="481.31" y1="514.64" x2="789.37" y2="359.1"/>
			<line class="st4" x1="482.59" y1="517.17" x2="790.66" y2="361.62"/>
			<line class="st4" x1="483.88" y1="519.69" x2="791.94" y2="364.15"/>
			<line class="st4" x1="485.16" y1="522.21" x2="793.23" y2="366.67"/>
			<line class="st4" x1="486.45" y1="524.73" x2="794.51" y2="369.19"/>
			<line class="st4" x1="487.73" y1="527.26" x2="795.8" y2="371.71"/>
			<line class="st4" x1="489.02" y1="529.78" x2="797.08" y2="374.24"/>
			<line class="st4" x1="490.3" y1="532.3" x2="798.37" y2="376.76"/>
			<line class="st4" x1="491.59" y1="534.83" x2="799.65" y2="379.28"/>
			<line class="st4" x1="492.87" y1="537.35" x2="800.94" y2="381.81"/>
			<line class="st4" x1="494.16" y1="539.87" x2="802.22" y2="384.33"/>
			<line class="st4" x1="495.44" y1="542.39" x2="803.51" y2="386.85"/>
			<line class="st4" x1="496.73" y1="544.92" x2="804.79" y2="389.37"/>
			<line class="st4" x1="498.01" y1="547.44" x2="806.08" y2="391.9"/>
			<line class="st4" x1="499.3" y1="549.96" x2="807.36" y2="394.42"/>
			<line class="st4" x1="500.58" y1="552.49" x2="808.65" y2="396.94"/>
			<line class="st4" x1="501.87" y1="555.01" x2="809.93" y2="399.47"/>
			<line class="st4" x1="503.15" y1="557.53" x2="811.22" y2="401.99"/>
			<line class="st4" x1="504.44" y1="560.05" x2="812.51" y2="404.51"/>
			<line class="st4" x1="505.72" y1="562.58" x2="813.79" y2="407.03"/>
			<line class="st4" x1="507.01" y1="565.1" x2="815.08" y2="409.56"/>
			<line class="st4" x1="508.29" y1="567.62" x2="816.36" y2="412.08"/>
			<line class="st4" x1="509.58" y1="570.14" x2="817.65" y2="414.6"/>
			<line class="st4" x1="510.86" y1="572.67" x2="818.93" y2="417.13"/>
			<line class="st4" x1="512.15" y1="575.19" x2="820.22" y2="419.65"/>
			<line class="st4" x1="513.43" y1="577.71" x2="821.5" y2="422.17"/>
			<line class="st4" x1="514.72" y1="580.24" x2="822.79" y2="424.69"/>
			<line class="st4" x1="516" y1="582.76" x2="824.07" y2="427.22"/>
			<line class="st4" x1="517.29" y1="585.28" x2="825.36" y2="429.74"/>
			<line class="st4" x1="518.57" y1="587.8" x2="826.64" y2="432.26"/>
			<line class="st4" x1="519.86" y1="590.33" x2="827.93" y2="434.79"/>
			<line class="st4" x1="521.14" y1="592.85" x2="829.21" y2="437.31"/>
			<line class="st4" x1="522.43" y1="595.37" x2="830.5" y2="439.83"/>
			<line class="st4" x1="523.71" y1="597.9" x2="831.78" y2="442.35"/>
			<line class="st4" x1="525" y1="600.42" x2="833.07" y2="444.88"/>
			<line class="st4" x1="526.28" y1="602.94" x2="834.35" y2="447.4"/>
			<line class="st4" x1="527.57" y1="605.46" x2="835.64" y2="449.92"/>
			<line class="st4" x1="528.85" y1="607.99" x2="836.92" y2="452.45"/>
		</g>
	</g>
	<polygon class="st5" points="532.5,391.04 532.5,212.91 359.61,212.91 359.61,356.73 310.51,356.73 310.51,532.07 465.46,532.07 
		465.42,532.04 535.72,572.23 593.26,453.29 	"/>
</g>
</svg>
