<?xml version="1.0" encoding="utf-8"?>
<!-- Generator: Adobe Illustrator 24.0.1, SVG Export Plug-In . SVG Version: 6.00 Build 0)  -->
<svg version="1.1" id="Layer_1" xmlns="http://www.w3.org/2000/svg" xmlns:xlink="http://www.w3.org/1999/xlink" x="0px" y="0px"
	 viewBox="0 0 672.07 717.61" style="enable-background:new 0 0 672.07 717.61;" xml:space="preserve">
<style type="text/css">
	.st0{fill:#D0D2D3;}
	.st1{fill:#404041;}
	.st2{fill:#231F20;}
	.st3{fill:#DAA77F;}
	.st4{clip-path:url(#SVGID_2_);}
	.st5{fill:none;stroke:#F1F1F2;stroke-width:1.7615;stroke-miterlimit:10;}
</style>
<g>
	<polygon class="st0" points="666.64,499.01 36.18,499.01 36.18,0 535.2,0 535.2,199.37 666.64,199.37 	"/>
	<polygon class="st1" points="350.48,606.16 377.36,606.16 363.92,582.88 350.48,559.6 337.04,582.88 323.6,606.16 	"/>
	<g>
		<g>
			<path class="st2" d="M190.86,643.96c0-0.35,0.28-0.67,0.67-0.67h9.58c4.22,0,7.68,3.34,7.68,7.53c0,3.24-2.15,5.91-5.21,7.15
				l4.82,8.95c0.25,0.46,0,1.02-0.6,1.02h-2.75c-0.28,0-0.49-0.18-0.56-0.32l-4.68-9.33h-5.32v8.98c0,0.35-0.32,0.67-0.67,0.67
				h-2.29c-0.39,0-0.67-0.32-0.67-0.67V643.96z M200.83,655.26c2.29,0,4.3-1.93,4.3-4.36c0-2.29-2.01-4.19-4.3-4.19h-6.27v8.55
				H200.83z"/>
			<path class="st2" d="M213.98,643.96c0-0.35,0.32-0.67,0.67-0.67h2.36c0.39,0,0.67,0.32,0.67,0.67v14.54
				c0,3.52,2.25,6.27,5.85,6.27c3.63,0,5.92-2.71,5.92-6.2v-14.61c0-0.35,0.28-0.67,0.67-0.67h2.36c0.35,0,0.67,0.32,0.67,0.67
				v14.79c0,5.35-4.05,9.54-9.61,9.54c-5.53,0-9.54-4.19-9.54-9.54V643.96z"/>
			<path class="st2" d="M236.35,667.02l10.81-23.7c0.11-0.21,0.42-0.39,0.6-0.39h0.35c0.18,0,0.49,0.18,0.6,0.39l10.74,23.7
				c0.21,0.46-0.07,0.91-0.6,0.91h-2.22c-0.42,0-0.67-0.21-0.81-0.53l-2.18-4.82h-11.52c-0.7,1.62-1.44,3.2-2.15,4.82
				c-0.11,0.24-0.39,0.53-0.81,0.53h-2.22C236.42,667.94,236.14,667.48,236.35,667.02z M252.3,659.55l-4.33-9.65h-0.18l-4.3,9.65
				H252.3z"/>
			<path class="st2" d="M281.65,642.93c3.56,0,6.13,1.2,8.52,3.28c0.32,0.28,0.32,0.71,0.04,0.99l-1.55,1.59
				c-0.25,0.32-0.56,0.32-0.88,0c-1.66-1.44-3.91-2.36-6.09-2.36c-5.04,0-8.84,4.22-8.84,9.15c0,4.93,3.84,9.12,8.87,9.12
				c2.57,0,4.37-1.03,6.06-2.33c0.32-0.25,0.63-0.21,0.85-0.03l1.62,1.58c0.28,0.25,0.21,0.71-0.03,0.95
				c-2.39,2.33-5.42,3.42-8.56,3.42c-7.04,0-12.71-5.6-12.71-12.64C268.94,648.6,274.61,642.93,281.65,642.93z"/>
			<path class="st2" d="M291.94,667.02l10.81-23.7c0.11-0.21,0.42-0.39,0.6-0.39h0.35c0.18,0,0.49,0.18,0.6,0.39l10.74,23.7
				c0.21,0.46-0.07,0.91-0.6,0.91h-2.22c-0.42,0-0.67-0.21-0.81-0.53l-2.18-4.82h-11.52c-0.7,1.62-1.44,3.2-2.15,4.82
				c-0.11,0.24-0.39,0.53-0.81,0.53h-2.22C292.01,667.94,291.73,667.48,291.94,667.02z M307.89,659.55l-4.33-9.65h-0.18l-4.3,9.65
				H307.89z"/>
			<path class="st2" d="M318.57,643.96c0-0.35,0.28-0.67,0.67-0.67h9.58c4.22,0,7.68,3.34,7.68,7.53c0,3.24-2.15,5.91-5.21,7.15
				l4.82,8.95c0.25,0.46,0,1.02-0.6,1.02h-2.75c-0.28,0-0.49-0.18-0.56-0.32l-4.68-9.33h-5.32v8.98c0,0.35-0.32,0.67-0.67,0.67
				h-2.29c-0.39,0-0.67-0.32-0.67-0.67V643.96z M328.54,655.26c2.29,0,4.3-1.93,4.3-4.36c0-2.29-2.01-4.19-4.3-4.19h-6.27v8.55
				H328.54z"/>
			<path class="st2" d="M342,643.96c0-0.35,0.28-0.67,0.67-0.67h2.32c0.35,0,0.67,0.32,0.67,0.67v20.7h9.54
				c0.39,0,0.67,0.32,0.67,0.67v1.93c0,0.35-0.28,0.67-0.67,0.67h-12.54c-0.39,0-0.67-0.32-0.67-0.67V643.96z"/>
			<path class="st2" d="M370.43,642.93c7.04,0,12.68,5.67,12.68,12.71c0,7.04-5.63,12.64-12.68,12.64s-12.64-5.6-12.64-12.64
				C357.79,648.6,363.38,642.93,370.43,642.93z M370.43,664.77c5.04,0,9.16-4.09,9.16-9.12c0-5-4.12-9.19-9.16-9.19
				c-5,0-9.12,4.19-9.12,9.19C361.31,660.68,365.43,664.77,370.43,664.77z"/>
			<path class="st2" d="M386.57,664.38c0.32-0.46,0.6-0.99,0.92-1.44c0.32-0.46,0.81-0.6,1.2-0.28c0.21,0.18,2.92,2.43,5.63,2.43
				c2.43,0,3.98-1.48,3.98-3.28c0-2.11-1.83-3.45-5.32-4.89c-3.59-1.51-6.41-3.38-6.41-7.47c0-2.75,2.11-6.52,7.71-6.52
				c3.52,0,6.16,1.83,6.51,2.08c0.28,0.18,0.56,0.67,0.21,1.2c-0.28,0.42-0.6,0.92-0.88,1.34c-0.28,0.45-0.74,0.67-1.23,0.35
				c-0.25-0.14-2.71-1.76-4.75-1.76c-2.96,0-3.98,1.86-3.98,3.17c0,2.01,1.55,3.24,4.47,4.43c4.08,1.66,7.57,3.59,7.57,7.89
				c0,3.66-3.28,6.66-7.85,6.66c-4.3,0-7.01-2.26-7.57-2.78C386.46,665.22,386.22,664.98,386.57,664.38z"/>
			<path class="st2" d="M413.24,664.38c0.32-0.46,0.6-0.99,0.92-1.44c0.32-0.46,0.81-0.6,1.2-0.28c0.21,0.18,2.92,2.43,5.63,2.43
				c2.43,0,3.98-1.48,3.98-3.28c0-2.11-1.83-3.45-5.32-4.89c-3.59-1.51-6.41-3.38-6.41-7.47c0-2.75,2.11-6.52,7.71-6.52
				c3.52,0,6.16,1.83,6.51,2.08c0.28,0.18,0.56,0.67,0.21,1.2c-0.28,0.42-0.6,0.92-0.88,1.34c-0.28,0.45-0.74,0.67-1.23,0.35
				c-0.25-0.14-2.71-1.76-4.75-1.76c-2.96,0-3.98,1.86-3.98,3.17c0,2.01,1.55,3.24,4.47,4.43c4.08,1.66,7.57,3.59,7.57,7.89
				c0,3.66-3.28,6.66-7.85,6.66c-4.3,0-7.01-2.26-7.57-2.78C413.13,665.22,412.88,664.98,413.24,664.38z"/>
			<path class="st2" d="M433.74,643.96c0-0.35,0.32-0.67,0.67-0.67h2.32c0.35,0,0.67,0.32,0.67,0.67v23.31
				c0,0.35-0.32,0.67-0.67,0.67h-2.32c-0.35,0-0.67-0.32-0.67-0.67V643.96z"/>
			<path class="st2" d="M444.24,643.96c0-0.35,0.28-0.67,0.67-0.67h2.32c0.35,0,0.67,0.32,0.67,0.67v20.7h9.54
				c0.39,0,0.67,0.32,0.67,0.67v1.93c0,0.35-0.28,0.67-0.67,0.67h-12.54c-0.39,0-0.67-0.32-0.67-0.67V643.96z"/>
			<path class="st2" d="M458.54,644.2c-0.21-0.46,0.07-0.92,0.6-0.92h2.5c0.28,0,0.53,0.21,0.6,0.39l7.75,17.43h0.21l7.75-17.43
				c0.07-0.18,0.28-0.39,0.6-0.39h2.5c0.53,0,0.81,0.46,0.6,0.92l-10.81,23.7c-0.1,0.21-0.32,0.39-0.6,0.39h-0.35
				c-0.25,0-0.49-0.18-0.6-0.39L458.54,644.2z"/>
			<path class="st2" d="M481.9,667.02l10.81-23.7c0.11-0.21,0.42-0.39,0.6-0.39h0.35c0.18,0,0.49,0.18,0.6,0.39l10.74,23.7
				c0.21,0.46-0.07,0.91-0.6,0.91h-2.22c-0.42,0-0.67-0.21-0.81-0.53l-2.18-4.82h-11.52c-0.7,1.62-1.44,3.2-2.15,4.82
				c-0.11,0.24-0.39,0.53-0.81,0.53h-2.22C481.97,667.94,481.69,667.48,481.9,667.02z M497.85,659.55l-4.33-9.65h-0.18l-4.3,9.65
				H497.85z"/>
			<path class="st2" d="M232.21,692.79c0.07-0.28,0.35-0.53,0.63-0.53h0.56c0.21,0,0.53,0.18,0.6,0.39l7.36,17.99h0.14l7.32-17.99
				c0.07-0.21,0.35-0.39,0.6-0.39h0.56c0.28,0,0.56,0.25,0.63,0.53l4.33,23.66c0.1,0.49-0.14,0.81-0.63,0.81h-2.29
				c-0.32,0-0.6-0.24-0.67-0.49l-2.61-15.74c-0.03,0-0.1,0-0.1,0l-6.34,16.2c-0.07,0.21-0.28,0.39-0.6,0.39h-0.63
				c-0.28,0-0.53-0.18-0.6-0.39l-6.37-16.2c-0.03,0-0.1,0-0.14,0l-2.54,15.74c-0.04,0.25-0.35,0.49-0.63,0.49h-2.29
				c-0.49,0-0.74-0.32-0.67-0.81L232.21,692.79z"/>
			<path class="st2" d="M260.74,712.72c1.37,0,2.47,1.09,2.47,2.46c0,1.34-1.09,2.43-2.47,2.43c-1.34,0-2.43-1.09-2.43-2.43
				C258.31,713.81,259.41,712.72,260.74,712.72z"/>
			<path class="st2" d="M286.84,692.26c3.38,0,6.16,1.23,8.56,3.28c0.28,0.28,0.32,0.71,0.04,0.99c-0.53,0.56-1.06,1.09-1.58,1.65
				c-0.28,0.32-0.56,0.28-0.92-0.03c-1.65-1.45-3.84-2.39-5.98-2.39c-5,0-8.84,4.22-8.84,9.15c0,4.9,3.84,9.12,8.84,9.12
				c2.92,0,4.93-1.06,5.28-1.2v-3.95h-3.45c-0.39,0-0.67-0.28-0.67-0.63v-2.04c0-0.39,0.28-0.67,0.67-0.67h6.41
				c0.35,0,0.63,0.32,0.63,0.67c0,2.81,0.03,5.7,0.03,8.52c0,0.18-0.14,0.46-0.28,0.56c0,0-3.63,2.33-8.73,2.33
				c-7.01,0-12.68-5.6-12.68-12.64C274.17,697.93,279.84,692.26,286.84,692.26z"/>
			<path class="st2" d="M301.08,693.28c0-0.35,0.32-0.67,0.67-0.67h2.36c0.39,0,0.67,0.32,0.67,0.67v14.54
				c0,3.52,2.25,6.27,5.85,6.27c3.63,0,5.92-2.71,5.92-6.2v-14.61c0-0.35,0.28-0.67,0.67-0.67h2.36c0.35,0,0.67,0.32,0.67,0.67
				v14.79c0,5.35-4.05,9.54-9.61,9.54c-5.53,0-9.54-4.19-9.54-9.54V693.28z"/>
			<path class="st2" d="M326.76,693.28c0-0.35,0.32-0.67,0.67-0.67h2.32c0.35,0,0.67,0.32,0.67,0.67v23.31
				c0,0.35-0.32,0.67-0.67,0.67h-2.32c-0.35,0-0.67-0.32-0.67-0.67V693.28z"/>
			<path class="st2" d="M339.94,692.79c0.07-0.28,0.35-0.53,0.63-0.53h0.56c0.21,0,0.53,0.18,0.6,0.39l7.36,17.99h0.14l7.32-17.99
				c0.07-0.21,0.35-0.39,0.6-0.39h0.56c0.28,0,0.56,0.25,0.63,0.53l4.33,23.66c0.11,0.49-0.14,0.81-0.63,0.81h-2.29
				c-0.32,0-0.6-0.24-0.67-0.49l-2.61-15.74c-0.03,0-0.1,0-0.1,0l-6.34,16.2c-0.07,0.21-0.28,0.39-0.6,0.39h-0.63
				c-0.28,0-0.53-0.18-0.6-0.39l-6.37-16.2c-0.03,0-0.1,0-0.14,0l-2.54,15.74c-0.04,0.25-0.35,0.49-0.63,0.49h-2.29
				c-0.49,0-0.74-0.32-0.67-0.81L339.94,692.79z"/>
			<path class="st2" d="M364.57,716.34l10.81-23.7c0.11-0.21,0.42-0.39,0.6-0.39h0.35c0.18,0,0.49,0.18,0.6,0.39l10.74,23.7
				c0.21,0.46-0.07,0.91-0.6,0.91h-2.22c-0.42,0-0.67-0.21-0.81-0.53l-2.18-4.82h-11.52c-0.7,1.62-1.44,3.2-2.15,4.82
				c-0.11,0.24-0.39,0.53-0.81,0.53h-2.22C364.64,717.26,364.36,716.8,364.57,716.34z M380.52,708.88l-4.33-9.65h-0.18l-4.3,9.65
				H380.52z"/>
			<path class="st2" d="M391.2,693.28c0-0.35,0.28-0.67,0.67-0.67h9.58c4.22,0,7.68,3.34,7.68,7.53c0,3.24-2.15,5.91-5.21,7.15
				l4.82,8.95c0.25,0.46,0,1.02-0.6,1.02h-2.75c-0.28,0-0.49-0.18-0.56-0.32l-4.68-9.33h-5.32v8.98c0,0.35-0.32,0.67-0.67,0.67
				h-2.29c-0.39,0-0.67-0.32-0.67-0.67V693.28z M401.16,704.58c2.29,0,4.3-1.93,4.3-4.36c0-2.29-2.01-4.19-4.3-4.19h-6.27v8.55
				H401.16z"/>
			<path class="st2" d="M411.32,716.34l10.81-23.7c0.11-0.21,0.42-0.39,0.6-0.39h0.35c0.18,0,0.49,0.18,0.6,0.39l10.74,23.7
				c0.21,0.46-0.07,0.91-0.6,0.91h-2.22c-0.42,0-0.67-0.21-0.81-0.53l-2.18-4.82h-11.52c-0.7,1.62-1.44,3.2-2.15,4.82
				c-0.11,0.24-0.39,0.53-0.81,0.53h-2.22C411.39,717.26,411.11,716.8,411.32,716.34z M417.83,688.84
				c-0.35-0.21-0.32-0.56-0.21-0.81c0.32-0.63,1.37-2.96,3.45-2.96c2.04,0,2.71,2.25,3.84,2.25c0.81,0,1.09-0.88,1.44-1.41
				c0.21-0.35,0.46-0.56,0.88-0.32c0.28,0.21,0.71,0.39,0.92,0.67c0.18,0.28,0.07,0.56-0.1,0.95c-0.35,0.77-1.37,2.64-3.31,2.64
				c-1.8,0-2.75-2.28-3.77-2.28c-0.84,0-1.3,0.98-1.51,1.44c-0.18,0.39-0.35,0.6-0.81,0.35L417.83,688.84z M427.27,708.88
				l-4.33-9.65h-0.18l-4.3,9.65H427.27z"/>
			<path class="st2" d="M437.95,693.28c0-0.35,0.28-0.67,0.67-0.67h14.09c0.39,0,0.67,0.32,0.67,0.67v1.97
				c0,0.35-0.28,0.67-0.67,0.67h-11.13v7.18h9.4c0.35,0,0.67,0.32,0.67,0.67v1.97c0,0.39-0.32,0.67-0.67,0.67h-9.4v7.57h11.13
				c0.39,0,0.67,0.32,0.67,0.67v1.93c0,0.35-0.28,0.67-0.67,0.67h-14.09c-0.39,0-0.67-0.32-0.67-0.67V693.28z"/>
			<path class="st2" d="M457.11,713.7c0.32-0.46,0.6-0.99,0.92-1.44c0.32-0.46,0.81-0.6,1.2-0.28c0.21,0.18,2.92,2.43,5.64,2.43
				c2.43,0,3.98-1.48,3.98-3.28c0-2.11-1.83-3.45-5.32-4.89c-3.59-1.51-6.41-3.38-6.41-7.47c0-2.75,2.11-6.52,7.71-6.52
				c3.52,0,6.16,1.83,6.51,2.08c0.28,0.18,0.56,0.67,0.21,1.2c-0.28,0.42-0.6,0.92-0.88,1.34c-0.28,0.45-0.74,0.67-1.23,0.35
				c-0.25-0.14-2.71-1.76-4.75-1.76c-2.96,0-3.98,1.86-3.98,3.17c0,2.01,1.55,3.24,4.47,4.43c4.08,1.66,7.57,3.59,7.57,7.89
				c0,3.66-3.27,6.66-7.85,6.66c-4.3,0-7.01-2.26-7.57-2.78C457.01,714.55,456.76,714.3,457.11,713.7z"/>
		</g>
	</g>
	<polygon class="st3" points="40.93,209.98 40.93,214.64 5.43,269.92 40.93,319.47 40.93,384.73 129.47,384.73 129.47,283.29 
		193.1,283.29 193.1,209.98 	"/>
	<g>
		<defs>
			<rect id="SVGID_1_" x="533.48" y="197.14" width="131.53" height="300.05"/>
		</defs>
		<clipPath id="SVGID_2_">
			<use xlink:href="#SVGID_1_"  style="overflow:visible;"/>
		</clipPath>
		<g class="st4">
			<line class="st5" x1="381.45" y1="274.48" x2="670.26" y2="128.02"/>
			<line class="st5" x1="382.73" y1="277" x2="671.54" y2="130.53"/>
			<line class="st5" x1="384.01" y1="279.51" x2="672.82" y2="133.05"/>
			<line class="st5" x1="385.28" y1="282.03" x2="674.09" y2="135.57"/>
			<line class="st5" x1="386.56" y1="284.55" x2="675.37" y2="138.09"/>
			<line class="st5" x1="387.84" y1="287.07" x2="676.65" y2="140.6"/>
			<line class="st5" x1="389.11" y1="289.58" x2="677.92" y2="143.12"/>
			<line class="st5" x1="390.39" y1="292.1" x2="679.2" y2="145.64"/>
			<line class="st5" x1="391.67" y1="294.62" x2="680.48" y2="148.16"/>
			<line class="st5" x1="392.94" y1="297.14" x2="681.75" y2="150.67"/>
			<line class="st5" x1="394.22" y1="299.65" x2="683.03" y2="153.19"/>
			<line class="st5" x1="395.5" y1="302.17" x2="684.31" y2="155.71"/>
			<line class="st5" x1="396.77" y1="304.69" x2="685.59" y2="158.23"/>
			<line class="st5" x1="398.05" y1="307.21" x2="686.86" y2="160.75"/>
			<line class="st5" x1="399.33" y1="309.73" x2="688.14" y2="163.26"/>
			<line class="st5" x1="400.6" y1="312.24" x2="689.42" y2="165.78"/>
			<line class="st5" x1="401.88" y1="314.76" x2="690.69" y2="168.3"/>
			<line class="st5" x1="403.16" y1="317.28" x2="691.97" y2="170.82"/>
			<line class="st5" x1="404.44" y1="319.8" x2="693.25" y2="173.33"/>
			<line class="st5" x1="405.71" y1="322.31" x2="694.52" y2="175.85"/>
			<line class="st5" x1="406.99" y1="324.83" x2="695.8" y2="178.37"/>
			<line class="st5" x1="408.27" y1="327.35" x2="697.08" y2="180.89"/>
			<line class="st5" x1="409.54" y1="329.87" x2="698.35" y2="183.4"/>
			<line class="st5" x1="410.82" y1="332.39" x2="699.63" y2="185.92"/>
			<line class="st5" x1="412.1" y1="334.9" x2="700.91" y2="188.44"/>
			<line class="st5" x1="413.37" y1="337.42" x2="702.18" y2="190.96"/>
			<line class="st5" x1="414.65" y1="339.94" x2="703.46" y2="193.48"/>
			<line class="st5" x1="415.93" y1="342.46" x2="704.74" y2="195.99"/>
			<line class="st5" x1="417.2" y1="344.97" x2="706.01" y2="198.51"/>
			<line class="st5" x1="418.48" y1="347.49" x2="707.29" y2="201.03"/>
			<line class="st5" x1="419.76" y1="350.01" x2="708.57" y2="203.55"/>
			<line class="st5" x1="421.03" y1="352.53" x2="709.85" y2="206.06"/>
			<line class="st5" x1="422.31" y1="355.04" x2="711.12" y2="208.58"/>
			<line class="st5" x1="423.59" y1="357.56" x2="712.4" y2="211.1"/>
			<line class="st5" x1="424.86" y1="360.08" x2="713.68" y2="213.62"/>
			<line class="st5" x1="426.14" y1="362.6" x2="714.95" y2="216.13"/>
			<line class="st5" x1="427.42" y1="365.12" x2="716.23" y2="218.65"/>
			<line class="st5" x1="428.7" y1="367.63" x2="717.51" y2="221.17"/>
			<line class="st5" x1="429.97" y1="370.15" x2="718.78" y2="223.69"/>
			<line class="st5" x1="431.25" y1="372.67" x2="720.06" y2="226.21"/>
			<line class="st5" x1="432.53" y1="375.19" x2="721.34" y2="228.72"/>
			<line class="st5" x1="433.8" y1="377.7" x2="722.61" y2="231.24"/>
			<line class="st5" x1="435.08" y1="380.22" x2="723.89" y2="233.76"/>
			<line class="st5" x1="436.36" y1="382.74" x2="725.17" y2="236.28"/>
			<line class="st5" x1="437.63" y1="385.26" x2="726.44" y2="238.79"/>
			<line class="st5" x1="438.91" y1="387.78" x2="727.72" y2="241.31"/>
			<line class="st5" x1="440.19" y1="390.29" x2="729" y2="243.83"/>
			<line class="st5" x1="441.46" y1="392.81" x2="730.27" y2="246.35"/>
			<line class="st5" x1="442.74" y1="395.33" x2="731.55" y2="248.86"/>
			<line class="st5" x1="444.02" y1="397.85" x2="732.83" y2="251.38"/>
			<line class="st5" x1="445.29" y1="400.36" x2="734.11" y2="253.9"/>
			<line class="st5" x1="446.57" y1="402.88" x2="735.38" y2="256.42"/>
			<line class="st5" x1="447.85" y1="405.4" x2="736.66" y2="258.94"/>
			<line class="st5" x1="449.12" y1="407.92" x2="737.94" y2="261.45"/>
			<line class="st5" x1="450.4" y1="410.43" x2="739.21" y2="263.97"/>
			<line class="st5" x1="451.68" y1="412.95" x2="740.49" y2="266.49"/>
			<line class="st5" x1="452.96" y1="415.47" x2="741.77" y2="269.01"/>
			<line class="st5" x1="454.23" y1="417.99" x2="743.04" y2="271.52"/>
			<line class="st5" x1="455.51" y1="420.51" x2="744.32" y2="274.04"/>
			<line class="st5" x1="456.79" y1="423.02" x2="745.6" y2="276.56"/>
			<line class="st5" x1="458.06" y1="425.54" x2="746.87" y2="279.08"/>
			<line class="st5" x1="459.34" y1="428.06" x2="748.15" y2="281.59"/>
			<line class="st5" x1="460.62" y1="430.58" x2="749.43" y2="284.11"/>
			<line class="st5" x1="461.89" y1="433.09" x2="750.7" y2="286.63"/>
			<line class="st5" x1="463.17" y1="435.61" x2="751.98" y2="289.15"/>
			<line class="st5" x1="464.45" y1="438.13" x2="753.26" y2="291.67"/>
			<line class="st5" x1="465.72" y1="440.65" x2="754.54" y2="294.18"/>
			<line class="st5" x1="467" y1="443.17" x2="755.81" y2="296.7"/>
			<line class="st5" x1="468.28" y1="445.68" x2="757.09" y2="299.22"/>
			<line class="st5" x1="469.55" y1="448.2" x2="758.37" y2="301.74"/>
			<line class="st5" x1="470.83" y1="450.72" x2="759.64" y2="304.25"/>
			<line class="st5" x1="472.11" y1="453.24" x2="760.92" y2="306.77"/>
			<line class="st5" x1="473.39" y1="455.75" x2="762.2" y2="309.29"/>
			<line class="st5" x1="474.66" y1="458.27" x2="763.47" y2="311.81"/>
			<line class="st5" x1="475.94" y1="460.79" x2="764.75" y2="314.32"/>
			<line class="st5" x1="477.22" y1="463.31" x2="766.03" y2="316.84"/>
			<line class="st5" x1="478.49" y1="465.83" x2="767.3" y2="319.36"/>
			<line class="st5" x1="479.77" y1="468.34" x2="768.58" y2="321.88"/>
			<line class="st5" x1="481.05" y1="470.86" x2="769.86" y2="324.4"/>
			<line class="st5" x1="482.32" y1="473.38" x2="771.13" y2="326.91"/>
			<line class="st5" x1="483.6" y1="475.9" x2="772.41" y2="329.43"/>
			<line class="st5" x1="484.88" y1="478.41" x2="773.69" y2="331.95"/>
			<line class="st5" x1="486.15" y1="480.93" x2="774.96" y2="334.47"/>
			<line class="st5" x1="487.43" y1="483.45" x2="776.24" y2="336.98"/>
			<line class="st5" x1="488.71" y1="485.97" x2="777.52" y2="339.5"/>
			<line class="st5" x1="489.98" y1="488.48" x2="778.8" y2="342.02"/>
			<line class="st5" x1="491.26" y1="491" x2="780.07" y2="344.54"/>
			<line class="st5" x1="492.54" y1="493.52" x2="781.35" y2="347.05"/>
			<line class="st5" x1="493.81" y1="496.04" x2="782.63" y2="349.57"/>
			<line class="st5" x1="495.09" y1="498.56" x2="783.9" y2="352.09"/>
			<line class="st5" x1="496.37" y1="501.07" x2="785.18" y2="354.61"/>
			<line class="st5" x1="497.65" y1="503.59" x2="786.46" y2="357.13"/>
			<line class="st5" x1="498.92" y1="506.11" x2="787.73" y2="359.64"/>
			<line class="st5" x1="500.2" y1="508.63" x2="789.01" y2="362.16"/>
			<line class="st5" x1="501.48" y1="511.14" x2="790.29" y2="364.68"/>
			<line class="st5" x1="502.75" y1="513.66" x2="791.56" y2="367.2"/>
			<line class="st5" x1="504.03" y1="516.18" x2="792.84" y2="369.71"/>
			<line class="st5" x1="505.31" y1="518.7" x2="794.12" y2="372.23"/>
			<line class="st5" x1="506.58" y1="521.22" x2="795.39" y2="374.75"/>
			<line class="st5" x1="507.86" y1="523.73" x2="796.67" y2="377.27"/>
			<line class="st5" x1="509.14" y1="526.25" x2="797.95" y2="379.78"/>
			<line class="st5" x1="510.41" y1="528.77" x2="799.22" y2="382.3"/>
			<line class="st5" x1="511.69" y1="531.29" x2="800.5" y2="384.82"/>
			<line class="st5" x1="512.97" y1="533.8" x2="801.78" y2="387.34"/>
			<line class="st5" x1="514.24" y1="536.32" x2="803.06" y2="389.86"/>
			<line class="st5" x1="515.52" y1="538.84" x2="804.33" y2="392.37"/>
			<line class="st5" x1="516.8" y1="541.36" x2="805.61" y2="394.89"/>
			<line class="st5" x1="518.07" y1="543.87" x2="806.89" y2="397.41"/>
			<line class="st5" x1="519.35" y1="546.39" x2="808.16" y2="399.93"/>
			<line class="st5" x1="520.63" y1="548.91" x2="809.44" y2="402.44"/>
			<line class="st5" x1="521.91" y1="551.43" x2="810.72" y2="404.96"/>
			<line class="st5" x1="523.18" y1="553.95" x2="811.99" y2="407.48"/>
			<line class="st5" x1="524.46" y1="556.46" x2="813.27" y2="410"/>
			<line class="st5" x1="525.74" y1="558.98" x2="814.55" y2="412.51"/>
			<line class="st5" x1="527.01" y1="561.5" x2="815.82" y2="415.03"/>
			<line class="st5" x1="528.29" y1="564.02" x2="817.1" y2="417.55"/>
			<line class="st5" x1="529.57" y1="566.53" x2="818.38" y2="420.07"/>
			<line class="st5" x1="530.84" y1="569.05" x2="819.65" y2="422.59"/>
		</g>
	</g>
</g>
</svg>
