<?xml version="1.0" encoding="utf-8"?>
<!-- Generator: Adobe Illustrator 24.0.1, SVG Export Plug-In . SVG Version: 6.00 Build 0)  -->
<svg version="1.1" id="Layer_1" xmlns="http://www.w3.org/2000/svg" xmlns:xlink="http://www.w3.org/1999/xlink" x="0px" y="0px"
	 viewBox="0 0 672.07 769" style="enable-background:new 0 0 672.07 769;" xml:space="preserve">
<style type="text/css">
	.st0{fill:#404041;}
	.st1{fill:#231F20;}
	.st2{fill:#D0D2D3;}
	.st3{fill:#DAA77F;}
	.st4{clip-path:url(#SVGID_2_);}
	.st5{fill:none;stroke:#F1F1F2;stroke-width:1.8146;stroke-miterlimit:10;}
</style>
<g>
	<polygon class="st0" points="341.09,637.5 368.78,637.5 354.93,613.51 341.09,589.53 327.24,613.51 313.39,637.5 	"/>
	<g>
		<g>
			<path class="st1" d="M176.66,676.43c0-0.36,0.29-0.69,0.69-0.69h9.87c4.35,0,7.91,3.44,7.91,7.76c0,3.34-2.21,6.1-5.37,7.36
				l4.97,9.21c0.25,0.47,0,1.05-0.62,1.05h-2.83c-0.29,0-0.5-0.18-0.58-0.33l-4.82-9.61h-5.48v9.25c0,0.36-0.33,0.69-0.69,0.69
				h-2.36c-0.4,0-0.69-0.33-0.69-0.69V676.43z M186.92,688.08c2.36,0,4.43-2,4.43-4.5c0-2.35-2.07-4.32-4.43-4.32h-6.45v8.82H186.92
				z"/>
			<path class="st1" d="M200.47,676.43c0-0.36,0.33-0.69,0.69-0.69h2.43c0.4,0,0.69,0.33,0.69,0.69v14.98
				c0,3.63,2.32,6.46,6.02,6.46c3.74,0,6.09-2.79,6.09-6.38v-15.06c0-0.36,0.29-0.69,0.69-0.69h2.43c0.36,0,0.69,0.33,0.69,0.69
				v15.24c0,5.51-4.17,9.83-9.9,9.83c-5.7,0-9.83-4.32-9.83-9.83V676.43z"/>
			<path class="st1" d="M223.51,700.19l11.14-24.41c0.11-0.22,0.44-0.4,0.62-0.4h0.36c0.18,0,0.51,0.18,0.62,0.4l11.06,24.41
				c0.22,0.47-0.07,0.94-0.62,0.94h-2.29c-0.44,0-0.69-0.22-0.83-0.55l-2.25-4.97h-11.87c-0.72,1.67-1.49,3.3-2.21,4.97
				c-0.11,0.26-0.4,0.55-0.83,0.55h-2.29C223.58,701.13,223.3,700.66,223.51,700.19z M239.94,692.5l-4.46-9.94h-0.18l-4.42,9.94
				H239.94z"/>
			<path class="st1" d="M270.18,675.38c3.66,0,6.31,1.23,8.78,3.37c0.33,0.29,0.33,0.72,0.04,1.01l-1.6,1.63
				c-0.25,0.33-0.58,0.33-0.91,0c-1.71-1.49-4.03-2.43-6.28-2.43c-5.19,0-9.1,4.35-9.1,9.43c0,5.08,3.96,9.39,9.14,9.39
				c2.65,0,4.5-1.05,6.24-2.39c0.33-0.25,0.66-0.22,0.87-0.04l1.67,1.64c0.29,0.25,0.22,0.72-0.04,0.98
				c-2.47,2.39-5.59,3.52-8.82,3.52c-7.25,0-13.09-5.77-13.09-13.02C257.08,681.22,262.92,675.38,270.18,675.38z"/>
			<path class="st1" d="M280.78,700.19l11.14-24.41c0.11-0.22,0.44-0.4,0.62-0.4h0.36c0.18,0,0.51,0.18,0.62,0.4l11.06,24.41
				c0.22,0.47-0.07,0.94-0.62,0.94h-2.28c-0.44,0-0.69-0.22-0.84-0.55l-2.25-4.97h-11.86c-0.73,1.67-1.49,3.3-2.21,4.97
				c-0.11,0.26-0.4,0.55-0.83,0.55h-2.29C280.85,701.13,280.57,700.66,280.78,700.19z M297.21,692.5l-4.46-9.94h-0.18l-4.43,9.94
				H297.21z"/>
			<path class="st1" d="M308.22,676.43c0-0.36,0.29-0.69,0.69-0.69h9.87c4.35,0,7.9,3.44,7.9,7.76c0,3.34-2.21,6.1-5.37,7.36
				l4.97,9.21c0.26,0.47,0,1.05-0.62,1.05h-2.83c-0.29,0-0.51-0.18-0.58-0.33l-4.82-9.61h-5.48v9.25c0,0.36-0.33,0.69-0.69,0.69
				h-2.36c-0.4,0-0.69-0.33-0.69-0.69V676.43z M318.48,688.08c2.36,0,4.42-2,4.42-4.5c0-2.35-2.07-4.32-4.42-4.32h-6.46v8.82H318.48
				z"/>
			<path class="st1" d="M332.35,676.43c0-0.36,0.29-0.69,0.69-0.69h2.39c0.37,0,0.69,0.33,0.69,0.69v21.33h9.83
				c0.4,0,0.69,0.33,0.69,0.69v2c0,0.36-0.29,0.69-0.69,0.69h-12.91c-0.4,0-0.69-0.33-0.69-0.69V676.43z"/>
			<path class="st1" d="M361.63,675.38c7.26,0,13.06,5.84,13.06,13.09c0,7.25-5.8,13.02-13.06,13.02c-7.25,0-13.02-5.77-13.02-13.02
				C348.61,681.22,354.38,675.38,361.63,675.38z M361.63,697.87c5.19,0,9.43-4.21,9.43-9.4c0-5.15-4.25-9.47-9.43-9.47
				c-5.15,0-9.39,4.32-9.39,9.47C352.24,693.66,356.48,697.87,361.63,697.87z"/>
			<path class="st1" d="M378.26,697.47c0.33-0.47,0.62-1.01,0.94-1.49c0.33-0.47,0.84-0.62,1.23-0.29c0.22,0.18,3.01,2.5,5.81,2.5
				c2.5,0,4.1-1.52,4.1-3.37c0-2.18-1.89-3.55-5.48-5.04c-3.7-1.56-6.6-3.48-6.6-7.69c0-2.83,2.18-6.71,7.95-6.71
				c3.63,0,6.34,1.89,6.71,2.14c0.29,0.18,0.58,0.69,0.22,1.23c-0.29,0.43-0.62,0.94-0.91,1.38c-0.29,0.47-0.76,0.69-1.27,0.36
				c-0.26-0.14-2.79-1.81-4.9-1.81c-3.04,0-4.1,1.92-4.1,3.26c0,2.07,1.59,3.34,4.61,4.57c4.21,1.7,7.8,3.7,7.8,8.12
				c0,3.77-3.37,6.85-8.09,6.85c-4.42,0-7.22-2.32-7.8-2.86C378.15,698.34,377.9,698.08,378.26,697.47z"/>
			<path class="st1" d="M405.73,697.47c0.33-0.47,0.62-1.01,0.95-1.49c0.33-0.47,0.83-0.62,1.23-0.29c0.21,0.18,3.01,2.5,5.8,2.5
				c2.51,0,4.1-1.52,4.1-3.37c0-2.18-1.89-3.55-5.48-5.04c-3.7-1.56-6.6-3.48-6.6-7.69c0-2.83,2.18-6.71,7.94-6.71
				c3.63,0,6.35,1.89,6.71,2.14c0.29,0.18,0.58,0.69,0.22,1.23c-0.29,0.43-0.62,0.94-0.91,1.38c-0.29,0.47-0.77,0.69-1.27,0.36
				c-0.25-0.14-2.79-1.81-4.89-1.81c-3.05,0-4.1,1.92-4.1,3.26c0,2.07,1.6,3.34,4.61,4.57c4.21,1.7,7.8,3.7,7.8,8.12
				c0,3.77-3.37,6.85-8.09,6.85c-4.43,0-7.22-2.32-7.8-2.86C405.62,698.34,405.37,698.08,405.73,697.47z"/>
			<path class="st1" d="M426.85,676.43c0-0.36,0.33-0.69,0.69-0.69h2.4c0.36,0,0.69,0.33,0.69,0.69v24.02
				c0,0.36-0.33,0.69-0.69,0.69h-2.4c-0.36,0-0.69-0.33-0.69-0.69V676.43z"/>
			<path class="st1" d="M437.67,676.43c0-0.36,0.29-0.69,0.69-0.69h2.4c0.36,0,0.69,0.33,0.69,0.69v21.33h9.83
				c0.4,0,0.69,0.33,0.69,0.69v2c0,0.36-0.29,0.69-0.69,0.69h-12.92c-0.4,0-0.69-0.33-0.69-0.69V676.43z"/>
			<path class="st1" d="M452.4,676.69c-0.22-0.47,0.07-0.94,0.62-0.94h2.57c0.29,0,0.55,0.22,0.62,0.4l7.98,17.95h0.22l7.98-17.95
				c0.07-0.18,0.29-0.4,0.62-0.4h2.58c0.54,0,0.83,0.47,0.62,0.94l-11.14,24.41c-0.11,0.22-0.33,0.4-0.61,0.4h-0.37
				c-0.25,0-0.51-0.18-0.62-0.4L452.4,676.69z"/>
			<path class="st1" d="M476.46,700.19l11.14-24.41c0.11-0.22,0.44-0.4,0.62-0.4h0.36c0.18,0,0.51,0.18,0.62,0.4l11.06,24.41
				c0.22,0.47-0.07,0.94-0.62,0.94h-2.29c-0.44,0-0.69-0.22-0.83-0.55l-2.25-4.97h-11.87c-0.72,1.67-1.49,3.3-2.21,4.97
				c-0.11,0.26-0.4,0.55-0.83,0.55h-2.29C476.53,701.13,476.25,700.66,476.46,700.19z M492.89,692.5l-4.46-9.94h-0.18l-4.42,9.94
				H492.89z"/>
			<path class="st1" d="M219.25,726.73c0.07-0.29,0.36-0.54,0.65-0.54h0.58c0.22,0,0.55,0.18,0.62,0.4l7.58,18.54h0.15l7.54-18.54
				c0.07-0.22,0.37-0.4,0.62-0.4h0.58c0.29,0,0.58,0.25,0.65,0.54l4.47,24.37c0.11,0.51-0.15,0.84-0.66,0.84h-2.36
				c-0.33,0-0.62-0.26-0.69-0.51l-2.69-16.21c-0.04,0-0.11,0-0.11,0l-6.53,16.69c-0.07,0.22-0.29,0.4-0.62,0.4h-0.66
				c-0.29,0-0.54-0.18-0.62-0.4l-6.57-16.69c-0.04,0-0.11,0-0.14,0l-2.61,16.21c-0.04,0.26-0.37,0.51-0.66,0.51h-2.35
				c-0.51,0-0.77-0.33-0.69-0.84L219.25,726.73z"/>
			<path class="st1" d="M248.64,747.26c1.42,0,2.54,1.12,2.54,2.54c0,1.38-1.12,2.5-2.54,2.5c-1.38,0-2.5-1.12-2.5-2.5
				C246.14,748.39,247.27,747.26,248.64,747.26z"/>
			<path class="st1" d="M275.53,726.19c3.48,0,6.35,1.27,8.82,3.37c0.29,0.29,0.33,0.72,0.04,1.01c-0.55,0.58-1.09,1.12-1.63,1.7
				c-0.29,0.33-0.58,0.29-0.95-0.04c-1.7-1.49-3.95-2.46-6.16-2.46c-5.15,0-9.11,4.35-9.11,9.43c0,5.04,3.96,9.39,9.11,9.39
				c3.01,0,5.08-1.08,5.44-1.23v-4.06h-3.55c-0.4,0-0.69-0.29-0.69-0.65v-2.11c0-0.4,0.29-0.69,0.69-0.69h6.6
				c0.36,0,0.65,0.33,0.65,0.69c0,2.9,0.04,5.88,0.04,8.78c0,0.18-0.14,0.47-0.29,0.58c0,0-3.74,2.39-9,2.39
				c-7.22,0-13.06-5.77-13.06-13.02C262.47,732.03,268.31,726.19,275.53,726.19z"/>
			<path class="st1" d="M290.2,727.24c0-0.36,0.33-0.69,0.69-0.69h2.43c0.4,0,0.69,0.33,0.69,0.69v14.98c0,3.63,2.32,6.46,6.02,6.46
				c3.74,0,6.1-2.79,6.1-6.38v-15.06c0-0.36,0.29-0.69,0.69-0.69h2.43c0.36,0,0.69,0.33,0.69,0.69v15.24c0,5.51-4.17,9.83-9.9,9.83
				c-5.69,0-9.83-4.32-9.83-9.83V727.24z"/>
			<path class="st1" d="M316.65,727.24c0-0.36,0.33-0.69,0.69-0.69h2.4c0.36,0,0.69,0.33,0.69,0.69v24.02
				c0,0.36-0.33,0.69-0.69,0.69h-2.4c-0.36,0-0.69-0.33-0.69-0.69V727.24z"/>
			<path class="st1" d="M330.22,726.73c0.07-0.29,0.37-0.54,0.66-0.54h0.58c0.22,0,0.54,0.18,0.62,0.4l7.58,18.54h0.15l7.55-18.54
				c0.07-0.22,0.36-0.4,0.62-0.4h0.58c0.29,0,0.58,0.25,0.65,0.54l4.46,24.37c0.11,0.51-0.14,0.84-0.65,0.84h-2.36
				c-0.33,0-0.62-0.26-0.69-0.51l-2.68-16.21c-0.04,0-0.11,0-0.11,0l-6.53,16.69c-0.07,0.22-0.29,0.4-0.62,0.4h-0.65
				c-0.29,0-0.55-0.18-0.62-0.4l-6.56-16.69c-0.04,0-0.11,0-0.15,0l-2.61,16.21c-0.04,0.26-0.36,0.51-0.65,0.51h-2.36
				c-0.51,0-0.76-0.33-0.69-0.84L330.22,726.73z"/>
			<path class="st1" d="M355.6,751l11.14-24.41c0.11-0.22,0.43-0.4,0.62-0.4h0.36c0.18,0,0.51,0.18,0.62,0.4L379.39,751
				c0.22,0.47-0.07,0.94-0.62,0.94h-2.29c-0.43,0-0.69-0.22-0.83-0.55l-2.25-4.97h-11.86c-0.72,1.67-1.49,3.3-2.21,4.97
				c-0.11,0.26-0.4,0.55-0.84,0.55h-2.28C355.67,751.94,355.38,751.47,355.6,751z M372.03,743.31l-4.46-9.94h-0.18l-4.42,9.94
				H372.03z"/>
			<path class="st1" d="M383.03,727.24c0-0.36,0.29-0.69,0.69-0.69h9.87c4.35,0,7.91,3.44,7.91,7.76c0,3.34-2.22,6.1-5.37,7.36
				l4.97,9.21c0.25,0.47,0,1.05-0.62,1.05h-2.83c-0.29,0-0.5-0.18-0.58-0.33l-4.82-9.61h-5.48v9.25c0,0.36-0.33,0.69-0.69,0.69
				h-2.36c-0.4,0-0.69-0.33-0.69-0.69V727.24z M393.29,738.89c2.36,0,4.43-2,4.43-4.5c0-2.35-2.07-4.32-4.43-4.32h-6.45v8.82H393.29
				z"/>
			<path class="st1" d="M403.76,751l11.14-24.41c0.11-0.22,0.43-0.4,0.62-0.4h0.36c0.18,0,0.51,0.18,0.62,0.4L427.55,751
				c0.22,0.47-0.07,0.94-0.62,0.94h-2.29c-0.43,0-0.69-0.22-0.83-0.55l-2.25-4.97H409.7c-0.72,1.67-1.49,3.3-2.21,4.97
				c-0.11,0.26-0.4,0.55-0.84,0.55h-2.28C403.83,751.94,403.54,751.47,403.76,751z M410.47,722.67c-0.37-0.22-0.33-0.58-0.22-0.83
				c0.33-0.65,1.41-3.05,3.55-3.05c2.11,0,2.79,2.32,3.96,2.32c0.84,0,1.13-0.91,1.49-1.45c0.22-0.37,0.47-0.58,0.91-0.33
				c0.29,0.21,0.72,0.4,0.94,0.69c0.18,0.29,0.07,0.58-0.11,0.98c-0.37,0.8-1.41,2.72-3.41,2.72c-1.85,0-2.83-2.36-3.88-2.36
				c-0.87,0-1.34,1.02-1.56,1.49c-0.18,0.4-0.36,0.62-0.84,0.36L410.47,722.67z M420.19,743.31l-4.46-9.94h-0.18l-4.42,9.94H420.19z
				"/>
			<path class="st1" d="M431.19,727.24c0-0.36,0.29-0.69,0.69-0.69h14.51c0.4,0,0.69,0.33,0.69,0.69v2.03
				c0,0.36-0.29,0.69-0.69,0.69h-11.46v7.4h9.69c0.37,0,0.69,0.33,0.69,0.69v2.03c0,0.4-0.33,0.69-0.69,0.69h-9.69v7.8h11.46
				c0.4,0,0.69,0.33,0.69,0.69v2c0,0.36-0.29,0.69-0.69,0.69h-14.51c-0.4,0-0.69-0.33-0.69-0.69V727.24z"/>
			<path class="st1" d="M450.93,748.28c0.33-0.47,0.62-1.01,0.95-1.49c0.33-0.47,0.83-0.62,1.23-0.29c0.22,0.18,3.01,2.5,5.81,2.5
				c2.5,0,4.1-1.52,4.1-3.37c0-2.18-1.89-3.55-5.47-5.04c-3.7-1.56-6.61-3.48-6.61-7.69c0-2.83,2.18-6.71,7.95-6.71
				c3.63,0,6.35,1.89,6.71,2.14c0.29,0.18,0.58,0.69,0.22,1.23c-0.29,0.43-0.62,0.94-0.91,1.38c-0.29,0.47-0.76,0.69-1.27,0.36
				c-0.25-0.14-2.79-1.81-4.89-1.81c-3.04,0-4.1,1.92-4.1,3.26c0,2.07,1.6,3.34,4.61,4.57c4.21,1.7,7.8,3.7,7.8,8.12
				c0,3.77-3.37,6.85-8.09,6.85c-4.42,0-7.22-2.32-7.8-2.86C450.82,749.15,450.57,748.89,450.93,748.28z"/>
		</g>
	</g>
	<polygon class="st2" points="668.58,530.75 19.13,530.75 19.13,16.7 533.18,16.7 533.18,222.08 668.58,222.08 	"/>
	<polygon class="st3" points="320.97,365.34 171.62,365.34 171.62,403.64 20.04,403.64 20.04,480.31 1.54,547.56 77.14,557.56 
		103.54,529.37 320.97,529.37 	"/>
	<g>
		<defs>
			<rect id="SVGID_1_" x="535.04" y="223.41" width="135.49" height="309.09"/>
		</defs>
		<clipPath id="SVGID_2_">
			<use xlink:href="#SVGID_1_"  style="overflow:visible;"/>
		</clipPath>
		<g class="st4">
			<line class="st5" x1="378.43" y1="303.08" x2="675.95" y2="152.2"/>
			<line class="st5" x1="379.72" y1="305.61" x2="677.23" y2="154.73"/>
			<line class="st5" x1="381" y1="308.14" x2="678.51" y2="157.26"/>
			<line class="st5" x1="382.28" y1="310.66" x2="679.79" y2="159.79"/>
			<line class="st5" x1="383.56" y1="313.19" x2="681.08" y2="162.32"/>
			<line class="st5" x1="384.85" y1="315.72" x2="682.36" y2="164.85"/>
			<line class="st5" x1="386.13" y1="318.25" x2="683.64" y2="167.37"/>
			<line class="st5" x1="387.41" y1="320.78" x2="684.92" y2="169.9"/>
			<line class="st5" x1="388.69" y1="323.31" x2="686.21" y2="172.43"/>
			<line class="st5" x1="389.97" y1="325.84" x2="687.49" y2="174.96"/>
			<line class="st5" x1="391.26" y1="328.37" x2="688.77" y2="177.49"/>
			<line class="st5" x1="392.54" y1="330.89" x2="690.05" y2="180.02"/>
			<line class="st5" x1="393.82" y1="333.42" x2="691.34" y2="182.55"/>
			<line class="st5" x1="395.1" y1="335.95" x2="692.62" y2="185.07"/>
			<line class="st5" x1="396.39" y1="338.48" x2="693.9" y2="187.6"/>
			<line class="st5" x1="397.67" y1="341.01" x2="695.18" y2="190.13"/>
			<line class="st5" x1="398.95" y1="343.54" x2="696.47" y2="192.66"/>
			<line class="st5" x1="400.23" y1="346.07" x2="697.75" y2="195.19"/>
			<line class="st5" x1="401.52" y1="348.6" x2="699.03" y2="197.72"/>
			<line class="st5" x1="402.8" y1="351.12" x2="700.31" y2="200.25"/>
			<line class="st5" x1="404.08" y1="353.65" x2="701.6" y2="202.78"/>
			<line class="st5" x1="405.36" y1="356.18" x2="702.88" y2="205.3"/>
			<line class="st5" x1="406.65" y1="358.71" x2="704.16" y2="207.83"/>
			<line class="st5" x1="407.93" y1="361.24" x2="705.44" y2="210.36"/>
			<line class="st5" x1="409.21" y1="363.77" x2="706.72" y2="212.89"/>
			<line class="st5" x1="410.49" y1="366.3" x2="708.01" y2="215.42"/>
			<line class="st5" x1="411.78" y1="368.83" x2="709.29" y2="217.95"/>
			<line class="st5" x1="413.06" y1="371.35" x2="710.57" y2="220.48"/>
			<line class="st5" x1="414.34" y1="373.88" x2="711.85" y2="223.01"/>
			<line class="st5" x1="415.62" y1="376.41" x2="713.14" y2="225.53"/>
			<line class="st5" x1="416.91" y1="378.94" x2="714.42" y2="228.06"/>
			<line class="st5" x1="418.19" y1="381.47" x2="715.7" y2="230.59"/>
			<line class="st5" x1="419.47" y1="384" x2="716.98" y2="233.12"/>
			<line class="st5" x1="420.75" y1="386.53" x2="718.27" y2="235.65"/>
			<line class="st5" x1="422.04" y1="389.06" x2="719.55" y2="238.18"/>
			<line class="st5" x1="423.32" y1="391.58" x2="720.83" y2="240.71"/>
			<line class="st5" x1="424.6" y1="394.11" x2="722.11" y2="243.24"/>
			<line class="st5" x1="425.88" y1="396.64" x2="723.4" y2="245.76"/>
			<line class="st5" x1="427.17" y1="399.17" x2="724.68" y2="248.29"/>
			<line class="st5" x1="428.45" y1="401.7" x2="725.96" y2="250.82"/>
			<line class="st5" x1="429.73" y1="404.23" x2="727.24" y2="253.35"/>
			<line class="st5" x1="431.01" y1="406.76" x2="728.53" y2="255.88"/>
			<line class="st5" x1="432.3" y1="409.29" x2="729.81" y2="258.41"/>
			<line class="st5" x1="433.58" y1="411.81" x2="731.09" y2="260.94"/>
			<line class="st5" x1="434.86" y1="414.34" x2="732.37" y2="263.47"/>
			<line class="st5" x1="436.14" y1="416.87" x2="733.66" y2="265.99"/>
			<line class="st5" x1="437.42" y1="419.4" x2="734.94" y2="268.52"/>
			<line class="st5" x1="438.71" y1="421.93" x2="736.22" y2="271.05"/>
			<line class="st5" x1="439.99" y1="424.46" x2="737.5" y2="273.58"/>
			<line class="st5" x1="441.27" y1="426.99" x2="738.79" y2="276.11"/>
			<line class="st5" x1="442.55" y1="429.52" x2="740.07" y2="278.64"/>
			<line class="st5" x1="443.84" y1="432.04" x2="741.35" y2="281.17"/>
			<line class="st5" x1="445.12" y1="434.57" x2="742.63" y2="283.7"/>
			<line class="st5" x1="446.4" y1="437.1" x2="743.92" y2="286.22"/>
			<line class="st5" x1="447.68" y1="439.63" x2="745.2" y2="288.75"/>
			<line class="st5" x1="448.97" y1="442.16" x2="746.48" y2="291.28"/>
			<line class="st5" x1="450.25" y1="444.69" x2="747.76" y2="293.81"/>
			<line class="st5" x1="451.53" y1="447.22" x2="749.05" y2="296.34"/>
			<line class="st5" x1="452.81" y1="449.75" x2="750.33" y2="298.87"/>
			<line class="st5" x1="454.1" y1="452.27" x2="751.61" y2="301.4"/>
			<line class="st5" x1="455.38" y1="454.8" x2="752.89" y2="303.92"/>
			<line class="st5" x1="456.66" y1="457.33" x2="754.17" y2="306.45"/>
			<line class="st5" x1="457.94" y1="459.86" x2="755.46" y2="308.98"/>
			<line class="st5" x1="459.23" y1="462.39" x2="756.74" y2="311.51"/>
			<line class="st5" x1="460.51" y1="464.92" x2="758.02" y2="314.04"/>
			<line class="st5" x1="461.79" y1="467.45" x2="759.3" y2="316.57"/>
			<line class="st5" x1="463.07" y1="469.98" x2="760.59" y2="319.1"/>
			<line class="st5" x1="464.36" y1="472.5" x2="761.87" y2="321.63"/>
			<line class="st5" x1="465.64" y1="475.03" x2="763.15" y2="324.15"/>
			<line class="st5" x1="466.92" y1="477.56" x2="764.43" y2="326.68"/>
			<line class="st5" x1="468.2" y1="480.09" x2="765.72" y2="329.21"/>
			<line class="st5" x1="469.49" y1="482.62" x2="767" y2="331.74"/>
			<line class="st5" x1="470.77" y1="485.15" x2="768.28" y2="334.27"/>
			<line class="st5" x1="472.05" y1="487.68" x2="769.56" y2="336.8"/>
			<line class="st5" x1="473.33" y1="490.21" x2="770.85" y2="339.33"/>
			<line class="st5" x1="474.62" y1="492.73" x2="772.13" y2="341.86"/>
			<line class="st5" x1="475.9" y1="495.26" x2="773.41" y2="344.38"/>
			<line class="st5" x1="477.18" y1="497.79" x2="774.69" y2="346.91"/>
			<line class="st5" x1="478.46" y1="500.32" x2="775.98" y2="349.44"/>
			<line class="st5" x1="479.75" y1="502.85" x2="777.26" y2="351.97"/>
			<line class="st5" x1="481.03" y1="505.38" x2="778.54" y2="354.5"/>
			<line class="st5" x1="482.31" y1="507.91" x2="779.82" y2="357.03"/>
			<line class="st5" x1="483.59" y1="510.44" x2="781.11" y2="359.56"/>
			<line class="st5" x1="484.87" y1="512.96" x2="782.39" y2="362.09"/>
			<line class="st5" x1="486.16" y1="515.49" x2="783.67" y2="364.61"/>
			<line class="st5" x1="487.44" y1="518.02" x2="784.95" y2="367.14"/>
			<line class="st5" x1="488.72" y1="520.55" x2="786.24" y2="369.67"/>
			<line class="st5" x1="490" y1="523.08" x2="787.52" y2="372.2"/>
			<line class="st5" x1="491.29" y1="525.61" x2="788.8" y2="374.73"/>
			<line class="st5" x1="492.57" y1="528.14" x2="790.08" y2="377.26"/>
			<line class="st5" x1="493.85" y1="530.67" x2="791.37" y2="379.79"/>
			<line class="st5" x1="495.13" y1="533.19" x2="792.65" y2="382.32"/>
			<line class="st5" x1="496.42" y1="535.72" x2="793.93" y2="384.84"/>
			<line class="st5" x1="497.7" y1="538.25" x2="795.21" y2="387.37"/>
			<line class="st5" x1="498.98" y1="540.78" x2="796.5" y2="389.9"/>
			<line class="st5" x1="500.26" y1="543.31" x2="797.78" y2="392.43"/>
			<line class="st5" x1="501.55" y1="545.84" x2="799.06" y2="394.96"/>
			<line class="st5" x1="502.83" y1="548.37" x2="800.34" y2="397.49"/>
			<line class="st5" x1="504.11" y1="550.9" x2="801.62" y2="400.02"/>
			<line class="st5" x1="505.39" y1="553.42" x2="802.91" y2="402.55"/>
			<line class="st5" x1="506.68" y1="555.95" x2="804.19" y2="405.07"/>
			<line class="st5" x1="507.96" y1="558.48" x2="805.47" y2="407.6"/>
			<line class="st5" x1="509.24" y1="561.01" x2="806.75" y2="410.13"/>
			<line class="st5" x1="510.52" y1="563.54" x2="808.04" y2="412.66"/>
			<line class="st5" x1="511.81" y1="566.07" x2="809.32" y2="415.19"/>
			<line class="st5" x1="513.09" y1="568.6" x2="810.6" y2="417.72"/>
			<line class="st5" x1="514.37" y1="571.13" x2="811.88" y2="420.25"/>
			<line class="st5" x1="515.65" y1="573.65" x2="813.17" y2="422.77"/>
			<line class="st5" x1="516.94" y1="576.18" x2="814.45" y2="425.3"/>
			<line class="st5" x1="518.22" y1="578.71" x2="815.73" y2="427.83"/>
			<line class="st5" x1="519.5" y1="581.24" x2="817.01" y2="430.36"/>
			<line class="st5" x1="520.78" y1="583.77" x2="818.3" y2="432.89"/>
			<line class="st5" x1="522.07" y1="586.3" x2="819.58" y2="435.42"/>
			<line class="st5" x1="523.35" y1="588.83" x2="820.86" y2="437.95"/>
			<line class="st5" x1="524.63" y1="591.36" x2="822.14" y2="440.48"/>
			<line class="st5" x1="525.91" y1="593.88" x2="823.43" y2="443"/>
			<line class="st5" x1="527.2" y1="596.41" x2="824.71" y2="445.53"/>
			<line class="st5" x1="528.48" y1="598.94" x2="825.99" y2="448.06"/>
			<line class="st5" x1="529.76" y1="601.47" x2="827.27" y2="450.59"/>
			<line class="st5" x1="531.04" y1="604" x2="828.56" y2="453.12"/>
			<line class="st5" x1="532.33" y1="606.53" x2="829.84" y2="455.65"/>
		</g>
	</g>
</g>
</svg>
