<?xml version="1.0" encoding="utf-8"?>
<!-- Generator: Adobe Illustrator 24.0.1, SVG Export Plug-In . SVG Version: 6.00 Build 0)  -->
<svg version="1.1" id="Layer_1" xmlns="http://www.w3.org/2000/svg" xmlns:xlink="http://www.w3.org/1999/xlink" x="0px" y="0px"
	 viewBox="0 0 672.07 769" style="enable-background:new 0 0 672.07 769;" xml:space="preserve">
<style type="text/css">
	.st0{fill:#D0D2D3;}
	.st1{fill:#404041;}
	.st2{fill:#231F20;}
	.st3{fill:#DAA77F;}
</style>
<rect x="531.11" y="218.69" class="st0" width="141.17" height="318.7"/>
<polygon class="st1" points="336.58,648.98 365.52,648.98 351.05,623.91 336.58,598.84 322.1,623.91 307.63,648.98 "/>
<g>
	<g>
		<path class="st2" d="M164.68,689.69c0-0.38,0.3-0.72,0.72-0.72h10.32c4.55,0,8.27,3.6,8.27,8.11c0,3.49-2.32,6.37-5.61,7.7
			l5.19,9.63c0.26,0.5,0,1.1-0.64,1.1h-2.96c-0.3,0-0.53-0.19-0.6-0.34l-5.04-10.05h-5.73v9.67c0,0.38-0.34,0.72-0.72,0.72h-2.47
			c-0.42,0-0.72-0.34-0.72-0.72V689.69z M175.41,701.85c2.47,0,4.63-2.08,4.63-4.7c0-2.47-2.16-4.51-4.63-4.51h-6.75v9.21H175.41z"
			/>
		<path class="st2" d="M189.57,689.69c0-0.38,0.34-0.72,0.72-0.72h2.54c0.42,0,0.72,0.34,0.72,0.72v15.66c0,3.79,2.43,6.75,6.3,6.75
			c3.91,0,6.37-2.92,6.37-6.68v-15.73c0-0.38,0.3-0.72,0.72-0.72h2.54c0.38,0,0.72,0.34,0.72,0.72v15.92
			c0,5.77-4.36,10.28-10.35,10.28c-5.95,0-10.27-4.51-10.27-10.28V689.69z"/>
		<path class="st2" d="M213.67,714.52L225.31,689c0.11-0.23,0.46-0.42,0.64-0.42h0.38c0.19,0,0.53,0.19,0.64,0.42l11.57,25.52
			c0.23,0.49-0.07,0.99-0.64,0.99h-2.39c-0.46,0-0.72-0.23-0.87-0.57l-2.35-5.19h-12.4c-0.76,1.74-1.55,3.45-2.31,5.19
			c-0.11,0.26-0.42,0.57-0.87,0.57h-2.39C213.74,715.51,213.44,715.01,213.67,714.52z M230.84,706.48l-4.66-10.39h-0.19l-4.62,10.39
			H230.84z"/>
		<path class="st2" d="M262.45,688.58c3.83,0,6.6,1.29,9.18,3.53c0.34,0.3,0.34,0.76,0.04,1.06l-1.67,1.71
			c-0.26,0.34-0.6,0.34-0.95,0c-1.78-1.56-4.21-2.54-6.56-2.54c-5.42,0-9.51,4.55-9.51,9.86c0,5.31,4.13,9.83,9.56,9.83
			c2.77,0,4.7-1.1,6.52-2.5c0.34-0.27,0.69-0.23,0.91-0.04l1.75,1.7c0.3,0.27,0.23,0.76-0.04,1.02c-2.58,2.5-5.84,3.68-9.22,3.68
			c-7.58,0-13.69-6.03-13.69-13.62C248.76,694.69,254.87,688.58,262.45,688.58z"/>
		<path class="st2" d="M273.53,714.52L285.17,689c0.12-0.23,0.46-0.42,0.64-0.42h0.38c0.19,0,0.53,0.19,0.64,0.42l11.56,25.52
			c0.23,0.49-0.07,0.99-0.64,0.99h-2.39c-0.46,0-0.72-0.23-0.87-0.57l-2.35-5.19h-12.4c-0.76,1.74-1.55,3.45-2.31,5.19
			c-0.11,0.26-0.42,0.57-0.87,0.57h-2.39C273.61,715.51,273.31,715.01,273.53,714.52z M290.71,706.48l-4.66-10.39h-0.19l-4.63,10.39
			H290.71z"/>
		<path class="st2" d="M302.21,689.69c0-0.38,0.3-0.72,0.72-0.72h10.32c4.55,0,8.26,3.6,8.26,8.11c0,3.49-2.31,6.37-5.61,7.7
			l5.19,9.63c0.27,0.5,0,1.1-0.64,1.1h-2.96c-0.3,0-0.53-0.19-0.61-0.34l-5.04-10.05h-5.72v9.67c0,0.38-0.34,0.72-0.72,0.72h-2.46
			c-0.42,0-0.72-0.34-0.72-0.72V689.69z M312.95,701.85c2.46,0,4.62-2.08,4.62-4.7c0-2.47-2.16-4.51-4.62-4.51h-6.75v9.21H312.95z"
			/>
		<path class="st2" d="M327.44,689.69c0-0.38,0.3-0.72,0.72-0.72h2.5c0.38,0,0.72,0.34,0.72,0.72v22.29h10.27
			c0.42,0,0.72,0.34,0.72,0.72v2.08c0,0.38-0.3,0.72-0.72,0.72h-13.5c-0.42,0-0.72-0.34-0.72-0.72V689.69z"/>
		<path class="st2" d="M358.05,688.58c7.59,0,13.65,6.11,13.65,13.69c0,7.58-6.07,13.62-13.65,13.62c-7.58,0-13.61-6.03-13.61-13.62
			C344.44,694.69,350.47,688.58,358.05,688.58z M358.05,712.09c5.42,0,9.86-4.4,9.86-9.82c0-5.38-4.44-9.9-9.86-9.9
			c-5.38,0-9.82,4.51-9.82,9.9C348.23,707.69,352.67,712.09,358.05,712.09z"/>
		<path class="st2" d="M375.44,711.68c0.34-0.5,0.64-1.06,0.99-1.56c0.34-0.5,0.87-0.65,1.29-0.3c0.23,0.19,3.15,2.62,6.07,2.62
			c2.62,0,4.28-1.59,4.28-3.53c0-2.28-1.97-3.71-5.72-5.27c-3.87-1.63-6.9-3.64-6.9-8.04c0-2.96,2.27-7.02,8.31-7.02
			c3.79,0,6.63,1.97,7.01,2.24c0.3,0.19,0.6,0.72,0.23,1.29c-0.3,0.46-0.64,0.99-0.95,1.45c-0.3,0.49-0.79,0.72-1.33,0.38
			c-0.27-0.16-2.92-1.9-5.12-1.9c-3.18,0-4.28,2.01-4.28,3.41c0,2.16,1.67,3.49,4.82,4.78c4.4,1.79,8.15,3.87,8.15,8.5
			c0,3.95-3.53,7.17-8.45,7.17c-4.62,0-7.54-2.43-8.15-3C375.33,712.59,375.06,712.32,375.44,711.68z"/>
		<path class="st2" d="M404.16,711.68c0.34-0.5,0.64-1.06,0.99-1.56c0.34-0.5,0.87-0.65,1.29-0.3c0.22,0.19,3.14,2.62,6.06,2.62
			c2.62,0,4.29-1.59,4.29-3.53c0-2.28-1.97-3.71-5.72-5.27c-3.87-1.63-6.9-3.64-6.9-8.04c0-2.96,2.28-7.02,8.3-7.02
			c3.79,0,6.64,1.97,7.02,2.24c0.3,0.19,0.61,0.72,0.23,1.29c-0.3,0.46-0.64,0.99-0.95,1.45c-0.3,0.49-0.8,0.72-1.33,0.38
			c-0.26-0.16-2.92-1.9-5.12-1.9c-3.19,0-4.29,2.01-4.29,3.41c0,2.16,1.67,3.49,4.82,4.78c4.4,1.79,8.15,3.87,8.15,8.5
			c0,3.95-3.53,7.17-8.46,7.17c-4.63,0-7.55-2.43-8.15-3C404.04,712.59,403.78,712.32,404.16,711.68z"/>
		<path class="st2" d="M426.23,689.69c0-0.38,0.34-0.72,0.72-0.72h2.5c0.38,0,0.72,0.34,0.72,0.72v25.1c0,0.38-0.34,0.72-0.72,0.72
			h-2.5c-0.38,0-0.72-0.34-0.72-0.72V689.69z"/>
		<path class="st2" d="M437.54,689.69c0-0.38,0.3-0.72,0.72-0.72h2.5c0.38,0,0.72,0.34,0.72,0.72v22.29h10.28
			c0.42,0,0.72,0.34,0.72,0.72v2.08c0,0.38-0.3,0.72-0.72,0.72h-13.5c-0.42,0-0.72-0.34-0.72-0.72V689.69z"/>
		<path class="st2" d="M452.95,689.95c-0.23-0.49,0.07-0.99,0.64-0.99h2.69c0.3,0,0.57,0.23,0.64,0.42l8.34,18.77h0.23l8.34-18.77
			c0.08-0.19,0.3-0.42,0.64-0.42h2.69c0.57,0,0.87,0.49,0.64,0.99l-11.64,25.52c-0.11,0.23-0.34,0.42-0.64,0.42h-0.38
			c-0.26,0-0.53-0.19-0.64-0.42L452.95,689.95z"/>
		<path class="st2" d="M478.1,714.52L489.74,689c0.11-0.23,0.46-0.42,0.64-0.42h0.38c0.19,0,0.53,0.19,0.64,0.42l11.57,25.52
			c0.23,0.49-0.07,0.99-0.64,0.99h-2.39c-0.46,0-0.72-0.23-0.87-0.57l-2.35-5.19h-12.4c-0.76,1.74-1.55,3.45-2.31,5.19
			c-0.11,0.26-0.42,0.57-0.87,0.57h-2.39C478.17,715.51,477.87,715.01,478.1,714.52z M495.28,706.48l-4.66-10.39h-0.19l-4.62,10.39
			H495.28z"/>
		<path class="st2" d="M209.2,742.27c0.07-0.3,0.38-0.57,0.68-0.57h0.61c0.23,0,0.57,0.19,0.64,0.42l7.93,19.38h0.15l7.88-19.38
			c0.08-0.23,0.38-0.42,0.64-0.42h0.61c0.3,0,0.61,0.27,0.68,0.57l4.67,25.48c0.11,0.53-0.16,0.87-0.69,0.87h-2.46
			c-0.34,0-0.64-0.26-0.72-0.53l-2.81-16.95c-0.04,0-0.11,0-0.11,0l-6.82,17.44c-0.08,0.23-0.3,0.42-0.64,0.42h-0.69
			c-0.3,0-0.57-0.19-0.64-0.42l-6.87-17.44c-0.04,0-0.11,0-0.15,0l-2.73,16.95c-0.04,0.27-0.38,0.53-0.69,0.53h-2.46
			c-0.53,0-0.8-0.34-0.72-0.87L209.2,742.27z"/>
		<path class="st2" d="M239.93,763.73c1.48,0,2.66,1.17,2.66,2.65c0,1.44-1.17,2.62-2.66,2.62c-1.44,0-2.62-1.18-2.62-2.62
			C237.32,764.91,238.5,763.73,239.93,763.73z"/>
		<path class="st2" d="M268.04,741.7c3.64,0,6.64,1.33,9.22,3.53c0.3,0.3,0.34,0.76,0.04,1.06c-0.57,0.6-1.14,1.17-1.7,1.78
			c-0.3,0.34-0.61,0.3-0.99-0.04c-1.78-1.56-4.13-2.58-6.44-2.58c-5.39,0-9.52,4.55-9.52,9.86c0,5.28,4.14,9.83,9.52,9.83
			c3.15,0,5.31-1.14,5.68-1.29v-4.25h-3.71c-0.42,0-0.72-0.3-0.72-0.68v-2.2c0-0.42,0.3-0.72,0.72-0.72h6.9
			c0.38,0,0.68,0.34,0.68,0.72c0,3.03,0.04,6.14,0.04,9.17c0,0.19-0.15,0.49-0.3,0.61c0,0-3.91,2.5-9.41,2.5
			c-7.54,0-13.65-6.03-13.65-13.62C254.39,747.8,260.5,741.7,268.04,741.7z"/>
		<path class="st2" d="M283.38,742.8c0-0.38,0.34-0.72,0.72-0.72h2.54c0.42,0,0.72,0.34,0.72,0.72v15.66c0,3.79,2.42,6.75,6.29,6.75
			c3.91,0,6.37-2.92,6.37-6.68V742.8c0-0.38,0.3-0.72,0.72-0.72h2.54c0.38,0,0.72,0.34,0.72,0.72v15.92
			c0,5.77-4.36,10.28-10.35,10.28c-5.95,0-10.27-4.51-10.27-10.28V742.8z"/>
		<path class="st2" d="M311.04,742.8c0-0.38,0.34-0.72,0.72-0.72h2.5c0.38,0,0.72,0.34,0.72,0.72v25.1c0,0.38-0.34,0.72-0.72,0.72
			h-2.5c-0.38,0-0.72-0.34-0.72-0.72V742.8z"/>
		<path class="st2" d="M325.22,742.27c0.08-0.3,0.38-0.57,0.69-0.57h0.6c0.23,0,0.57,0.19,0.64,0.42l7.93,19.38h0.15l7.89-19.38
			c0.07-0.23,0.38-0.42,0.64-0.42h0.61c0.3,0,0.6,0.27,0.68,0.57l4.66,25.48c0.11,0.53-0.15,0.87-0.68,0.87h-2.46
			c-0.34,0-0.64-0.26-0.72-0.53l-2.8-16.95c-0.04,0-0.11,0-0.11,0l-6.82,17.44c-0.07,0.23-0.3,0.42-0.64,0.42h-0.68
			c-0.3,0-0.57-0.19-0.64-0.42l-6.86-17.44c-0.04,0-0.11,0-0.15,0l-2.73,16.95c-0.04,0.27-0.38,0.53-0.68,0.53h-2.47
			c-0.53,0-0.79-0.34-0.72-0.87L325.22,742.27z"/>
		<path class="st2" d="M351.75,767.64l11.64-25.52c0.11-0.23,0.45-0.42,0.64-0.42h0.38c0.19,0,0.53,0.19,0.64,0.42l11.57,25.52
			c0.23,0.49-0.08,0.99-0.64,0.99h-2.39c-0.45,0-0.72-0.23-0.87-0.57l-2.35-5.19h-12.4c-0.76,1.74-1.56,3.45-2.31,5.19
			c-0.11,0.26-0.42,0.57-0.87,0.57h-2.39C351.82,768.62,351.52,768.13,351.75,767.64z M368.92,759.6l-4.66-10.39h-0.19l-4.62,10.39
			H368.92z"/>
		<path class="st2" d="M380.42,742.8c0-0.38,0.3-0.72,0.72-0.72h10.32c4.55,0,8.27,3.6,8.27,8.11c0,3.49-2.32,6.37-5.61,7.7
			l5.19,9.63c0.26,0.5,0,1.1-0.64,1.1h-2.96c-0.3,0-0.53-0.19-0.6-0.34l-5.04-10.05h-5.73v9.67c0,0.38-0.34,0.72-0.72,0.72h-2.47
			c-0.42,0-0.72-0.34-0.72-0.72V742.8z M391.15,754.97c2.47,0,4.63-2.08,4.63-4.7c0-2.47-2.16-4.51-4.63-4.51h-6.75v9.21H391.15z"/>
		<path class="st2" d="M402.09,767.64l11.64-25.52c0.11-0.23,0.45-0.42,0.64-0.42h0.38c0.19,0,0.53,0.19,0.64,0.42l11.57,25.52
			c0.23,0.49-0.08,0.99-0.64,0.99h-2.39c-0.45,0-0.72-0.23-0.87-0.57l-2.35-5.19h-12.4c-0.76,1.74-1.56,3.45-2.31,5.19
			c-0.11,0.26-0.42,0.57-0.87,0.57h-2.39C402.17,768.62,401.86,768.13,402.09,767.64z M409.11,738.02
			c-0.38-0.23-0.34-0.61-0.23-0.87c0.34-0.68,1.48-3.18,3.71-3.18c2.2,0,2.92,2.43,4.13,2.43c0.87,0,1.18-0.95,1.56-1.52
			c0.23-0.38,0.49-0.61,0.95-0.34c0.3,0.23,0.76,0.42,0.99,0.72c0.19,0.3,0.07,0.61-0.11,1.03c-0.38,0.83-1.48,2.84-3.56,2.84
			c-1.93,0-2.96-2.46-4.06-2.46c-0.91,0-1.4,1.06-1.63,1.55c-0.19,0.42-0.38,0.64-0.87,0.38L409.11,738.02z M419.27,759.6
			l-4.66-10.39h-0.19l-4.62,10.39H419.27z"/>
		<path class="st2" d="M430.77,742.8c0-0.38,0.3-0.72,0.72-0.72h15.17c0.42,0,0.72,0.34,0.72,0.72v2.12c0,0.38-0.3,0.72-0.72,0.72
			h-11.98v7.74h10.13c0.38,0,0.72,0.34,0.72,0.72v2.12c0,0.42-0.34,0.72-0.72,0.72h-10.13v8.15h11.98c0.42,0,0.72,0.34,0.72,0.72
			v2.08c0,0.38-0.3,0.72-0.72,0.72h-15.17c-0.41,0-0.72-0.34-0.72-0.72V742.8z"/>
		<path class="st2" d="M451.41,764.79c0.34-0.5,0.64-1.06,0.99-1.56c0.34-0.5,0.87-0.65,1.29-0.3c0.23,0.19,3.15,2.62,6.07,2.62
			c2.62,0,4.28-1.59,4.28-3.53c0-2.28-1.97-3.71-5.72-5.27c-3.87-1.63-6.91-3.64-6.91-8.04c0-2.96,2.27-7.02,8.31-7.02
			c3.79,0,6.64,1.97,7.02,2.24c0.3,0.19,0.6,0.72,0.23,1.29c-0.3,0.46-0.64,0.99-0.95,1.45c-0.3,0.49-0.8,0.72-1.33,0.38
			c-0.26-0.16-2.92-1.9-5.12-1.9c-3.18,0-4.29,2.01-4.29,3.41c0,2.16,1.67,3.49,4.82,4.78c4.4,1.79,8.15,3.87,8.15,8.5
			c0,3.95-3.52,7.17-8.45,7.17c-4.62,0-7.54-2.43-8.15-3C451.3,765.7,451.03,765.44,451.41,764.79z"/>
	</g>
</g>
<polygon class="st0" points="538.36,537.31 0,537.39 0,0 537.39,0 537.39,214.71 537.11,222.08 "/>
<g>
	<g>
		<polygon class="st3" points="596.98,218.22 596.98,332.67 356.18,332.67 356.18,366.42 308.22,366.42 308.22,537.42 
			362.74,537.42 432.59,576.12 458.85,537.42 672.07,537.42 672.07,218.22 		"/>
	</g>
</g>
</svg>
