<svg xmlns="http://www.w3.org/2000/svg" width="244.865" height="100.53" viewBox="0 0 244.865 100.53">
  <g id="Group_335" data-name="Group 335" transform="translate(-283.016 -241.011)">
    <path id="Path_6668" data-name="Path 6668" d="M283.016,252.024a1.009,1.009,0,0,1,1.01-1.01h12.107a11.841,11.841,0,1,1,.053,23.683h-7.7v12.479a1.043,1.043,0,0,1-1.009,1.007h-3.45a1.008,1.008,0,0,1-1.01-1.007Zm12.8,17.47a6.765,6.765,0,0,0,6.744-6.8,6.543,6.543,0,0,0-6.744-6.372h-7.328v13.169Z" transform="translate(0 -1.124)" fill="#fff"/>
    <path id="Path_6669" data-name="Path 6669" d="M336.064,250.417A19.115,19.115,0,1,1,317,269.585,19.082,19.082,0,0,1,336.064,250.417Zm0,32.921a13.807,13.807,0,1,0-13.752-13.753A13.8,13.8,0,0,0,336.064,283.338Z" transform="translate(-3.818 -1.057)" fill="#fff"/>
    <path id="Path_6670" data-name="Path 6670" d="M368.426,251.373a1,1,0,0,1,1.009-.956h1.327l23.045,26.654h.053V251.957a1.009,1.009,0,0,1,1.009-1.01h3.4a1.045,1.045,0,0,1,1.009,1.01v35.736a1,1,0,0,1-1.009.953h-1.381l-23.044-27.4h-.054v25.861a1.006,1.006,0,0,1-1.007,1.007h-3.346a1.044,1.044,0,0,1-1.009-1.007Z" transform="translate(-9.596 -1.057)" fill="#fff"/>
    <path id="Path_6671" data-name="Path 6671" d="M420.844,256.007h-9.812A1.009,1.009,0,0,1,410.023,255v-2.972a1.009,1.009,0,0,1,1.009-1.01h25.229a1.009,1.009,0,0,1,1.009,1.01V255a1.009,1.009,0,0,1-1.009,1.011h-9.894v31.169a1.044,1.044,0,0,1-1.009,1.007h-3.5a1.044,1.044,0,0,1-1.009-1.007Z" transform="translate(-14.269 -1.124)" fill="#fff"/>
    <path id="Path_6672" data-name="Path 6672" d="M447.858,241.011v53h53v-53Zm26.475,45.618a19.116,19.116,0,1,1,19.116-19.063A18.947,18.947,0,0,1,474.333,286.629Z" transform="translate(-18.52)" fill="#fff"/>
    <path id="Path_6673" data-name="Path 6673" d="M310.845,312.8a1.045,1.045,0,0,1,1.009-1.009h3.558a1.008,1.008,0,0,1,1.008,1.009v21.93c0,5.309,3.4,9.452,8.815,9.452,5.469,0,8.92-4.089,8.92-9.346V312.8a1.009,1.009,0,0,1,1.009-1.009h3.557a1.045,1.045,0,0,1,1.009,1.009v22.3a14.443,14.443,0,0,1-28.886,0Z" transform="translate(-3.127 -7.952)" fill="#fff"/>
    <path id="Path_6674" data-name="Path 6674" d="M352.938,312.8a1.008,1.008,0,0,1,1.008-1.009h14.443a11.457,11.457,0,0,1,11.576,11.363c0,4.886-3.239,8.921-7.858,10.78l7.274,13.487a1,1,0,0,1-.9,1.54h-4.142a.976.976,0,0,1-.849-.478l-7.062-14.072h-8.017v13.541a1.045,1.045,0,0,1-1.009,1.008h-3.452a1.007,1.007,0,0,1-1.008-1.008Zm15.027,17.045a6.6,6.6,0,0,0,6.478-6.584,6.509,6.509,0,0,0-6.478-6.32h-9.452v12.9Z" transform="translate(-7.856 -7.952)" fill="#fff"/>
    <path id="Path_6675" data-name="Path 6675" d="M392.575,312.8a1.008,1.008,0,0,1,1.008-1.009h11.895c6.425,0,11.044,4.248,11.044,9.824,0,4.089-3.026,7.009-5.521,8.443,2.814,1.168,6.636,3.769,6.636,8.655,0,5.946-4.884,10.248-11.575,10.248H393.583a1.007,1.007,0,0,1-1.008-1.008Zm13.434,31.275a5.657,5.657,0,0,0,5.735-5.787c0-3.239-3.079-5.575-6.532-5.575h-7.273v11.363Zm-.849-16.141c3.4,0,5.47-2.5,5.47-5.682a5.13,5.13,0,0,0-5.47-5.47h-7.168v11.152Z" transform="translate(-12.309 -7.952)" fill="#fff"/>
    <path id="Path_6676" data-name="Path 6676" d="M427.149,347.515l16.3-35.737a1.24,1.24,0,0,1,.9-.584h.532a1.242,1.242,0,0,1,.9.584l16.2,35.737a.937.937,0,0,1-.9,1.379h-3.346a1.238,1.238,0,0,1-1.221-.8l-3.292-7.275H435.857c-1.063,2.442-2.177,4.831-3.239,7.275a1.334,1.334,0,0,1-1.221.8h-3.346A.937.937,0,0,1,427.149,347.515ZM451.2,336.258l-6.532-14.549h-.265l-6.479,14.549Z" transform="translate(-16.181 -7.885)" fill="#fff"/>
    <path id="Path_6677" data-name="Path 6677" d="M472.819,312.15a1,1,0,0,1,1.009-.956h1.327L498.2,337.849h.053V312.734a1.009,1.009,0,0,1,1.009-1.009h3.4a1.045,1.045,0,0,1,1.009,1.009V348.47a1,1,0,0,1-1.009.956H501.28l-23.044-27.4h-.052v25.859a1.008,1.008,0,0,1-1.009,1.008h-3.346a1.045,1.045,0,0,1-1.009-1.008Z" transform="translate(-21.324 -7.885)" fill="#fff"/>
    <path id="Path_6678" data-name="Path 6678" d="M534.925,311.194a19.116,19.116,0,1,1-19.063,19.169A19.082,19.082,0,0,1,534.925,311.194Zm0,32.922a13.806,13.806,0,1,0-13.752-13.753A13.8,13.8,0,0,0,534.925,344.116Z" transform="translate(-26.16 -7.885)" fill="#fff"/>
  </g>
</svg>
