<svg xmlns="http://www.w3.org/2000/svg" width="368.424" height="46" viewBox="0 0 368.424 46">
  <g id="Group_330" data-name="Group 330" transform="translate(-147.233 -146.801)">
    <path id="Path_6642" data-name="Path 6642" d="M258.154,151.911a.906.906,0,0,1,.876-.875h3.086a.875.875,0,0,1,.876.875v19.032c0,4.609,2.949,8.2,7.65,8.2,4.745,0,7.74-3.549,7.74-8.111V151.911a.874.874,0,0,1,.876-.875h3.086a.906.906,0,0,1,.876.875v19.355a12.534,12.534,0,0,1-25.068,0Z" transform="translate(69.076 2.637)" fill="#c1c5c8"/>
    <path id="Path_6643" data-name="Path 6643" d="M277.734,151.911a.875.875,0,0,1,.876-.875h12.534a9.942,9.942,0,0,1,10.046,9.861c0,4.239-2.812,7.74-6.82,9.354l6.313,11.7a.872.872,0,0,1-.784,1.337H296.3a.847.847,0,0,1-.737-.415l-6.129-12.211h-6.958v11.75a.906.906,0,0,1-.875.876h-3a.877.877,0,0,1-.876-.876ZM290.776,166.7a5.724,5.724,0,0,0,5.621-5.714,5.648,5.648,0,0,0-5.621-5.485h-8.2v11.2Z" transform="translate(81.269 2.637)" fill="#c1c5c8"/>
    <path id="Path_6644" data-name="Path 6644" d="M296.244,151.911a.875.875,0,0,1,.876-.875h10.322c5.576,0,9.584,3.687,9.584,8.524,0,3.549-2.626,6.084-4.792,7.328,2.442,1.013,5.761,3.27,5.761,7.51,0,5.16-4.24,8.894-10.046,8.894H297.12a.877.877,0,0,1-.876-.876ZM307.9,179.053a4.909,4.909,0,0,0,4.977-5.022c0-2.812-2.673-4.839-5.668-4.839H300.9v9.861Zm-.738-14.008a4.621,4.621,0,0,0,4.747-4.932,4.451,4.451,0,0,0-4.747-4.747h-6.22v9.678Z" transform="translate(92.796 2.637)" fill="#c1c5c8"/>
    <path id="Path_6645" data-name="Path 6645" d="M311.987,182.272l14.147-31.014a1.076,1.076,0,0,1,.784-.506h.461a1.079,1.079,0,0,1,.782.506l14.055,31.014a.813.813,0,0,1-.784,1.2h-2.9a1.076,1.076,0,0,1-1.06-.691l-2.858-6.312H319.545c-.922,2.119-1.889,4.192-2.811,6.312a1.161,1.161,0,0,1-1.06.691h-2.9A.813.813,0,0,1,311.987,182.272Zm20.875-9.771-5.668-12.627h-.23L321.341,172.5Z" transform="translate(102.543 2.46)" fill="#c1c5c8"/>
    <path id="Path_6646" data-name="Path 6646" d="M333.419,151.581a.867.867,0,0,1,.876-.829h1.152l20,23.132h.047v-21.8a.874.874,0,0,1,.875-.875h2.95a.9.9,0,0,1,.875.875V183.1a.867.867,0,0,1-.875.831h-1.2l-20-23.778h-.045v22.441a.877.877,0,0,1-.876.876h-2.9a.908.908,0,0,1-.876-.876Z" transform="translate(115.947 2.46)" fill="#c1c5c8"/>
    <path id="Path_6647" data-name="Path 6647" d="M370.4,150.752a16.589,16.589,0,1,1-16.544,16.635A16.56,16.56,0,0,1,370.4,150.752Zm0,28.57a11.981,11.981,0,1,0-11.935-11.935A11.977,11.977,0,0,0,370.4,179.322Z" transform="translate(128.672 2.46)" fill="#c1c5c8"/>
    <path id="Path_6648" data-name="Path 6648" d="M147.233,152.426a.876.876,0,0,1,.876-.876h10.506a10.276,10.276,0,1,1,.047,20.552H151.98v10.83a.906.906,0,0,1-.876.875h-2.994a.875.875,0,0,1-.876-.875Zm11.106,15.161a5.87,5.87,0,0,0,5.852-5.9,5.678,5.678,0,0,0-5.852-5.53h-6.36v11.429Z" transform="translate(0 2.957)" fill="#c1c5c8"/>
    <path id="Path_6649" data-name="Path 6649" d="M179.91,151.267A16.588,16.588,0,1,1,163.366,167.9,16.559,16.559,0,0,1,179.91,151.267Zm0,28.57A11.982,11.982,0,1,0,167.975,167.9,11.978,11.978,0,0,0,179.91,179.837Z" transform="translate(10.047 2.781)" fill="#c1c5c8"/>
    <path id="Path_6650" data-name="Path 6650" d="M187.778,152.1a.864.864,0,0,1,.875-.829H189.8l20,23.131h.047V152.6a.875.875,0,0,1,.875-.876h2.95a.906.906,0,0,1,.875.876v31.012a.864.864,0,0,1-.875.828h-1.2l-20-23.776h-.047v22.443a.874.874,0,0,1-.875.875h-2.9a.906.906,0,0,1-.875-.875Z" transform="translate(25.249 2.781)" fill="#c1c5c8"/>
    <path id="Path_6651" data-name="Path 6651" d="M216.558,155.883h-8.515a.876.876,0,0,1-.876-.876v-2.58a.875.875,0,0,1,.876-.876h21.894a.877.877,0,0,1,.876.876v2.58a.877.877,0,0,1-.876.876h-8.586v27.05a.907.907,0,0,1-.876.875h-3.041a.907.907,0,0,1-.876-.875Z" transform="translate(37.324 2.957)" fill="#c1c5c8"/>
    <path id="Path_6652" data-name="Path 6652" d="M225.739,146.8v46h46v-46Zm22.977,39.59A16.589,16.589,0,1,1,265.3,169.847,16.442,16.442,0,0,1,248.715,186.391Z" transform="translate(48.889)" fill="#c1c5c8"/>
  </g>
</svg>
