<?xml version="1.0" encoding="utf-8"?>
<!-- Generator: Adobe Illustrator 24.0.1, SVG Export Plug-In . SVG Version: 6.00 Build 0)  -->
<svg version="1.1" id="Layer_1" xmlns="http://www.w3.org/2000/svg" xmlns:xlink="http://www.w3.org/1999/xlink" x="0px" y="0px"
	 viewBox="0 0 40 40" style="enable-background:new 0 0 40 40;" xml:space="preserve">
<style type="text/css">
	.st0{fill:#FFFFFF;}
	.st1{fill:#000014;}
	.st2{fill:none;stroke:#000014;stroke-width:1.3874;stroke-miterlimit:10;}
	.st3{fill:none;stroke:#000014;stroke-width:1.1249;stroke-miterlimit:10;}
</style>
<circle class="st0" cx="20" cy="20" r="18.6"/>
<path d="M27.8,27.3c0.8-0.8,0.8-1.9,0-2.8l-2.2-2.2c-0.4-0.4-0.9-0.6-1.4-0.6c-0.5,0-1,0.2-1.4,0.6l-1.3,1.3
	c-0.1-0.1-0.2-0.1-0.3-0.2c-0.1-0.1-0.3-0.1-0.4-0.2c-1.2-0.7-2.3-1.8-3.3-3c-0.5-0.6-0.9-1.2-1.1-1.7c0.3-0.3,0.6-0.6,0.9-0.9
	c0.1-0.1,0.2-0.2,0.3-0.3c0.4-0.4,0.6-0.9,0.6-1.4s-0.2-1-0.6-1.4l-1.1-1.1c-0.1-0.1-0.3-0.3-0.4-0.4c-0.2-0.3-0.5-0.5-0.7-0.7
	c-0.4-0.4-0.9-0.6-1.3-0.6c-0.5,0-1,0.2-1.4,0.6l-1.4,1.4c-0.5,0.5-0.8,1.1-0.9,1.9c-0.1,1.2,0.3,2.3,0.5,3c0.6,1.8,1.6,3.4,3.1,5.2
	c1.8,2.1,3.9,3.8,6.3,4.9c0.9,0.4,2.2,1,3.6,1c0.1,0,0.2,0,0.3,0c0.9,0,1.7-0.3,2.3-1l0,0c0.2-0.3,0.4-0.5,0.7-0.7
	C27.4,27.6,27.6,27.5,27.8,27.3z M26.5,27c-0.3,0.3-0.5,0.5-0.8,0.8c-0.4,0.4-0.9,0.6-1.5,0.6c-0.1,0-0.1,0-0.2,0
	c-1.2-0.1-2.3-0.6-3.2-1c-2.3-1.1-4.3-2.7-6-4.7c-1.4-1.6-2.3-3.2-2.9-4.8c-0.4-1-0.5-1.8-0.4-2.5c0-0.5,0.2-0.9,0.6-1.2l1.4-1.4
	c0.2-0.2,0.4-0.3,0.6-0.3c0.3,0,0.5,0.1,0.6,0.3c0.3,0.2,0.5,0.5,0.7,0.7c0.1,0.1,0.3,0.3,0.4,0.4l1.1,1.1c0.2,0.2,0.3,0.4,0.3,0.6
	c0,0.2-0.1,0.4-0.3,0.6c-0.1,0.1-0.2,0.2-0.3,0.3c-0.3,0.3-0.7,0.7-1,1l0,0c-0.3,0.3-0.3,0.7-0.2,0.9c0,0,0,0,0,0
	c0.3,0.7,0.7,1.3,1.3,2.1c1.1,1.4,2.3,2.4,3.6,3.3c0.2,0.1,0.3,0.2,0.5,0.3c0.1,0.1,0.3,0.1,0.4,0.2c0,0,0,0,0,0
	c0.1,0.1,0.3,0.1,0.4,0.1c0.3,0,0.5-0.2,0.6-0.3l1.4-1.4c0.1-0.1,0.4-0.3,0.6-0.3s0.4,0.2,0.6,0.3l2.2,2.2c0.5,0.5,0.3,1,0,1.3
	C26.9,26.7,26.7,26.9,26.5,27z M20.3,14.3c0-0.3,0.3-0.5,0.6-0.4c1.3,0.2,2.4,0.8,3.4,1.8c0.9,0.9,1.5,2.1,1.8,3.4
	c0,0.3-0.1,0.6-0.4,0.6c0,0-0.1,0-0.1,0c-0.3,0-0.5-0.2-0.5-0.4c-0.2-1-0.7-2-1.5-2.8c-0.8-0.8-1.7-1.3-2.8-1.5
	C20.5,14.9,20.3,14.6,20.3,14.3z M28.5,19.1c-0.3-1.9-1.2-3.6-2.6-5c-1.4-1.4-3.1-2.2-5-2.6c-0.3,0-0.5-0.3-0.4-0.6
	c0.1-0.3,0.3-0.5,0.6-0.4c2.1,0.3,4,1.3,5.5,2.8s2.5,3.4,2.9,5.5c0,0.3-0.1,0.6-0.4,0.6c0,0-0.1,0-0.1,0
	C28.8,19.5,28.5,19.3,28.5,19.1z"/>
<circle class="st3" cx="20" cy="20" r="15.2"/>
<circle class="st3" cx="20" cy="20" r="18.7"/>
</svg>
