<?xml version="1.0" encoding="utf-8"?>
<!-- Generator: Adobe Illustrator 24.0.1, SVG Export Plug-In . SVG Version: 6.00 Build 0)  -->
<svg version="1.1" id="Layer_1" xmlns="http://www.w3.org/2000/svg" xmlns:xlink="http://www.w3.org/1999/xlink" x="0px" y="0px"
	 viewBox="0 0 40 40" style="enable-background:new 0 0 40 40;" xml:space="preserve">
<style type="text/css">
	.st0{fill:#FFFFFF;}
	.st1{fill:#000014;}
	.st2{fill:none;stroke:#000014;stroke-width:1.3874;stroke-miterlimit:10;}
	.st3{fill:none;stroke:#000014;stroke-width:1.1249;stroke-miterlimit:10;}
</style>
<circle class="st0" cx="20" cy="20" r="11.3"/>
<g>
	<path d="M25.3,25.1c0.6-0.6,0.6-1.3,0-1.9l-1.5-1.5c-0.3-0.3-0.6-0.4-0.9-0.4c-0.3,0-0.7,0.1-0.9,0.4L21,22.6
		c-0.1,0-0.1-0.1-0.2-0.1c-0.1,0-0.2-0.1-0.3-0.1c-0.8-0.5-1.6-1.2-2.3-2.1c-0.4-0.4-0.6-0.8-0.7-1.2c0.2-0.2,0.4-0.4,0.6-0.6
		c0.1-0.1,0.2-0.2,0.2-0.2c0.3-0.3,0.4-0.6,0.4-0.9s-0.1-0.7-0.4-0.9l-0.7-0.8c-0.1-0.1-0.2-0.2-0.2-0.3c-0.2-0.2-0.3-0.4-0.5-0.5
		c-0.3-0.3-0.6-0.4-0.9-0.4c-0.3,0-0.7,0.1-0.9,0.4l-0.9,0.9c-0.4,0.4-0.6,0.8-0.6,1.3c-0.1,0.8,0.2,1.5,0.4,2
		c0.4,1.2,1.1,2.3,2.1,3.5c1.2,1.4,2.7,2.6,4.3,3.4c0.6,0.3,1.5,0.7,2.4,0.7c0.1,0,0.1,0,0.2,0c0.6,0,1.2-0.2,1.6-0.7l0,0
		c0.1-0.2,0.3-0.3,0.5-0.5C25.1,25.4,25.2,25.3,25.3,25.1z M24.4,25c-0.2,0.2-0.4,0.4-0.5,0.6c-0.3,0.3-0.6,0.4-1,0.4
		c0,0-0.1,0-0.1,0c-0.8-0.1-1.6-0.4-2.2-0.7c-1.6-0.8-2.9-1.8-4.1-3.2c-0.9-1.1-1.6-2.2-2-3.3c-0.3-0.7-0.4-1.2-0.3-1.7
		c0-0.3,0.2-0.6,0.4-0.8l0.9-0.9c0.1-0.1,0.3-0.2,0.4-0.2c0.2,0,0.3,0.1,0.4,0.2c0.2,0.2,0.3,0.3,0.5,0.5c0.1,0.1,0.2,0.2,0.3,0.3
		l0.7,0.7c0.1,0.1,0.2,0.3,0.2,0.4s-0.1,0.3-0.2,0.4c-0.1,0.1-0.2,0.2-0.2,0.2c-0.2,0.2-0.5,0.5-0.7,0.7l0,0
		c-0.2,0.2-0.2,0.5-0.1,0.6c0,0,0,0,0,0c0.2,0.5,0.5,0.9,0.9,1.4c0.8,0.9,1.6,1.7,2.4,2.2c0.1,0.1,0.2,0.1,0.3,0.2
		c0.1,0,0.2,0.1,0.3,0.1c0,0,0,0,0,0c0.1,0,0.2,0.1,0.3,0.1c0.2,0,0.4-0.1,0.4-0.2l0.9-0.9c0.1-0.1,0.2-0.2,0.4-0.2
		c0.2,0,0.3,0.1,0.4,0.2l1.5,1.5c0.4,0.4,0.2,0.7,0,0.9C24.7,24.8,24.6,24.9,24.4,25z M20.2,16.3c0-0.2,0.2-0.3,0.4-0.3
		c0.9,0.1,1.7,0.6,2.3,1.2s1,1.4,1.2,2.3c0,0.2-0.1,0.4-0.3,0.4c0,0,0,0-0.1,0c-0.2,0-0.3-0.1-0.4-0.3c-0.1-0.7-0.5-1.4-1-1.9
		c-0.5-0.5-1.2-0.9-1.9-1C20.3,16.7,20.2,16.5,20.2,16.3z M25.8,19.5c-0.2-1.3-0.8-2.5-1.8-3.4c-0.9-0.9-2.1-1.5-3.4-1.8
		c-0.2,0-0.3-0.2-0.3-0.4c0-0.2,0.2-0.3,0.4-0.3c1.4,0.2,2.7,0.9,3.8,1.9s1.7,2.3,2,3.8c0,0.2-0.1,0.4-0.3,0.4c0,0,0,0-0.1,0
		C26,19.8,25.8,19.7,25.8,19.5z"/>
	<path class="st1" d="M20,0L0,20l20,20l20-20L20,0z M12.8,27.2c-4-4-4-10.4,0-14.4c4-4,10.4-4,14.4,0s4,10.4,0,14.4
		C23.2,31.2,16.8,31.2,12.8,27.2z"/>
</g>
</svg>
