<?xml version="1.0" encoding="utf-8"?>
<!-- Generator: Adobe Illustrator 24.0.1, SVG Export Plug-In . SVG Version: 6.00 Build 0)  -->
<svg version="1.1" id="Layer_1" xmlns="http://www.w3.org/2000/svg" xmlns:xlink="http://www.w3.org/1999/xlink" x="0px" y="0px"
	 viewBox="0 0 40 40" style="enable-background:new 0 0 40 40;" xml:space="preserve">
<style type="text/css">
	.st0{fill:#FFFFFF;}
	.st1{fill:#000014;}
	.st2{fill:none;stroke:#000014;stroke-width:1.3874;stroke-miterlimit:10;}
	.st3{fill:none;stroke:#000014;stroke-width:1.1249;stroke-miterlimit:10;}
</style>
<circle class="st0" cx="20" cy="20" r="18.6"/>
<g>
	<path d="M27.5,27.3c0.8-0.8,0.8-1.9,0-2.7l-2.1-2.1c-0.4-0.4-0.8-0.6-1.3-0.6c-0.5,0-0.9,0.2-1.3,0.6l-1.2,1.2
		c-0.1-0.1-0.2-0.1-0.3-0.2c-0.1-0.1-0.3-0.1-0.4-0.2c-1.2-0.7-2.2-1.7-3.2-2.9c-0.5-0.6-0.8-1.1-1.1-1.7c0.3-0.3,0.6-0.6,0.9-0.9
		c0.1-0.1,0.2-0.2,0.3-0.3c0.4-0.4,0.6-0.9,0.6-1.3s-0.2-0.9-0.6-1.3l-1.1-1.1c-0.1-0.1-0.2-0.2-0.4-0.4c-0.2-0.2-0.5-0.5-0.7-0.7
		c-0.4-0.4-0.8-0.6-1.3-0.6c-0.5,0-0.9,0.2-1.3,0.6L11.7,14c-0.5,0.5-0.8,1.1-0.8,1.8c-0.1,1.1,0.2,2.2,0.5,2.9c0.6,1.7,1.6,3.3,3,5
		c1.7,2,3.8,3.6,6.1,4.8c0.9,0.4,2.1,0.9,3.4,1c0.1,0,0.2,0,0.2,0c0.9,0,1.7-0.3,2.2-1l0,0c0.2-0.2,0.4-0.5,0.7-0.7
		C27.2,27.6,27.3,27.5,27.5,27.3z M26.3,27c-0.2,0.2-0.5,0.5-0.7,0.8c-0.4,0.4-0.9,0.6-1.5,0.6c-0.1,0-0.1,0-0.2,0
		c-1.2-0.1-2.2-0.5-3.1-0.9c-2.2-1.1-4.1-2.6-5.7-4.5c-1.3-1.6-2.2-3.1-2.8-4.7c-0.4-1-0.5-1.7-0.4-2.4c0-0.5,0.2-0.8,0.5-1.2
		l1.3-1.3c0.2-0.2,0.4-0.3,0.6-0.3c0.2,0,0.5,0.1,0.6,0.3c0.2,0.2,0.5,0.5,0.7,0.7c0.1,0.1,0.2,0.2,0.4,0.4l1.1,1.1
		c0.2,0.2,0.3,0.4,0.3,0.6c0,0.2-0.1,0.4-0.3,0.6c-0.1,0.1-0.2,0.2-0.3,0.3c-0.3,0.3-0.6,0.6-1,0.9l0,0c-0.3,0.3-0.3,0.7-0.2,0.9
		c0,0,0,0,0,0c0.3,0.7,0.7,1.3,1.3,2c1.1,1.3,2.2,2.4,3.4,3.1c0.2,0.1,0.3,0.2,0.5,0.3c0.1,0.1,0.3,0.1,0.4,0.2c0,0,0,0,0,0
		c0.1,0.1,0.2,0.1,0.4,0.1c0.3,0,0.5-0.2,0.6-0.3l1.3-1.3c0.1-0.1,0.4-0.3,0.6-0.3c0.2,0,0.4,0.2,0.6,0.3l2.1,2.1
		c0.5,0.5,0.3,0.9,0,1.2C26.6,26.7,26.4,26.9,26.3,27z M20.3,14.8c0-0.3,0.3-0.5,0.6-0.4c1.2,0.2,2.4,0.8,3.2,1.7
		c0.9,0.9,1.5,2,1.7,3.2c0,0.3-0.1,0.6-0.4,0.6c0,0-0.1,0-0.1,0c-0.2,0-0.5-0.2-0.5-0.4c-0.2-1-0.7-2-1.4-2.7
		c-0.7-0.7-1.7-1.2-2.7-1.4C20.5,15.4,20.3,15.1,20.3,14.8z M28.2,19.3c-0.3-1.8-1.2-3.5-2.5-4.8c-1.3-1.3-3-2.2-4.8-2.5
		c-0.3,0-0.5-0.3-0.4-0.6s0.3-0.5,0.6-0.4c2,0.3,3.9,1.3,5.3,2.7s2.4,3.3,2.8,5.3c0,0.3-0.1,0.6-0.4,0.6c0,0-0.1,0-0.1,0
		C28.4,19.8,28.2,19.6,28.2,19.3z"/>
	<path class="st1" d="M0,0l0,40h40V0L0,0z M20,34.4c-8,0-14.4-6.4-14.4-14.4C5.6,12,12,5.6,20,5.6S34.4,12,34.4,20
		C34.4,28.1,28,34.4,20,34.4z"/>
</g>
</svg>
