<svg xmlns="http://www.w3.org/2000/svg" width="40.383" height="28.442" viewBox="0 0 40.383 28.442">
    <defs>
        <style>
            .cls-1{fill:#333d45}
        </style>
    </defs>
    <g id="Grupo_526" data-name="Grupo 526" transform="translate(-488 -4264)">
        <g id="icon_email" data-name="icon email" transform="translate(488 4264)">
            <path id="Caminho_6728" data-name="Caminho 6728" class="cls-1" d="M2967.977-141.6a13.617 13.617 0 0 1 1.789-.248q16.15-.021 32.3-.012a4.564 4.564 0 0 1 2.374.418c-.321.294-.61.54-.879.807q-7.266 7.222-14.527 14.449a3.643 3.643 0 0 1-5.663-.014l-13.939-13.9c-.449-.439-.883-.9-1.455-1.5z" transform="translate(-2966.018 141.856)"/>
            <path id="Caminho_6729" data-name="Caminho 6729" class="cls-1" d="M3005.23 26.509a9.671 9.671 0 0 1-1.533.241q-13.317.024-26.633.013c-2.135 0-4.271.018-6.406-.011a11.725 11.725 0 0 1-1.649-.25l12.207-12.369c.634.649 1.21 1.252 1.8 1.841a5.865 5.865 0 0 0 8.041.189c.546-.5 1.058-1.034 1.573-1.565a3.532 3.532 0 0 0 .345-.532z" transform="translate(-2966.946 1.673)"/>
            <path id="Caminho_6730" data-name="Caminho 6730" class="cls-1" d="m3226.778-109.463 11.856-12.118.176.036a7.077 7.077 0 0 1 .258 1.335q.023 10.8 0 21.6a8.723 8.723 0 0 1-.263 1.444z" transform="translate(-3198.695 123.628)"/>
            <path id="Caminho_6731" data-name="Caminho 6731" class="cls-1" d="M2948.815-98.216a8.119 8.119 0 0 1-.235-1.37q-.022-10.725 0-21.449a10.394 10.394 0 0 1 .26-1.567l12.041 12.323L2949-98.164z" transform="translate(-2948.57 124.546)"/>
        </g>
    </g>
</svg>
