<svg xmlns="http://www.w3.org/2000/svg" width="27.902" height="38.797" viewBox="0 0 27.902 38.797">
    <g data-name="Grupo 563">
        <path data-name="Caminho 6680" d="M27.899 13.943a13.768 13.768 0 0 1-3.166 8.864 89.435 89.435 0 0 0-9.984 15.2c-.075.144-.155.285-.23.428a.61.61 0 0 1-.57.363.62.62 0 0 1-.569-.366c-.564-1.038-1.12-2.081-1.7-3.112a88.842 88.842 0 0 0-8.676-12.717 13.181 13.181 0 0 1-2.913-7.035A13.624 13.624 0 0 1 3.42 4.8 13.327 13.327 0 0 1 11.834.171a13.586 13.586 0 0 1 11.965 3.9 13.442 13.442 0 0 1 4.013 8.274c.042.36.065.722.088 1.083.008.171-.001.343-.001.515zM13.953 37.066c.1-.174.166-.3.232-.424a94.2 94.2 0 0 1 9.709-14.635 12.3 12.3 0 0 0 2.17-12.2 12.809 12.809 0 1 0-22 12.289 88.249 88.249 0 0 1 8.618 12.656c.419.752.83 1.513 1.27 2.314z"/>
        <path data-name="Caminho 6681" d="M13.962 5.589a8.364 8.364 0 1 1-8.376 8.329 8.342 8.342 0 0 1 8.376-8.329zm-.018 1.139a7.225 7.225 0 1 0 7.231 7.182 7.214 7.214 0 0 0-7.231-7.182z"/>
    </g>
</svg>
