<svg xmlns="http://www.w3.org/2000/svg" width="248.716" height="148.645" viewBox="0 0 248.716 148.645">
    <defs>
        <style>
            .cls-1{fill:#fff}
        </style>
    </defs>
    <g id="Group_122" data-name="Group 122" transform="translate(-390.402 -446.347)">
        <path id="Path_6202" d="M513.28 483.3c4.41-4.308 6.947-10.435 12.244-13.882l.914.686a9.15 9.15 0 0 1-.924 2.253c-4.485 5.811-9.028 11.578-13.544 17.365a3.743 3.743 0 0 0-.823 1.328c-1.661 7.407-3.279 14.825-5.048 22.885 2.155-.827 3.791-1.36 5.347-2.067q30.8-14 61.578-28.058c14.366-6.569 27.337-15.294 39.663-25.134 4.7-3.754 10.321-6.343 15.36-9.7a13.652 13.652 0 0 1 8.786-2.6c2.384.159 2.98.938 1.421 2.656a28.6 28.6 0 0 1-6.45 5.477c-9.574 5.629-19.136 11.312-29 16.406-7.814 4.039-14.518 9.536-21.522 14.661-7.95 5.819-15.905 11.639-23.716 17.641-9.306 7.151-18.646 14.277-27.635 21.816-9.785 8.208-19.186 16.871-28.747 25.347-1.538 1.363-3.028 2.779-4.54 4.169l.471.956a42.651 42.651 0 0 1 5.639-.571c9.81.271 19.621 1.028 29.419.873 6.1-.1 12.183-1.521 18.277-2.321 1.348-.178 2.9-1.493 4.055.854a12.621 12.621 0 0 1-1.987 1.046c-9.844 3.17-19.929 3.079-30.1 2.336-4.317-.314-8.672-.136-13.01-.155-4.159-.019-8.324.1-12.479-.048-1.884-.068-2.653.618-3.228 2.345-1.877 5.639-3.531 11.409-6.053 16.758a86.293 86.293 0 0 1-8.457 13.546c-2.374 3.276-4.844 2.733-7.41-1.015a13.774 13.774 0 0 1-.973-2c-2.811.424-2.56 5.878-7.1 4.114 1.519-2.534 3-4.649 4.084-6.948a6.045 6.045 0 0 0 .6-4.126c-2.792-7.517-5.767-14.982-10.89-21.314a10.691 10.691 0 0 0-2.931-2.633c-.465-.264-1.722.219-2.2.743-4.2 4.591-8.084 9.479-12.482 13.86-4.9 4.877-10.227 9.319-15.375 13.943-3.613 3.244-7.2 6.52-10.9 9.668-.572.488-1.664.366-2.515.526.19-.934.052-2.21.618-2.75 8.055-7.707 16.241-15.276 24.32-22.96 4.311-4.1 8.486-8.349 12.69-12.561a4.964 4.964 0 0 0 .662-1.467 6.47 6.47 0 0 1-1.809-.753 25.175 25.175 0 0 1-2.077-2.3c.975-.484 1.948-1.358 2.924-1.361a22.435 22.435 0 0 1 4.753 1.057l14.673-19.35-.4-.568c-25.37 8.321-50.579 17.187-76.432 23.887l-.615-1.287a9.828 9.828 0 0 1 2.373-1.6c9.354-2.848 18.791-5.429 28.09-8.444 16.141-5.235 32.214-10.679 48.264-16.187a8.661 8.661 0 0 0 3.926-3.254c8.96-13.126 17.688-26.411 26.73-39.479a160.124 160.124 0 0 1 10.973-13.509c.769-.886 2.388-1.034 3.616-1.522.184 1.48.755 3.038.471 4.423a83.06 83.06 0 0 1-2.424 8.029zm-16.426 66.665c24.9-23.335 52.258-43.262 78.986-64.091a9.5 9.5 0 0 0-2.831.841c-6.134 2.943-12.179 6.078-18.39 8.845-9.194 4.1-18.417 8.132-27.924 12.3a4038.47 4038.47 0 0 0-19.314 8.516 4.571 4.571 0 0 0-2.192 2.624c-2.093 7.245-4.027 14.538-5.985 21.822-.817 3.037-1.568 6.094-2.35 9.143zm-40.389 3.1l.4.689c6.372.2 12.748.322 19.117.621 4.748.224 9.49.646 14.228 1.044 1.558.13 2.185-.474 2.592-1.981 2.427-9 4.987-17.957 7.464-26.941.7-2.536 1.268-5.106 2.019-8.156-6.143 2.473-11.663 4.72-17.2 6.916-2.654 1.053-5.163 2.13-7.186 4.4-5.4 6.05-11.055 11.876-16.574 17.824-1.677 1.809-3.242 3.719-4.86 5.588zm3.525 3.226c3.961 7.8 7.737 15.227 11.445 22.522l17.682-20.667-.536-.7zm51.37-80.862c-12.9 15.708-23.3 33.2-34.842 50a3.723 3.723 0 0 0 2.376-.992c1.492-1.548 2.888-3.19 4.3-4.818 6.926-8.008 13.878-16 20.745-24.058 1.784-2.1 3.978-4.208 4.775-6.7 1.376-4.315 1.813-8.935 2.646-13.427zm-4.488 20.949l-21.9 25.484.443.556C491 520.2 496.6 518 502.16 515.7a2.54 2.54 0 0 0 1.295-1.6c1.145-5.641 2.196-11.3 3.417-17.717zm-17.349 65.585c-1.9 2.114-3.868 4.177-5.693 6.354-3.271 3.906-6.63 7.756-9.626 11.868a6.342 6.342 0 0 0 1.778 9.262c5.19-4.216 11.835-17.175 13.541-27.479zM612.4 461.774l.514.726c5.171-1.806 19.611-10.983 20.445-13.611z" data-name="Path 6202"/>
        <path id="Path_6203" d="M540.066 474.483a9.5 9.5 0 0 1 2.831-.841c-26.728 20.829-8.965 3.784-2.831.841z" class="cls-1" data-name="Path 6203" transform="translate(32.943 12.232)"/>
    </g>
</svg>
