<svg xmlns="http://www.w3.org/2000/svg" xmlns:xlink="http://www.w3.org/1999/xlink" width="999" height="463" viewBox="0 0 999 463">
  <defs>
    <clipPath id="clip-iPad_1">
      <rect width="999" height="463"/>
    </clipPath>
  </defs>
  <g id="iPad_1" data-name="iPad – 1" clip-path="url(#clip-iPad_1)">
    <g id="Group_215" data-name="Group 215" transform="translate(-227.098 -4057.346)">
      <rect id="Rectangle_89" data-name="Rectangle 89" width="43.67" height="43.67" transform="translate(384.097 4224.346)" fill="#fff"/>
      <path id="Path_6259" data-name="Path 6259" d="M263.857,268.031v45h45v-45Zm22.478,38.729a16.229,16.229,0,1,1,16.229-16.184A16.085,16.085,0,0,1,286.335,306.76Z" transform="translate(119.7 3955.517)" fill="#000410"/>
    </g>
    <g id="Group_212" data-name="Group 212" transform="translate(215.902 -3944.346)">
      <rect id="Rectangle_89-2" data-name="Rectangle 89" width="43.67" height="43.67" transform="translate(384.097 4224.346)" fill="#fff"/>
      <path id="Path_6259-2" data-name="Path 6259" d="M263.857,268.031v45h45v-45Zm22.478,38.729a16.229,16.229,0,1,1,16.229-16.184A16.085,16.085,0,0,1,286.335,306.76Z" transform="translate(119.7 3955.517)" fill="#000410"/>
    </g>
    <g id="Group_213" data-name="Group 213" transform="translate(115.902 -3896.346)">
      <rect id="Rectangle_89-3" data-name="Rectangle 89" width="43.67" height="43.67" transform="translate(384.097 4224.346)" fill="#fff"/>
      <path id="Path_6259-3" data-name="Path 6259" d="M263.857,268.031v45h45v-45Zm22.478,38.729a16.229,16.229,0,1,1,16.229-16.184A16.085,16.085,0,0,1,286.335,306.76Z" transform="translate(119.7 3955.517)" fill="#000410"/>
    </g>
    <g id="Group_214" data-name="Group 214" transform="translate(400.902 -4118.346)">
      <rect id="Rectangle_89-4" data-name="Rectangle 89" width="43.67" height="43.67" transform="translate(384.097 4224.346)" fill="#fff"/>
      <path id="Path_6259-4" data-name="Path 6259" d="M263.857,268.031v45h45v-45Zm22.478,38.729a16.229,16.229,0,1,1,16.229-16.184A16.085,16.085,0,0,1,286.335,306.76Z" transform="translate(119.7 3955.517)" fill="#000410"/>
    </g>
    <g id="Group_216" data-name="Group 216" transform="translate(-58.098 -4102.346)">
      <rect id="Rectangle_89-5" data-name="Rectangle 89" width="43.67" height="43.67" transform="translate(384.097 4224.346)" fill="#fff"/>
      <path id="Path_6259-5" data-name="Path 6259" d="M263.857,268.031v45h45v-45Zm22.478,38.729a16.229,16.229,0,1,1,16.229-16.184A16.085,16.085,0,0,1,286.335,306.76Z" transform="translate(119.7 3955.517)" fill="#000410"/>
    </g>
  </g>
</svg>
