<svg xmlns="http://www.w3.org/2000/svg" width="124" height="124" viewBox="0 0 124 124">
  <g id="Group_466" data-name="Group 466" transform="translate(-17099 6693)">
    <circle id="Ellipse_38" data-name="Ellipse 38" cx="62" cy="62" r="62" transform="translate(17099 -6693)" fill="#fff" opacity="0.48"/>
    <circle id="Ellipse_39" data-name="Ellipse 39" cx="53" cy="53" r="53" transform="translate(17108 -6684)" fill="#fff" opacity="0.952"/>
    <g id="noun_call_870946" transform="translate(17002.734 -6656.6)">
      <path id="Path_6711" data-name="Path 6711" d="M63.851,23.4a28.693,28.693,0,1,0-43.2,31.451L13.109,66.4l30.3-7.948A28.722,28.722,0,0,0,63.851,23.4ZM39.4,43.711c-11.887-5.842-14.944-16.3-15.42-20.175-.475-3.8,6.181-7.2,6.181-7.2L34.37,23.4s-4.483,2.377-3.872,3.736c3.261,7,7.608,9.51,7.608,9.51,1.359.543,4.483-2.921,4.483-2.921l5.978,5.638S43.608,45.749,39.4,43.711Z" transform="translate(124.166 -8.604)"/>
    </g>
  </g>
</svg>
