<svg xmlns="http://www.w3.org/2000/svg" version="1.0" preserveAspectRatio="xMidYMid meet" viewBox="232 198 585 554.1">

<g transform="translate(0.000000,1024.000000) scale(0.100000,-0.100000)" fill="#000000" stroke="none">
<path d="M5127 8113 c-83 -81 -260 -254 -392 -383 -415 -408 -658 -644 -675 -660 -63 -58 -870 -854 -870 -859 0 -3 180 -5 400 -3 l400 3 2 -808 3 -808 1280 -3 c704 -1 1290 0 1302 3 l22 5 3 794 c2 437 6 797 10 801 4 4 185 8 402 9 218 0 396 2 396 3 0 2 -181 182 -402 402 l-403 399 -3 586 -3 586 -245 0 -244 0 0 -350 c0 -300 -2 -350 -14 -343 -8 4 -191 180 -406 391 -215 210 -396 382 -401 382 -5 0 -78 -66 -162 -147z m510 -858 c180 -176 358 -349 395 -385 l68 -65 0 -57 0 -58 -805 0 -806 0 3 59 3 58 395 387 c217 212 400 385 407 383 6 -1 159 -146 340 -322z m471 -1617 l2 -568 -810 0 -810 0 0 570 0 570 808 -2 807 -3 3 -567z"/>
<path d="M3295 4040 c-89 -21 -172 -80 -219 -153 -46 -73 -58 -115 -57 -209 0 -68 5 -91 29 -143 34 -71 91 -130 165 -171 49 -27 59 -29 167 -29 105 0 120 3 165 27 59 30 134 107 166 169 18 34 24 65 27 140 4 89 2 102 -23 158 -33 72 -116 155 -191 191 -52 24 -170 35 -229 20z m163 -179 c45 -23 87 -66 101 -104 27 -72 2 -171 -55 -216 -35 -28 -120 -52 -153 -44 -83 20 -141 75 -162 155 -17 61 0 117 49 170 62 66 141 80 220 39z"/>
<path d="M4829 4029 c-132 -46 -193 -172 -138 -286 29 -61 69 -87 191 -127 129 -42 148 -51 148 -76 0 -31 -39 -50 -103 -50 -60 0 -97 13 -156 58 l-34 26 -43 -50 c-24 -27 -44 -54 -44 -60 0 -19 70 -75 130 -103 46 -22 68 -25 140 -25 93 2 153 19 207 60 100 76 96 235 -8 308 -22 15 -90 45 -151 65 -65 21 -116 43 -122 54 -16 25 3 49 49 65 45 15 95 4 148 -32 l36 -25 51 55 c27 31 50 60 50 65 0 15 -72 58 -133 79 -70 25 -145 24 -218 -1z"/>
<path d="M7682 4038 c-9 -9 -12 -100 -12 -348 0 -248 3 -339 12 -348 17 -17 459 -17 476 0 7 7 12 39 12 75 0 51 -3 64 -19 73 -11 5 -86 10 -170 10 l-151 0 0 50 0 50 144 0 c173 0 178 3 174 88 -4 76 -16 82 -185 82 l-133 0 0 55 0 55 159 0 c111 0 162 4 167 12 14 23 4 132 -13 146 -23 17 -444 17 -461 0z"/>
<path d="M2322 3688 l3 -353 72 -3 c71 -3 73 -2 79 23 4 15 3 78 0 141 l-7 114 140 0 140 0 3 -137 3 -138 75 0 75 0 0 350 0 350 -75 0 -75 0 -3 -127 -3 -128 -133 0 -133 0 -7 77 c-3 42 -6 100 -6 130 l0 53 -75 0 -75 0 2 -352z"/>
<path d="M3825 4027 c-3 -6 -4 -165 -3 -352 l3 -340 80 0 80 0 5 180 5 180 70 -89 c90 -115 122 -152 127 -146 2 3 44 56 94 119 l89 113 5 -178 5 -179 80 0 80 0 7 40 c8 49 10 627 2 649 -5 12 -21 16 -69 16 l-63 0 -89 -112 c-49 -62 -102 -130 -118 -151 -27 -36 -30 -38 -42 -20 -7 10 -59 77 -115 150 l-103 132 -63 1 c-41 0 -64 -4 -67 -13z"/>
<path d="M5535 4027 c-3 -6 -4 -165 -3 -352 l3 -340 70 0 c65 0 69 1 76 25 9 31 11 626 3 658 -6 20 -12 22 -75 22 -47 0 -71 -4 -74 -13z"/>
<path d="M5817 4033 c-3 -5 -8 -159 -12 -343 -6 -293 -5 -337 8 -348 10 -9 40 -12 89 -10 l73 3 5 180 5 179 40 -51 c22 -28 63 -81 90 -117 28 -36 55 -65 60 -66 6 0 51 52 100 115 l90 115 3 -167 c1 -102 7 -172 13 -180 15 -17 140 -18 157 -1 16 16 17 650 2 679 -9 15 -22 19 -63 19 -49 0 -56 -3 -93 -42 -50 -53 -118 -137 -168 -206 l-38 -52 -36 47 c-20 27 -74 94 -120 151 l-84 102 -58 0 c-32 0 -61 -3 -63 -7z"/>
<path d="M6666 4032 c-8 -13 -10 -678 -2 -691 4 -6 33 -11 67 -11 l59 0 0 94 0 93 54 6 c174 18 281 149 248 306 -23 110 -102 181 -222 201 -77 12 -197 13 -204 2z m208 -172 c39 -15 59 -54 53 -102 -7 -53 -27 -68 -89 -68 l-48 0 0 88 c0 49 3 92 7 96 8 7 34 3 77 -14z"/>
<path d="M7137 4034 c-4 -4 -7 -159 -7 -344 0 -248 3 -339 12 -348 17 -17 419 -17 436 0 7 7 12 39 12 73 0 34 -5 66 -12 73 -7 7 -40 12 -78 12 -37 0 -101 3 -143 6 l-77 7 -2 261 -3 261 -65 3 c-36 2 -69 0 -73 -4z"/>
<path d="M3993 2989 c-55 -16 -79 -73 -49 -114 8 -11 36 -27 62 -35 36 -12 49 -22 49 -36 0 -25 -37 -30 -69 -9 -32 22 -56 13 -56 -20 0 -19 8 -28 38 -41 49 -20 101 -12 130 21 43 50 19 105 -59 134 -25 9 -44 23 -44 31 0 19 47 25 76 9 19 -10 25 -9 36 7 21 28 15 42 -19 49 -18 4 -40 8 -48 10 -8 2 -29 -1 -47 -6z"/>
<path d="M4515 2981 c-82 -37 -109 -109 -71 -183 62 -122 249 -91 263 44 11 105 -97 183 -192 139z m113 -64 c34 -32 30 -88 -9 -121 -35 -30 -35 -30 -79 -15 -66 24 -74 116 -12 150 37 19 67 15 100 -14z"/>
<path d="M4180 2981 c0 -5 -3 -16 -6 -25 -5 -13 1 -16 30 -16 l36 0 0 -105 0 -105 30 0 30 0 0 105 0 105 35 0 c31 0 35 3 35 25 0 25 0 25 -95 25 -52 0 -95 -4 -95 -9z"/>
<path d="M4782 2858 l3 -133 38 -3 37 -3 0 62 0 62 24 -22 24 -23 18 26 c20 32 28 27 30 -22 1 -20 3 -45 3 -54 1 -13 9 -18 31 -18 l30 0 0 130 c0 128 0 130 -22 130 -17 0 -32 -15 -58 -60 -34 -58 -50 -73 -50 -47 -1 24 -70 107 -90 107 -20 0 -20 -5 -18 -132z"/>
<path d="M5070 2860 l0 -130 25 0 c23 0 25 3 25 50 0 28 3 50 8 50 4 0 17 -16 30 -35 12 -19 26 -35 30 -35 5 0 24 19 43 43 l34 42 5 -60 c5 -56 7 -60 30 -60 l25 1 3 132 c2 126 2 132 -17 132 -12 0 -27 -10 -34 -22 -8 -13 -29 -47 -47 -76 l-33 -53 -44 75 c-31 54 -49 76 -63 76 -19 0 -20 -7 -20 -130z"/>
<path d="M5420 2862 c0 -106 3 -131 15 -136 29 -11 45 5 45 45 l0 39 51 0 c43 0 55 5 80 29 36 37 38 79 5 118 -23 26 -31 28 -110 32 l-86 3 0 -130z m144 62 c33 -33 11 -64 -46 -64 -38 0 -38 0 -38 40 0 39 1 40 34 40 19 0 42 -7 50 -16z"/>
<path d="M5720 2888 c-62 -150 -63 -155 -33 -161 19 -3 27 1 35 19 10 21 18 24 61 24 40 0 50 -3 54 -20 4 -15 14 -20 38 -20 l33 0 -51 130 c-44 111 -55 130 -73 130 -18 0 -29 -17 -64 -102z m86 -65 c-2 -3 -15 -3 -29 -1 -25 3 -25 3 -9 42 l16 39 13 -38 c7 -21 11 -40 9 -42z"/>
<path d="M5970 2860 l0 -130 30 0 c29 0 29 0 32 67 l3 66 55 -66 c38 -46 62 -67 78 -67 22 0 22 2 22 130 l0 130 -30 0 -30 0 0 -76 0 -77 -55 69 c-30 38 -55 72 -55 77 0 4 -11 7 -25 7 l-25 0 0 -130z"/>
<path d="M6280 2860 l0 -130 78 0 c76 0 77 0 77 25 0 23 -3 25 -52 25 l-53 0 0 105 0 105 -25 0 -25 0 0 -130z"/>
<path d="M6450 2986 c0 -2 20 -39 45 -80 37 -63 45 -85 45 -126 0 -49 1 -50 30 -50 30 0 30 0 30 56 0 47 6 66 40 124 22 38 40 71 40 74 0 3 -13 6 -29 6 -24 0 -34 -8 -55 -45 -15 -25 -28 -45 -30 -45 -2 0 -16 20 -30 45 -22 37 -32 45 -56 45 -17 0 -30 -2 -30 -4z"/>
<path d="M3268 2919 c-21 -12 -24 -49 -6 -67 8 -8 50 -12 123 -12 117 0 135 6 135 45 0 12 -5 26 -12 33 -15 15 -215 16 -240 1z"/>
<path d="M7078 2919 c-21 -12 -24 -49 -6 -67 8 -8 52 -12 133 -12 124 0 145 6 145 41 0 40 -26 49 -143 49 -62 0 -120 -5 -129 -11z"/>
</g>
</svg>