<svg xmlns="http://www.w3.org/2000/svg" width="10.667" height="20" viewBox="0 0 10.667 20">
  <g id="facebook-logo" transform="translate(-22.077)">
    <path id="Path_6653" data-name="Path 6653" d="M32.342,0,29.784,0c-2.874,0-4.732,1.932-4.732,4.922V7.191H22.479a.405.405,0,0,0-.4.408v3.288a.405.405,0,0,0,.4.408h2.572v8.3a.4.4,0,0,0,.4.408H28.81a.405.405,0,0,0,.4-.408V11.3H32.22a.4.4,0,0,0,.4-.408V7.6a.411.411,0,0,0-.118-.288.4.4,0,0,0-.285-.12H29.213V5.268c0-.925.217-1.394,1.406-1.394h1.723a.405.405,0,0,0,.4-.408V.412A.405.405,0,0,0,32.342,0Z" fill="#fff"/>
  </g>
</svg>
