<?xml version="1.0" encoding="utf-8"?>
<!-- Generator: Adobe Illustrator 25.2.1, SVG Export Plug-In . SVG Version: 6.00 Build 0)  -->
<svg version="1.1" id="Layer_1" xmlns="http://www.w3.org/2000/svg" xmlns:xlink="http://www.w3.org/1999/xlink" x="0px"
	y="0px" viewBox="0 0 24 24" xml:space="preserve">
	<path id="surface1" d="M6.9,0.6c-3.5,0-6.3,2.8-6.3,6.3v10.1c0,3.5,2.8,6.3,6.3,6.3h10.1c3.5,0,6.3-2.8,6.3-6.3V6.9
	c0-3.5-2.8-6.3-6.3-6.3H6.9z M19.6,3.2c0.7,0,1.3,0.6,1.3,1.3s-0.6,1.3-1.3,1.3c-0.7,0-1.3-0.6-1.3-1.3S18.9,3.2,19.6,3.2z M12,5.7
	c3.5,0,6.3,2.8,6.3,6.3s-2.8,6.3-6.3,6.3S5.7,15.5,5.7,12S8.5,5.7,12,5.7z M12,8.2c-2.1,0-3.8,1.7-3.8,3.8c0,2.1,1.7,3.8,3.8,3.8
	l0,0c2.1,0,3.8-1.7,3.8-3.8C15.8,9.9,14.1,8.2,12,8.2z" fill="#1D252C" />
</svg>