<?xml version="1.0" encoding="utf-8"?>
<!-- Generator: Adobe Illustrator 24.0.1, SVG Export Plug-In . SVG Version: 6.00 Build 0)  -->
<svg version="1.1" id="Layer_1" xmlns="http://www.w3.org/2000/svg" xmlns:xlink="http://www.w3.org/1999/xlink" x="0px"
	y="0px" viewBox="0 0 30 30" style="enable-background:new 0 0 30 30;" xml:space="preserve" class="svg">
	<g id="BACKGROUND">
	</g>
	<g id="OBJECTS">
		<g>
			<g>
				<g>
					<path d="M27.7,17.4v9.3h-5.5V18c0-2.2-0.8-3.6-2.6-3.6c-1.4,0-2.4,1-2.8,2c-0.2,0.4-0.2,0.8-0.2,1.2v9.1h-5.5c0,0,0-14.6,0-16.2
					h5.5v2.2l0,0l0,0l0,0c0.8-1,2-2.6,4.9-2.6C25.1,10.1,27.7,12.3,27.7,17.4L27.7,17.4z M3,26.7h5.5V10.5H3V26.7z M8.5,5
					c0,1.6-1.2,2.8-2.8,2.8S2.8,6.7,2.8,5c0-1.6,1.2-2.8,2.8-2.8C7.3,2.2,8.5,3.4,8.5,5z" fill="#1D252C" />
				</g>
			</g>
		</g>
	</g>
	<g id="DESIGNED_BY_FREEPIK">
	</g>
</svg>