<svg xmlns="http://www.w3.org/2000/svg" width="50" height="144.636" viewBox="0 0 50 144.636">
  <g id="Group_455" data-name="Group 455" transform="translate(-45 -55)">
    <path id="Path_6641" data-name="Path 6641" d="M54.46,59.344v50h50v-50Zm24.977,43.032A18.032,18.032,0,1,1,97.468,84.395,17.872,17.872,0,0,1,79.437,102.376Z" transform="translate(-14.344 159.46) rotate(-90)" fill="#1d252c"/>
    <path id="Path_6707" data-name="Path 6707" d="M-31.63-.46a.366.366,0,0,0,.38.46h1.8a.387.387,0,0,0,.36-.3l1.16-7.58h.06l3.54,7.86a.359.359,0,0,0,.34.22h.36a.34.34,0,0,0,.34-.22l3.5-7.86h.06L-18.55-.3a.434.434,0,0,0,.38.3h1.82a.347.347,0,0,0,.36-.46L-18.35-13.9a.337.337,0,0,0-.36-.3h-.32a.345.345,0,0,0-.34.2l-4.4,9.44h-.06L-28.23-14a.365.365,0,0,0-.34-.2h-.32a.337.337,0,0,0-.36.3Zm20.38.08a.38.38,0,0,0,.38.38h8.14a.38.38,0,0,0,.38-.38V-2.02a.38.38,0,0,0-.38-.38H-8.65V-5.9h4.94a.38.38,0,0,0,.38-.38V-7.94a.393.393,0,0,0-.38-.38H-8.65V-11.6h5.92a.38.38,0,0,0,.38-.38v-1.64A.38.38,0,0,0-2.73-14h-8.14a.38.38,0,0,0-.38.38Zm13.76,0A.393.393,0,0,0,2.89,0H4.71a.38.38,0,0,0,.38-.38v-8.6h.02L13.47.2h.48a.376.376,0,0,0,.38-.36V-13.62a.393.393,0,0,0-.38-.38H12.11a.38.38,0,0,0-.38.38v8.26h-.02L3.39-14.2h-.5a.376.376,0,0,0-.38.36ZM19.77-5.3A5.485,5.485,0,0,0,25.33.2a5.49,5.49,0,0,0,5.58-5.5v-8.32a.393.393,0,0,0-.38-.38h-1.9a.38.38,0,0,0-.38.38v8.2A2.886,2.886,0,0,1,25.33-2.4a2.875,2.875,0,0,1-2.9-3.04v-8.18a.38.38,0,0,0-.38-.38h-1.9a.393.393,0,0,0-.38.38Z" transform="translate(77 168) rotate(-90)" fill="#1d252c"/>
  </g>
</svg>
