<svg xmlns="http://www.w3.org/2000/svg" width="20" height="13.94" viewBox="0 0 20 13.94">
  <g id="youtube-symbol-b" transform="translate(0 -14.676)">
    <path id="Path_6657b" data-name="Path 6657" d="M19.654,16.919a2.527,2.527,0,0,0-2.162-1.965A67.2,67.2,0,0,0,10,14.676a67.213,67.213,0,0,0-7.49.277A2.526,2.526,0,0,0,.352,16.919,21.419,21.419,0,0,0,0,21.646a21.412,21.412,0,0,0,.348,4.727A2.526,2.526,0,0,0,2.51,28.339,67.154,67.154,0,0,0,10,28.616a67.141,67.141,0,0,0,7.489-.277,2.527,2.527,0,0,0,2.162-1.965A21.4,21.4,0,0,0,20,21.646,21.416,21.416,0,0,0,19.654,16.919ZM7.419,24.751V18.136l6.358,3.317Z" fill="#1D252C"/>
  </g>
</svg>
