<?xml version="1.0" encoding="utf-8"?>
<!-- Generator: Adobe Illustrator 24.0.1, SVG Export Plug-In . SVG Version: 6.00 Build 0)  -->
<svg version="1.1" id="Layer_1" xmlns="http://www.w3.org/2000/svg" xmlns:xlink="http://www.w3.org/1999/xlink" x="0px" y="0px"
	 viewBox="0 0 1179 524.3" style="enable-background:new 0 0 1179 524.3;" xml:space="preserve">
<style type="text/css">
	.st0{fill:#05304C;}
	.st1{fill:#231F20;}
	.st2{font-family:'BrandonGrotesque-Medium';}
	.st3{font-size:36.1715px;}
	.st4{fill:#D1D3D4;}
	.st5{fill:#004071;}
</style>
<g>
	<polygon class="st0" points="50.7,436.2 24.1,436.2 37.4,413.3 50.7,390.3 64,413.3 77.2,436.2 	"/>
	<g>
		<text transform="matrix(1 0 0 1 19.9973 497.783)" class="st1 st2 st3">AV. 25 DE ABRIL</text>
	</g>
	<g>
		<text transform="matrix(1 0 0 1 639.9183 49.0057)" class="st1 st2 st3">RUA DR. FREDERICO OLIVEIRA </text>
	</g>
	<polygon class="st0" points="1113.9,76.5 1087.3,76.5 1100.6,99.4 1113.9,122.4 1127.1,99.4 1140.4,76.5 	"/>
	<polyline class="st4" points="170.2,60.4 1015.6,198.6 971.2,491.6 682,459.1 685.8,275.5 528.4,275.6 481.7,273.2 199.8,274.4 
		170.2,60.4 	"/>
	<polygon class="st5" points="530.7,147.5 531.1,116.7 471.4,115.5 471.4,93.9 395.4,94.3 379.2,94.2 335.5,94.1 335.3,117 
		273.1,117.8 295.5,272.3 371.4,272.5 371.7,229.5 390.9,229.5 390.9,200.2 443.6,200.2 443.1,272.7 530.7,272.3 531.1,239.8 
		553.5,239.9 553.5,147.3 	"/>
</g>
</svg>
