<?xml version="1.0" encoding="utf-8"?>
<!-- Generator: Adobe Illustrator 24.0.1, SVG Export Plug-In . SVG Version: 6.00 Build 0)  -->
<svg version="1.1" id="Layer_1" xmlns="http://www.w3.org/2000/svg" xmlns:xlink="http://www.w3.org/1999/xlink" x="0px" y="0px"
	 viewBox="0 0 1200 533" style="enable-background:new 0 0 1200 533;" xml:space="preserve">
<style type="text/css">
	.st0{fill:#D1D3D4;}
	.st1{fill:#004071;}
	.st2{enable-background:new    ;}
	.st3{fill:#231F20;}
	.st4{fill:#05304C;}
</style>
<polyline class="st0" points="179.2,79.4 1044.9,220.9 999.4,521 703.3,487.7 707.2,299.7 546,299.8 498.1,297.3 209.5,298.6 
	179.2,79.4 "/>
<polygon class="st1" points="521.5,115.1 390.8,114.9 205.4,114.1 216.3,188.8 239.7,185.4 255.9,297.3 334.7,297.5 335,253.4 
	354.7,253.4 354.7,223.4 408.8,223.4 408.3,297.7 498.1,297.3 497.7,201.7 520.7,201.8 "/>
<g>
	<g class="st2">
		<path class="st3" d="M648.5,24.6c0-0.4,0.3-0.7,0.7-0.7h10c4.4,0,8,3.5,8,7.9c0,3.4-2.2,6.2-5.4,7.5l5,9.3c0.3,0.5,0,1.1-0.6,1.1
			h-2.9c-0.3,0-0.5-0.2-0.6-0.3l-4.9-9.7h-5.6V49c0,0.4-0.3,0.7-0.7,0.7h-2.4c-0.4,0-0.7-0.3-0.7-0.7V24.6z M658.9,36.4
			c2.4,0,4.5-2,4.5-4.6c0-2.4-2.1-4.4-4.5-4.4h-6.5v8.9H658.9z"/>
		<path class="st3" d="M672.6,24.6c0-0.4,0.3-0.7,0.7-0.7h2.5c0.4,0,0.7,0.3,0.7,0.7v15.2c0,3.7,2.4,6.5,6.1,6.5
			c3.8,0,6.2-2.8,6.2-6.5V24.6c0-0.4,0.3-0.7,0.7-0.7h2.5c0.4,0,0.7,0.3,0.7,0.7v15.4c0,5.6-4.2,10-10,10c-5.8,0-10-4.4-10-10V24.6z
			"/>
		<path class="st3" d="M695.7,48.7L706.9,24c0.1-0.2,0.4-0.4,0.6-0.4h0.4c0.2,0,0.5,0.2,0.6,0.4l11.2,24.7c0.2,0.5-0.1,1-0.6,1h-2.3
			c-0.4,0-0.7-0.2-0.8-0.6l-2.3-5h-12c-0.7,1.7-1.5,3.3-2.2,5c-0.1,0.3-0.4,0.6-0.8,0.6h-2.3C695.7,49.7,695.4,49.2,695.7,48.7z
			 M712.3,40.9l-4.5-10.1h-0.2l-4.5,10.1H712.3z"/>
		<path class="st3" d="M731.5,24.6c0-0.4,0.3-0.7,0.7-0.7h8.5c7.1,0,12.9,5.8,12.9,12.8c0,7.1-5.8,12.9-12.9,12.9h-8.5
			c-0.4,0-0.7-0.3-0.7-0.7V24.6z M740.1,46.2c5.4,0,9.3-4,9.3-9.4c0-5.4-3.9-9.3-9.3-9.3h-4.9v18.8H740.1z"/>
		<path class="st3" d="M758.9,24.6c0-0.4,0.3-0.7,0.7-0.7h10c4.4,0,8,3.5,8,7.9c0,3.4-2.2,6.2-5.4,7.5l5,9.3c0.3,0.5,0,1.1-0.6,1.1
			h-2.9c-0.3,0-0.5-0.2-0.6-0.3l-4.9-9.7h-5.6V49c0,0.4-0.3,0.7-0.7,0.7h-2.4c-0.4,0-0.7-0.3-0.7-0.7V24.6z M769.3,36.4
			c2.4,0,4.5-2,4.5-4.6c0-2.4-2.1-4.4-4.5-4.4h-6.5v8.9H769.3z"/>
		<path class="st3" d="M783.7,44.9c1.4,0,2.6,1.1,2.6,2.6c0,1.4-1.1,2.5-2.6,2.5c-1.4,0-2.5-1.1-2.5-2.5
			C781.2,46.1,782.3,44.9,783.7,44.9z"/>
		<path class="st3" d="M799.6,24.6c0-0.4,0.3-0.7,0.7-0.7H815c0.4,0,0.7,0.3,0.7,0.7v2.1c0,0.4-0.3,0.7-0.7,0.7h-11.6v8.5h9.8
			c0.4,0,0.7,0.3,0.7,0.7v2c0,0.4-0.3,0.7-0.7,0.7h-9.8V49c0,0.4-0.3,0.7-0.7,0.7h-2.4c-0.4,0-0.7-0.3-0.7-0.7V24.6z"/>
		<path class="st3" d="M820.4,24.6c0-0.4,0.3-0.7,0.7-0.7h10c4.4,0,8,3.5,8,7.9c0,3.4-2.2,6.2-5.4,7.5l5,9.3c0.3,0.5,0,1.1-0.6,1.1
			h-2.9c-0.3,0-0.5-0.2-0.6-0.3l-4.9-9.7h-5.6V49c0,0.4-0.3,0.7-0.7,0.7h-2.4c-0.4,0-0.7-0.3-0.7-0.7V24.6z M830.8,36.4
			c2.4,0,4.5-2,4.5-4.6c0-2.4-2.1-4.4-4.5-4.4h-6.5v8.9H830.8z"/>
		<path class="st3" d="M844.9,24.6c0-0.4,0.3-0.7,0.7-0.7h14.7c0.4,0,0.7,0.3,0.7,0.7v2.1c0,0.4-0.3,0.7-0.7,0.7h-11.6v7.5h9.8
			c0.4,0,0.7,0.3,0.7,0.7v2.1c0,0.4-0.3,0.7-0.7,0.7h-9.8v7.9h11.6c0.4,0,0.7,0.3,0.7,0.7v2c0,0.4-0.3,0.7-0.7,0.7h-14.7
			c-0.4,0-0.7-0.3-0.7-0.7V24.6z"/>
		<path class="st3" d="M866.5,24.6c0-0.4,0.3-0.7,0.7-0.7h8.5c7.1,0,12.9,5.8,12.9,12.8c0,7.1-5.8,12.9-12.9,12.9h-8.5
			c-0.4,0-0.7-0.3-0.7-0.7V24.6z M875.1,46.2c5.4,0,9.3-4,9.3-9.4c0-5.4-3.9-9.3-9.3-9.3h-4.9v18.8H875.1z"/>
		<path class="st3" d="M893.9,24.6c0-0.4,0.3-0.7,0.7-0.7h14.7c0.4,0,0.7,0.3,0.7,0.7v2.1c0,0.4-0.3,0.7-0.7,0.7h-11.6v7.5h9.8
			c0.4,0,0.7,0.3,0.7,0.7v2.1c0,0.4-0.3,0.7-0.7,0.7h-9.8v7.9h11.6c0.4,0,0.7,0.3,0.7,0.7v2c0,0.4-0.3,0.7-0.7,0.7h-14.7
			c-0.4,0-0.7-0.3-0.7-0.7V24.6z"/>
		<path class="st3" d="M915.5,24.6c0-0.4,0.3-0.7,0.7-0.7h10c4.4,0,8,3.5,8,7.9c0,3.4-2.2,6.2-5.4,7.5l5,9.3c0.3,0.5,0,1.1-0.6,1.1
			h-2.9c-0.3,0-0.5-0.2-0.6-0.3l-4.9-9.7h-5.6V49c0,0.4-0.3,0.7-0.7,0.7h-2.4c-0.4,0-0.7-0.3-0.7-0.7V24.6z M925.9,36.4
			c2.4,0,4.5-2,4.5-4.6c0-2.4-2.1-4.4-4.5-4.4h-6.5v8.9H925.9z"/>
		<path class="st3" d="M940,24.6c0-0.4,0.3-0.7,0.7-0.7h2.4c0.4,0,0.7,0.3,0.7,0.7V49c0,0.4-0.3,0.7-0.7,0.7h-2.4
			c-0.4,0-0.7-0.3-0.7-0.7V24.6z"/>
		<path class="st3" d="M962.3,23.5c3.7,0,6.4,1.2,8.9,3.4c0.3,0.3,0.3,0.7,0,1l-1.6,1.7c-0.3,0.3-0.6,0.3-0.9,0
			c-1.7-1.5-4.1-2.5-6.4-2.5c-5.3,0-9.2,4.4-9.2,9.6s4,9.5,9.3,9.5c2.7,0,4.6-1.1,6.3-2.4c0.3-0.3,0.7-0.2,0.9,0l1.7,1.7
			c0.3,0.3,0.2,0.7,0,1c-2.5,2.4-5.7,3.6-8.9,3.6c-7.4,0-13.3-5.8-13.3-13.2S955,23.5,962.3,23.5z"/>
		<path class="st3" d="M987.8,23.5c7.4,0,13.2,5.9,13.2,13.3S995.1,50,987.8,50c-7.4,0-13.2-5.8-13.2-13.2S980.4,23.5,987.8,23.5z
			 M987.8,46.3c5.3,0,9.6-4.3,9.6-9.5c0-5.2-4.3-9.6-9.6-9.6c-5.2,0-9.5,4.4-9.5,9.6C978.2,42.1,982.5,46.3,987.8,46.3z"/>
		<path class="st3" d="M1025.7,23.5c7.4,0,13.2,5.9,13.2,13.3S1033,50,1025.7,50c-7.4,0-13.2-5.8-13.2-13.2S1018.3,23.5,1025.7,23.5
			z M1025.7,46.3c5.3,0,9.6-4.3,9.6-9.5c0-5.2-4.3-9.6-9.6-9.6c-5.2,0-9.5,4.4-9.5,9.6C1016.1,42.1,1020.4,46.3,1025.7,46.3z"/>
		<path class="st3" d="M1044.2,24.6c0-0.4,0.3-0.7,0.7-0.7h2.4c0.4,0,0.7,0.3,0.7,0.7v21.6h10c0.4,0,0.7,0.3,0.7,0.7v2
			c0,0.4-0.3,0.7-0.7,0.7h-13.1c-0.4,0-0.7-0.3-0.7-0.7V24.6z"/>
		<path class="st3" d="M1062.5,24.6c0-0.4,0.3-0.7,0.7-0.7h2.4c0.4,0,0.7,0.3,0.7,0.7V49c0,0.4-0.3,0.7-0.7,0.7h-2.4
			c-0.4,0-0.7-0.3-0.7-0.7V24.6z"/>
		<path class="st3" d="M1070.1,24.9c-0.2-0.5,0.1-1,0.6-1h2.6c0.3,0,0.6,0.2,0.6,0.4l8.1,18.2h0.2l8.1-18.2c0.1-0.2,0.3-0.4,0.6-0.4
			h2.6c0.6,0,0.8,0.5,0.6,1l-11.3,24.7c-0.1,0.2-0.3,0.4-0.6,0.4h-0.4c-0.3,0-0.5-0.2-0.6-0.4L1070.1,24.9z"/>
		<path class="st3" d="M1097.9,24.6c0-0.4,0.3-0.7,0.7-0.7h14.7c0.4,0,0.7,0.3,0.7,0.7v2.1c0,0.4-0.3,0.7-0.7,0.7h-11.6v7.5h9.8
			c0.4,0,0.7,0.3,0.7,0.7v2.1c0,0.4-0.3,0.7-0.7,0.7h-9.8v7.9h11.6c0.4,0,0.7,0.3,0.7,0.7v2c0,0.4-0.3,0.7-0.7,0.7h-14.7
			c-0.4,0-0.7-0.3-0.7-0.7V24.6z"/>
		<path class="st3" d="M1119.6,24.6c0-0.4,0.3-0.7,0.7-0.7h2.4c0.4,0,0.7,0.3,0.7,0.7V49c0,0.4-0.3,0.7-0.7,0.7h-2.4
			c-0.4,0-0.7-0.3-0.7-0.7V24.6z"/>
		<path class="st3" d="M1130.5,24.6c0-0.4,0.3-0.7,0.7-0.7h10c4.4,0,8,3.5,8,7.9c0,3.4-2.2,6.2-5.4,7.5l5,9.3c0.3,0.5,0,1.1-0.6,1.1
			h-2.9c-0.3,0-0.5-0.2-0.6-0.3l-4.9-9.7h-5.6V49c0,0.4-0.3,0.7-0.7,0.7h-2.4c-0.4,0-0.7-0.3-0.7-0.7V24.6z M1140.9,36.4
			c2.4,0,4.5-2,4.5-4.6c0-2.4-2.1-4.4-4.5-4.4h-6.5v8.9H1140.9z"/>
		<path class="st3" d="M1151.5,48.7l11.3-24.7c0.1-0.2,0.4-0.4,0.6-0.4h0.4c0.2,0,0.5,0.2,0.6,0.4l11.2,24.7c0.2,0.5-0.1,1-0.6,1
			h-2.3c-0.4,0-0.7-0.2-0.8-0.6l-2.3-5h-12c-0.7,1.7-1.5,3.3-2.2,5c-0.1,0.3-0.4,0.6-0.8,0.6h-2.3
			C1151.6,49.7,1151.3,49.2,1151.5,48.7z M1168.2,40.9l-4.5-10.1h-0.2l-4.5,10.1H1168.2z"/>
	</g>
</g>
<polygon class="st4" points="49.7,451.8 22.7,451.8 36.2,428.4 49.7,405 63.1,428.4 76.6,451.8 "/>
<g>
	<g class="st2">
		<path class="st3" d="M16,513.4l11.3-24.7c0.1-0.2,0.4-0.4,0.6-0.4h0.4c0.2,0,0.5,0.2,0.6,0.4l11.2,24.7c0.2,0.5-0.1,1-0.6,1h-2.3
			c-0.4,0-0.7-0.2-0.8-0.6l-2.3-5H22c-0.7,1.7-1.5,3.3-2.2,5c-0.1,0.3-0.4,0.6-0.8,0.6h-2.3C16.1,514.4,15.8,513.9,16,513.4z
			 M32.6,505.6l-4.5-10.1h-0.2l-4.5,10.1H32.6z"/>
		<path class="st3" d="M38.8,489.6c-0.2-0.5,0.1-1,0.6-1H42c0.3,0,0.6,0.2,0.6,0.4l8.1,18.2H51L59,489c0.1-0.2,0.3-0.4,0.6-0.4h2.6
			c0.6,0,0.8,0.5,0.6,1l-11.3,24.7c-0.1,0.2-0.3,0.4-0.6,0.4h-0.4c-0.3,0-0.5-0.2-0.6-0.4L38.8,489.6z"/>
		<path class="st3" d="M65.8,509.6c1.4,0,2.6,1.1,2.6,2.6c0,1.4-1.1,2.5-2.6,2.5c-1.4,0-2.5-1.1-2.5-2.5
			C63.2,510.8,64.4,509.6,65.8,509.6z"/>
		<path class="st3" d="M79.4,512.7c2.7-3.1,6.5-7.8,9.3-11c1.8-2.1,2.8-3.9,2.8-5.4c0-1.9-1.3-4-4.5-4c-2,0-3.7,1.4-4.7,2.5
			c-0.3,0.3-0.7,0.3-1,0l-1.2-1.2c-0.2-0.2-0.3-0.7,0-1c0,0,2.8-3.6,7.1-3.6c5.3,0,8.1,3.3,8.1,7.2c0,2.8-1.5,4.8-3.5,7.2
			c-1.9,2.4-4.5,5.4-6.7,7.8h9.4c0.4,0,0.7,0.3,0.7,0.7v1.8c0,0.4-0.3,0.7-0.7,0.7H80.1c-0.4,0-0.7-0.3-0.7-0.7V512.7z"/>
		<path class="st3" d="M99.3,510.4c0.5-0.4,0.9-0.9,1.4-1.3c0.3-0.3,0.6-0.3,0.9,0c0.3,0.3,2.3,2.4,5.1,2.4c3,0,5-2.6,5-5.2
			c0-2.6-1.7-4.7-5.1-4.7H101c-0.7,0-1.1-0.7-1.1-1.3v-10.3c0-0.4,0.3-0.7,0.7-0.7h11.4c0.4,0,0.7,0.3,0.7,0.7v1.8
			c0,0.4-0.3,0.7-0.7,0.7h-8.8v5.8h3.7c5.4,0,8.5,3.1,8.5,7.9c0,4.6-3.7,8.4-8.7,8.4c-4,0-6.3-1.9-7.2-3.1
			C98.9,511.1,98.9,510.9,99.3,510.4z"/>
		<path class="st3" d="M128.3,489.3c0-0.4,0.3-0.7,0.7-0.7h8.5c7.1,0,12.9,5.8,12.9,12.8c0,7.1-5.8,12.9-12.9,12.9H129
			c-0.4,0-0.7-0.3-0.7-0.7V489.3z M136.9,510.9c5.4,0,9.3-4,9.3-9.4c0-5.4-3.9-9.3-9.3-9.3H132v18.8H136.9z"/>
		<path class="st3" d="M155.6,489.3c0-0.4,0.3-0.7,0.7-0.7H171c0.4,0,0.7,0.3,0.7,0.7v2.1c0,0.4-0.3,0.7-0.7,0.7h-11.6v7.5h9.8
			c0.4,0,0.7,0.3,0.7,0.7v2.1c0,0.4-0.3,0.7-0.7,0.7h-9.8v7.9H171c0.4,0,0.7,0.3,0.7,0.7v2c0,0.4-0.3,0.7-0.7,0.7h-14.7
			c-0.4,0-0.7-0.3-0.7-0.7V489.3z"/>
		<path class="st3" d="M181.9,513.4l11.3-24.7c0.1-0.2,0.4-0.4,0.6-0.4h0.4c0.2,0,0.5,0.2,0.6,0.4l11.2,24.7c0.2,0.5-0.1,1-0.6,1
			h-2.3c-0.4,0-0.7-0.2-0.8-0.6l-2.3-5h-12c-0.7,1.7-1.5,3.3-2.2,5c-0.1,0.3-0.4,0.6-0.8,0.6h-2.3
			C182,514.4,181.7,513.9,181.9,513.4z M198.6,505.6l-4.5-10.1h-0.2l-4.5,10.1H198.6z"/>
		<path class="st3" d="M209.7,489.3c0-0.4,0.3-0.7,0.7-0.7h8.2c4.4,0,7.6,2.9,7.6,6.8c0,2.8-2.1,4.9-3.8,5.8c1.9,0.8,4.6,2.6,4.6,6
			c0,4.1-3.4,7.1-8,7.1h-8.6c-0.4,0-0.7-0.3-0.7-0.7V489.3z M219,511c2.2,0,4-1.7,4-4c0-2.2-2.1-3.9-4.5-3.9h-5v7.9H219z
			 M218.4,499.8c2.4,0,3.8-1.7,3.8-3.9c0-2.2-1.4-3.8-3.8-3.8h-5v7.7H218.4z"/>
		<path class="st3" d="M232.6,489.3c0-0.4,0.3-0.7,0.7-0.7h10c4.4,0,8,3.5,8,7.9c0,3.4-2.2,6.2-5.4,7.5l5,9.3c0.3,0.5,0,1.1-0.6,1.1
			h-2.9c-0.3,0-0.5-0.2-0.6-0.3l-4.9-9.7h-5.6v9.4c0,0.4-0.3,0.7-0.7,0.7h-2.4c-0.4,0-0.7-0.3-0.7-0.7V489.3z M243,501.1
			c2.4,0,4.5-2,4.5-4.6c0-2.4-2.1-4.4-4.5-4.4h-6.5v8.9H243z"/>
		<path class="st3" d="M257,489.3c0-0.4,0.3-0.7,0.7-0.7h2.4c0.4,0,0.7,0.3,0.7,0.7v24.3c0,0.4-0.3,0.7-0.7,0.7h-2.4
			c-0.4,0-0.7-0.3-0.7-0.7V489.3z"/>
		<path class="st3" d="M268,489.3c0-0.4,0.3-0.7,0.7-0.7h2.4c0.4,0,0.7,0.3,0.7,0.7v21.6h10c0.4,0,0.7,0.3,0.7,0.7v2
			c0,0.4-0.3,0.7-0.7,0.7h-13.1c-0.4,0-0.7-0.3-0.7-0.7V489.3z"/>
	</g>
</g>
<polygon class="st4" points="1149.2,77.6 1122.2,77.6 1135.7,100.9 1149.2,124.3 1162.7,100.9 1176.2,77.6 "/>
</svg>
