<?xml version="1.0" encoding="utf-8"?>
<!-- Generator: Adobe Illustrator 24.0.1, SVG Export Plug-In . SVG Version: 6.00 Build 0)  -->
<svg version="1.1" id="Layer_1" xmlns="http://www.w3.org/2000/svg" xmlns:xlink="http://www.w3.org/1999/xlink" x="0px" y="0px"
	 viewBox="0 0 1200 732.94" style="enable-background:new 0 0 1200 732.94;" xml:space="preserve">
<style type="text/css">
	.st0{fill:#D0D2D3;}
	.st1{fill:#DAA77F;}
	.st2{fill:#404041;}
	.st3{fill:#231F20;}
</style>
<polyline class="st0" points="11,173.74 422.12,172.43 422.12,6.87 838.43,0 838.43,563.33 12.67,567.45 11.62,172.03 "/>
<g>
	<rect x="260.82" y="203.53" class="st1" width="103.81" height="119.08"/>
	<rect x="13.51" y="174.23" class="st1" width="250.98" height="188.69"/>
	<rect x="14.12" y="361.7" class="st1" width="89.76" height="204.57"/>
</g>
<polygon class="st2" points="419.27,665.28 449.39,665.28 434.34,639.2 419.27,613.11 404.22,639.2 389.16,665.28 "/>
<g>
	<g>
		<path class="st3" d="M361.07,703.68c0-0.4,0.32-0.75,0.75-0.75h10.73c4.73,0,8.6,3.75,8.6,8.44c0,3.63-2.41,6.63-5.84,8.01
			l5.4,10.02c0.27,0.51,0,1.14-0.67,1.14h-3.08c-0.31,0-0.55-0.2-0.63-0.35l-5.25-10.45h-5.96v10.06c0,0.4-0.35,0.75-0.75,0.75
			h-2.57c-0.43,0-0.75-0.35-0.75-0.75v-26.12H361.07z M372.23,716.34c2.57,0,4.81-2.17,4.81-4.89c0-2.56-2.25-4.69-4.81-4.69h-7.02
			v9.59h7.02V716.34z"/>
		<path class="st3" d="M386.96,703.68c0-0.4,0.35-0.75,0.75-0.75h2.64c0.43,0,0.75,0.35,0.75,0.75v16.29c0,3.95,2.52,7.02,6.55,7.02
			c4.07,0,6.63-3.04,6.63-6.94v-16.37c0-0.4,0.32-0.75,0.75-0.75h2.64c0.4,0,0.75,0.35,0.75,0.75v16.57c0,6-4.54,10.69-10.77,10.69
			c-6.19,0-10.69-4.69-10.69-10.69L386.96,703.68L386.96,703.68z"/>
		<path class="st3" d="M412.03,729.52l12.11-26.55c0.12-0.24,0.47-0.43,0.67-0.43h0.39c0.2,0,0.56,0.2,0.67,0.43l12.03,26.55
			c0.24,0.51-0.08,1.03-0.67,1.03h-2.49c-0.47,0-0.75-0.24-0.91-0.59l-2.44-5.4h-12.91c-0.79,1.81-1.62,3.59-2.41,5.4
			c-0.12,0.28-0.43,0.59-0.91,0.59h-2.49C412.1,730.55,411.79,730.03,412.03,729.52z M429.9,721.16l-4.85-10.81h-0.2l-4.81,10.81
			H429.9z"/>
		<path class="st3" d="M448.42,726.48l1.54-1.42c0.39-0.32,0.75-0.28,1.06,0.08c0.24,0.32,2.45,2.45,5.37,2.45
			c2.57,0,4.93-1.62,4.93-4.26c0-2.37-2.01-4.62-6.24-4.62h-2.2c-0.44,0-0.75-0.28-0.75-0.83v-1.7c0-0.59,0.24-0.83,0.79-0.83h2.21
			c3.71,0,5.56-1.89,5.56-4.22c0-2.64-2.17-4.3-4.49-4.3c-2.37,0-3.79,1.34-4.58,2.21c-0.24,0.31-0.67,0.39-1.03,0.08l-1.46-1.3
			c-0.32-0.28-0.28-0.75,0-1.03c0,0,3-3.47,7.29-3.47c4.58,0,8.25,2.8,8.25,7.22c0,3.04-2.29,5.37-4.06,6.19v0.12
			c1.85,0.79,4.77,3.16,4.77,6.55c0,4.3-3.47,7.54-8.92,7.54c-4.89,0-7.22-2.49-8.09-3.51
			C448.14,727.15,448.14,726.72,448.42,726.48z"/>
		<path class="st3" d="M469.3,726.48l1.54-1.42c0.4-0.32,0.75-0.28,1.07,0.08c0.23,0.32,2.44,2.45,5.37,2.45
			c2.56,0,4.93-1.62,4.93-4.26c0-2.37-2.01-4.62-6.23-4.62h-2.21c-0.43,0-0.75-0.28-0.75-0.83v-1.7c0-0.59,0.24-0.83,0.79-0.83h2.21
			c3.71,0,5.56-1.89,5.56-4.22c0-2.64-2.17-4.3-4.5-4.3c-2.37,0-3.79,1.34-4.58,2.21c-0.24,0.31-0.67,0.39-1.03,0.08l-1.46-1.3
			c-0.32-0.28-0.28-0.75,0-1.03c0,0,3-3.47,7.3-3.47c4.58,0,8.24,2.8,8.24,7.22c0,3.04-2.29,5.37-4.06,6.19v0.12
			c1.86,0.79,4.78,3.16,4.78,6.55c0,4.3-3.47,7.54-8.92,7.54c-4.89,0-7.22-2.49-8.09-3.51C469.02,727.15,469.02,726.72,469.3,726.48
			z"/>
	</g>
</g>
<polygon class="st2" points="930.87,281.97 930.87,251.85 904.78,266.9 878.7,281.97 904.78,297.02 930.87,312.08 "/>
<g>
	<g>
		<path class="st3" d="M962.62,292.69l12.11-26.55c0.12-0.24,0.47-0.43,0.67-0.43h0.39c0.2,0,0.56,0.2,0.67,0.43l12.03,26.55
			c0.24,0.51-0.08,1.03-0.67,1.03h-2.49c-0.47,0-0.75-0.24-0.91-0.59l-2.44-5.4h-12.91c-0.79,1.81-1.62,3.59-2.41,5.4
			c-0.12,0.28-0.43,0.59-0.91,0.59h-2.49C962.69,293.72,962.38,293.2,962.62,292.69z M980.49,284.33l-4.85-10.81h-0.2l-4.81,10.81
			H980.49z"/>
		<path class="st3" d="M988.79,267.13c-0.24-0.51,0.08-1.03,0.67-1.03h2.8c0.32,0,0.59,0.24,0.67,0.43l8.68,19.53h0.24l8.68-19.53
			c0.08-0.2,0.32-0.43,0.67-0.43h2.8c0.59,0,0.91,0.51,0.67,1.03l-12.11,26.55c-0.12,0.23-0.35,0.43-0.67,0.43h-0.4
			c-0.27,0-0.55-0.2-0.67-0.43L988.79,267.13z"/>
		<path class="st3" d="M1018.66,266.85c0-0.4,0.32-0.75,0.75-0.75h15.78c0.44,0,0.75,0.35,0.75,0.75v2.21c0,0.4-0.32,0.75-0.75,0.75
			h-12.47v8.05h10.53c0.4,0,0.75,0.35,0.75,0.75v2.21c0,0.43-0.35,0.75-0.75,0.75h-10.53v8.48h12.47c0.44,0,0.75,0.36,0.75,0.75
			v2.17c0,0.4-0.32,0.75-0.75,0.75h-15.78c-0.43,0-0.75-0.35-0.75-0.75L1018.66,266.85L1018.66,266.85z"/>
		<path class="st3" d="M1041.91,266.42c0-0.4,0.36-0.71,0.75-0.71h0.99l17.12,19.81h0.04v-18.66c0-0.4,0.32-0.75,0.75-0.75h2.53
			c0.4,0,0.75,0.35,0.75,0.75v26.55c0,0.4-0.35,0.71-0.75,0.71h-1.03l-17.12-20.36h-0.04v19.21c0,0.4-0.32,0.75-0.75,0.75h-2.48
			c-0.39,0-0.75-0.35-0.75-0.75v-26.55H1041.91z"/>
		<path class="st3" d="M1072.5,266.85c0-0.4,0.36-0.75,0.75-0.75h2.6c0.4,0,0.75,0.35,0.75,0.75v26.12c0,0.4-0.35,0.75-0.75,0.75
			h-2.6c-0.39,0-0.75-0.35-0.75-0.75V266.85z"/>
		<path class="st3" d="M1084.26,266.85c0-0.4,0.32-0.75,0.71-0.75h9.07c7.61,0,13.85,6.19,13.85,13.77
			c0,7.65-6.23,13.85-13.85,13.85h-9.07c-0.4,0-0.71-0.35-0.71-0.75V266.85z M1093.5,289.97c5.8,0,10.02-4.26,10.02-10.1
			c0-5.8-4.22-10.02-10.02-10.02h-5.21v20.12L1093.5,289.97L1093.5,289.97z"/>
		<path class="st3" d="M1109.89,292.69l12.11-26.55c0.12-0.24,0.47-0.43,0.67-0.43h0.4c0.19,0,0.55,0.2,0.67,0.43l12.03,26.55
			c0.24,0.51-0.08,1.03-0.67,1.03h-2.49c-0.47,0-0.75-0.24-0.91-0.59l-2.45-5.4h-12.9c-0.79,1.81-1.62,3.59-2.41,5.4
			c-0.12,0.28-0.44,0.59-0.91,0.59h-2.49C1109.97,293.72,1109.65,293.2,1109.89,292.69z M1127.76,284.33l-4.86-10.81h-0.19
			l-4.81,10.81H1127.76z"/>
		<path class="st3" d="M1146,291.94c2.92-3.31,7.02-8.32,9.95-11.8c1.97-2.21,3-4.18,3-5.76c0-2.01-1.38-4.3-4.86-4.3
			c-2.17,0-3.94,1.5-5.01,2.64c-0.31,0.31-0.75,0.31-1.06,0l-1.34-1.34c-0.23-0.24-0.32-0.71-0.04-1.03c0,0,2.96-3.87,7.66-3.87
			c5.64,0,8.64,3.59,8.64,7.73c0,3.04-1.66,5.13-3.79,7.69c-2.09,2.53-4.85,5.76-7.18,8.4h10.06c0.39,0,0.75,0.35,0.75,0.75v1.89
			c0,0.4-0.35,0.75-0.75,0.75h-15.27c-0.44,0-0.75-0.35-0.75-0.75L1146,291.94L1146,291.94z"/>
		<path class="st3" d="M1165.66,287.09v-2.37l14.59-18.03c0.12-0.12,0.44-0.24,0.59-0.24h1.46c0.4,0,0.75,0.32,0.75,0.75v17.44h3.2
			c0.43,0,0.75,0.32,0.75,0.71v1.66c0,0.4-0.32,0.75-0.75,0.75h-3.2l0.04,5.21c0,0.4-0.36,0.75-0.75,0.75h-2.33
			c-0.4,0-0.75-0.35-0.75-0.75v-5.13h-12.86C1165.98,287.84,1165.66,287.48,1165.66,287.09z M1179.43,284.56v-11.6l-9.51,11.6
			H1179.43z"/>
	</g>
</g>
</svg>
