<?xml version="1.0" encoding="utf-8"?>
<!-- Generator: Adobe Illustrator 24.0.1, SVG Export Plug-In . SVG Version: 6.00 Build 0)  -->
<svg version="1.1" id="Layer_1" xmlns="http://www.w3.org/2000/svg" xmlns:xlink="http://www.w3.org/1999/xlink" x="0px" y="0px"
	 viewBox="0 0 1200 732.08" style="enable-background:new 0 0 1200 732.08;" xml:space="preserve">
<style type="text/css">
	.st0{fill:#D0D2D3;}
	.st1{fill:#DAA77F;}
	.st2{fill:#404041;}
	.st3{fill:#231F20;}
</style>
<polyline class="st0" points="11,173.31 422.11,172 422.11,6.44 838.43,-0.43 838.43,562.9 12.67,567.02 11.61,171.6 "/>
<g>
	<rect x="488.74" y="165.51" class="st1" width="349.5" height="43.22"/>
	<polygon class="st1" points="838.27,170.05 422.47,172.41 422.47,6.61 838.11,0 	"/>
	<polygon class="st1" points="589.17,204.05 838.26,203.94 838.59,249.99 589.17,249.98 	"/>
</g>
<polygon class="st2" points="419.27,664.85 449.39,664.85 434.33,638.77 419.27,612.68 404.21,638.77 389.15,664.85 "/>
<g>
	<g>
		<path class="st3" d="M361.06,703.25c0-0.4,0.32-0.75,0.75-0.75h10.73c4.73,0,8.6,3.75,8.6,8.44c0,3.63-2.41,6.63-5.84,8.01
			l5.4,10.02c0.28,0.51,0,1.14-0.67,1.14h-3.08c-0.32,0-0.55-0.2-0.63-0.35l-5.25-10.45h-5.96v10.06c0,0.4-0.35,0.75-0.75,0.75
			h-2.56c-0.44,0-0.75-0.35-0.75-0.75L361.06,703.25L361.06,703.25z M372.23,715.91c2.56,0,4.81-2.17,4.81-4.89
			c0-2.56-2.25-4.69-4.81-4.69h-7.02v9.59h7.02V715.91z"/>
		<path class="st3" d="M386.96,703.25c0-0.4,0.35-0.75,0.75-0.75h2.64c0.44,0,0.75,0.35,0.75,0.75v16.29c0,3.95,2.52,7.02,6.55,7.02
			c4.06,0,6.63-3.04,6.63-6.94v-16.37c0-0.4,0.32-0.75,0.75-0.75h2.64c0.39,0,0.75,0.35,0.75,0.75v16.57c0,6-4.54,10.69-10.77,10.69
			c-6.19,0-10.69-4.69-10.69-10.69L386.96,703.25L386.96,703.25z"/>
		<path class="st3" d="M412.02,729.09l12.11-26.55c0.12-0.24,0.47-0.43,0.67-0.43h0.4c0.19,0,0.55,0.2,0.67,0.43l12.03,26.55
			c0.24,0.51-0.08,1.03-0.67,1.03h-2.49c-0.47,0-0.75-0.24-0.91-0.59l-2.45-5.4h-12.9c-0.79,1.81-1.62,3.59-2.41,5.4
			c-0.12,0.28-0.44,0.59-0.91,0.59h-2.49C412.1,730.12,411.79,729.6,412.02,729.09z M429.9,720.73l-4.86-10.81h-0.19l-4.81,10.81
			H429.9z"/>
		<path class="st3" d="M448.42,726.05l1.54-1.42c0.4-0.32,0.75-0.28,1.07,0.08c0.24,0.32,2.44,2.45,5.37,2.45
			c2.56,0,4.93-1.62,4.93-4.26c0-2.37-2.01-4.62-6.23-4.62h-2.21c-0.43,0-0.75-0.28-0.75-0.83v-1.7c0-0.59,0.24-0.83,0.79-0.83h2.21
			c3.71,0,5.56-1.89,5.56-4.22c0-2.64-2.17-4.3-4.5-4.3c-2.37,0-3.79,1.34-4.58,2.21c-0.23,0.31-0.67,0.39-1.03,0.08l-1.46-1.3
			c-0.32-0.28-0.28-0.75,0-1.03c0,0,3-3.47,7.3-3.47c4.58,0,8.24,2.8,8.24,7.22c0,3.04-2.29,5.37-4.06,6.19v0.12
			c1.86,0.79,4.78,3.16,4.78,6.55c0,4.3-3.47,7.54-8.92,7.54c-4.89,0-7.22-2.49-8.09-3.51
			C448.14,726.72,448.14,726.29,448.42,726.05z"/>
		<path class="st3" d="M469.3,726.05l1.54-1.42c0.39-0.32,0.75-0.28,1.06,0.08c0.24,0.32,2.45,2.45,5.37,2.45
			c2.57,0,4.93-1.62,4.93-4.26c0-2.37-2.01-4.62-6.24-4.62h-2.2c-0.44,0-0.75-0.28-0.75-0.83v-1.7c0-0.59,0.23-0.83,0.79-0.83h2.2
			c3.71,0,5.56-1.89,5.56-4.22c0-2.64-2.17-4.3-4.49-4.3c-2.37,0-3.79,1.34-4.58,2.21c-0.24,0.31-0.67,0.39-1.03,0.08l-1.46-1.3
			c-0.32-0.28-0.28-0.75,0-1.03c0,0,3-3.47,7.29-3.47c4.58,0,8.25,2.8,8.25,7.22c0,3.04-2.29,5.37-4.06,6.19v0.12
			c1.85,0.79,4.77,3.16,4.77,6.55c0,4.3-3.47,7.54-8.92,7.54c-4.89,0-7.22-2.49-8.09-3.51C469.02,726.72,469.02,726.29,469.3,726.05
			z"/>
	</g>
</g>
<polygon class="st2" points="930.86,281.54 930.86,251.42 904.78,266.47 878.69,281.54 904.78,296.59 930.86,311.65 "/>
<g>
	<g>
		<path class="st3" d="M962.62,292.26l12.11-26.55c0.12-0.24,0.47-0.43,0.67-0.43h0.4c0.19,0,0.55,0.2,0.67,0.43l12.03,26.55
			c0.23,0.51-0.08,1.03-0.67,1.03h-2.49c-0.47,0-0.75-0.24-0.91-0.59l-2.45-5.4h-12.9c-0.79,1.81-1.62,3.59-2.41,5.4
			c-0.12,0.28-0.44,0.59-0.91,0.59h-2.49C962.7,293.29,962.38,292.77,962.62,292.26z M980.49,283.9l-4.86-10.81h-0.19l-4.81,10.81
			H980.49z"/>
		<path class="st3" d="M988.78,266.7c-0.24-0.51,0.08-1.03,0.67-1.03h2.8c0.32,0,0.59,0.24,0.67,0.43l8.68,19.53h0.24l8.68-19.53
			c0.08-0.2,0.32-0.43,0.67-0.43h2.8c0.59,0,0.91,0.51,0.67,1.03l-12.11,26.55c-0.12,0.23-0.35,0.43-0.67,0.43h-0.39
			c-0.28,0-0.56-0.2-0.67-0.43L988.78,266.7z"/>
		<path class="st3" d="M1018.66,266.42c0-0.4,0.32-0.75,0.75-0.75h15.78c0.43,0,0.75,0.35,0.75,0.75v2.21c0,0.4-0.32,0.75-0.75,0.75
			h-12.47v8.05h10.53c0.39,0,0.75,0.35,0.75,0.75v2.21c0,0.43-0.35,0.75-0.75,0.75h-10.53v8.48h12.47c0.43,0,0.75,0.36,0.75,0.75
			v2.17c0,0.4-0.32,0.75-0.75,0.75h-15.78c-0.44,0-0.75-0.35-0.75-0.75L1018.66,266.42L1018.66,266.42z"/>
		<path class="st3" d="M1041.91,265.99c0-0.4,0.35-0.71,0.75-0.71h0.99l17.12,19.81h0.04v-18.66c0-0.4,0.32-0.75,0.75-0.75h2.53
			c0.39,0,0.75,0.35,0.75,0.75v26.55c0,0.4-0.35,0.71-0.75,0.71h-1.03l-17.12-20.36h-0.04v19.21c0,0.4-0.32,0.75-0.75,0.75h-2.49
			c-0.39,0-0.75-0.35-0.75-0.75V265.99z"/>
		<path class="st3" d="M1072.5,266.42c0-0.4,0.35-0.75,0.75-0.75h2.61c0.39,0,0.75,0.35,0.75,0.75v26.12c0,0.4-0.35,0.75-0.75,0.75
			h-2.61c-0.39,0-0.75-0.35-0.75-0.75V266.42z"/>
		<path class="st3" d="M1084.27,266.42c0-0.4,0.32-0.75,0.71-0.75h9.07c7.61,0,13.85,6.19,13.85,13.77
			c0,7.65-6.23,13.85-13.85,13.85h-9.07c-0.39,0-0.71-0.35-0.71-0.75V266.42z M1093.49,289.54c5.8,0,10.02-4.26,10.02-10.1
			c0-5.8-4.22-10.02-10.02-10.02h-5.2v20.12L1093.49,289.54L1093.49,289.54z"/>
		<path class="st3" d="M1109.88,292.26l12.11-26.55c0.12-0.24,0.47-0.43,0.67-0.43h0.39c0.2,0,0.55,0.2,0.67,0.43l12.03,26.55
			c0.24,0.51-0.08,1.03-0.67,1.03h-2.49c-0.47,0-0.75-0.24-0.91-0.59l-2.44-5.4h-12.91c-0.79,1.81-1.62,3.59-2.41,5.4
			c-0.12,0.28-0.43,0.59-0.91,0.59h-2.49C1109.96,293.29,1109.65,292.77,1109.88,292.26z M1127.75,283.9l-4.85-10.81h-0.2
			l-4.81,10.81H1127.75z"/>
		<path class="st3" d="M1146,291.51c2.92-3.31,7.02-8.32,9.94-11.8c1.97-2.21,3-4.18,3-5.76c0-2.01-1.38-4.3-4.85-4.3
			c-2.17,0-3.95,1.5-5.01,2.64c-0.32,0.31-0.75,0.31-1.06,0l-1.34-1.34c-0.24-0.24-0.32-0.71-0.04-1.03c0,0,2.96-3.87,7.65-3.87
			c5.64,0,8.64,3.59,8.64,7.73c0,3.04-1.66,5.13-3.79,7.69c-2.09,2.53-4.86,5.76-7.18,8.4h10.06c0.4,0,0.75,0.35,0.75,0.75v1.89
			c0,0.4-0.35,0.75-0.75,0.75h-15.26c-0.43,0-0.75-0.35-0.75-0.75L1146,291.51L1146,291.51z"/>
		<path class="st3" d="M1165.65,286.66v-2.37l14.6-18.03c0.12-0.12,0.43-0.24,0.59-0.24h1.46c0.39,0,0.75,0.32,0.75,0.75v17.44h3.2
			c0.44,0,0.75,0.32,0.75,0.71v1.66c0,0.4-0.32,0.75-0.75,0.75h-3.2l0.04,5.21c0,0.4-0.35,0.75-0.75,0.75h-2.33
			c-0.39,0-0.75-0.35-0.75-0.75v-5.13h-12.86C1165.97,287.41,1165.65,287.05,1165.65,286.66z M1179.42,284.13v-11.6l-9.51,11.6
			H1179.42z"/>
	</g>
</g>
</svg>
