<?xml version="1.0" encoding="utf-8"?>
<!-- Generator: Adobe Illustrator 24.0.1, SVG Export Plug-In . SVG Version: 6.00 Build 0)  -->
<svg version="1.1" id="Layer_1" xmlns="http://www.w3.org/2000/svg" xmlns:xlink="http://www.w3.org/1999/xlink" x="0px" y="0px"
	 viewBox="0 0 1200 730.68" style="enable-background:new 0 0 1200 730.68;" xml:space="preserve">
<style type="text/css">
	.st0{fill:#E6E7E8;}
	.st1{clip-path:url(#SVGID_2_);}
	.st2{fill:none;stroke:#F1F1F2;stroke-width:1.9724;stroke-miterlimit:10;}
	.st3{fill:#D0D2D3;}
	.st4{fill:#DAA77F;}
	.st5{fill:#404041;}
	.st6{fill:#231F20;}
</style>
<polyline class="st0" points="11.72,173.81 422.59,172.51 422.59,7.05 838.65,0.18 838.65,563.17 13.39,567.29 12.34,172.11 "/>
<g>
	<g>
		<defs>
			<rect id="SVGID_1_" x="13.85" y="176.83" width="428.67" height="387.91"/>
		</defs>
		<clipPath id="SVGID_2_">
			<use xlink:href="#SVGID_1_"  style="overflow:visible;"/>
		</clipPath>
		<g class="st1">
			<line class="st2" x1="-481.61" y1="276.82" x2="459.66" y2="87.47"/>
			<line class="st2" x1="-479.37" y1="278.56" x2="461.9" y2="89.21"/>
			<line class="st2" x1="-477.14" y1="280.31" x2="464.13" y2="90.96"/>
			<line class="st2" x1="-474.91" y1="282.06" x2="466.36" y2="92.71"/>
			<line class="st2" x1="-472.67" y1="283.8" x2="468.6" y2="94.45"/>
			<line class="st2" x1="-470.44" y1="285.55" x2="470.83" y2="96.2"/>
			<line class="st2" x1="-468.21" y1="287.3" x2="473.06" y2="97.95"/>
			<line class="st2" x1="-465.97" y1="289.05" x2="475.3" y2="99.69"/>
			<line class="st2" x1="-463.74" y1="290.79" x2="477.53" y2="101.44"/>
			<line class="st2" x1="-461.5" y1="292.54" x2="479.76" y2="103.19"/>
			<line class="st2" x1="-459.27" y1="294.29" x2="482" y2="104.94"/>
			<line class="st2" x1="-457.04" y1="296.03" x2="484.23" y2="106.68"/>
			<line class="st2" x1="-454.8" y1="297.78" x2="486.46" y2="108.43"/>
			<line class="st2" x1="-452.57" y1="299.53" x2="488.7" y2="110.18"/>
			<line class="st2" x1="-450.34" y1="301.27" x2="490.93" y2="111.92"/>
			<line class="st2" x1="-448.1" y1="303.02" x2="493.16" y2="113.67"/>
			<line class="st2" x1="-445.87" y1="304.77" x2="495.4" y2="115.42"/>
			<line class="st2" x1="-443.64" y1="306.51" x2="497.63" y2="117.16"/>
			<line class="st2" x1="-441.4" y1="308.26" x2="499.86" y2="118.91"/>
			<line class="st2" x1="-439.17" y1="310.01" x2="502.1" y2="120.66"/>
			<line class="st2" x1="-436.94" y1="311.76" x2="504.33" y2="122.4"/>
			<line class="st2" x1="-434.7" y1="313.5" x2="506.56" y2="124.15"/>
			<line class="st2" x1="-432.47" y1="315.25" x2="508.8" y2="125.9"/>
			<line class="st2" x1="-430.24" y1="317" x2="511.03" y2="127.64"/>
			<line class="st2" x1="-428" y1="318.74" x2="513.26" y2="129.39"/>
			<line class="st2" x1="-425.77" y1="320.49" x2="515.5" y2="131.14"/>
			<line class="st2" x1="-423.54" y1="322.24" x2="517.73" y2="132.89"/>
			<line class="st2" x1="-421.3" y1="323.98" x2="519.96" y2="134.63"/>
			<line class="st2" x1="-419.07" y1="325.73" x2="522.2" y2="136.38"/>
			<line class="st2" x1="-416.84" y1="327.48" x2="524.43" y2="138.13"/>
			<line class="st2" x1="-414.6" y1="329.22" x2="526.66" y2="139.87"/>
			<line class="st2" x1="-412.37" y1="330.97" x2="528.9" y2="141.62"/>
			<line class="st2" x1="-410.14" y1="332.72" x2="531.13" y2="143.37"/>
			<line class="st2" x1="-407.9" y1="334.47" x2="533.36" y2="145.11"/>
			<line class="st2" x1="-405.67" y1="336.21" x2="535.6" y2="146.86"/>
			<line class="st2" x1="-403.44" y1="337.96" x2="537.83" y2="148.61"/>
			<line class="st2" x1="-401.2" y1="339.71" x2="540.06" y2="150.35"/>
			<line class="st2" x1="-398.97" y1="341.45" x2="542.3" y2="152.1"/>
			<line class="st2" x1="-396.74" y1="343.2" x2="544.53" y2="153.85"/>
			<line class="st2" x1="-394.5" y1="344.95" x2="546.76" y2="155.6"/>
			<line class="st2" x1="-392.27" y1="346.69" x2="549" y2="157.34"/>
			<line class="st2" x1="-390.04" y1="348.44" x2="551.23" y2="159.09"/>
			<line class="st2" x1="-387.8" y1="350.19" x2="553.47" y2="160.84"/>
			<line class="st2" x1="-385.57" y1="351.93" x2="555.7" y2="162.58"/>
			<line class="st2" x1="-383.34" y1="353.68" x2="557.93" y2="164.33"/>
			<line class="st2" x1="-381.1" y1="355.43" x2="560.17" y2="166.08"/>
			<line class="st2" x1="-378.87" y1="357.18" x2="562.4" y2="167.82"/>
			<line class="st2" x1="-376.64" y1="358.92" x2="564.63" y2="169.57"/>
			<line class="st2" x1="-374.4" y1="360.67" x2="566.87" y2="171.32"/>
			<line class="st2" x1="-372.17" y1="362.42" x2="569.1" y2="173.06"/>
			<line class="st2" x1="-369.94" y1="364.16" x2="571.33" y2="174.81"/>
			<line class="st2" x1="-367.7" y1="365.91" x2="573.57" y2="176.56"/>
			<line class="st2" x1="-365.47" y1="367.66" x2="575.8" y2="178.3"/>
			<line class="st2" x1="-363.24" y1="369.4" x2="578.03" y2="180.05"/>
			<line class="st2" x1="-361" y1="371.15" x2="580.27" y2="181.8"/>
			<line class="st2" x1="-358.77" y1="372.9" x2="582.5" y2="183.55"/>
			<line class="st2" x1="-356.54" y1="374.64" x2="584.73" y2="185.29"/>
			<line class="st2" x1="-354.3" y1="376.39" x2="586.97" y2="187.04"/>
			<line class="st2" x1="-352.07" y1="378.14" x2="589.2" y2="188.79"/>
			<line class="st2" x1="-349.84" y1="379.88" x2="591.43" y2="190.53"/>
			<line class="st2" x1="-347.6" y1="381.63" x2="593.67" y2="192.28"/>
			<line class="st2" x1="-345.37" y1="383.38" x2="595.9" y2="194.03"/>
			<line class="st2" x1="-343.14" y1="385.13" x2="598.13" y2="195.77"/>
			<line class="st2" x1="-340.9" y1="386.87" x2="600.37" y2="197.52"/>
			<line class="st2" x1="-338.67" y1="388.62" x2="602.6" y2="199.27"/>
			<line class="st2" x1="-336.43" y1="390.37" x2="604.83" y2="201.01"/>
			<line class="st2" x1="-334.2" y1="392.11" x2="607.07" y2="202.76"/>
			<line class="st2" x1="-331.97" y1="393.86" x2="609.3" y2="204.51"/>
			<line class="st2" x1="-329.73" y1="395.61" x2="611.53" y2="206.26"/>
			<line class="st2" x1="-327.5" y1="397.35" x2="613.77" y2="208"/>
			<line class="st2" x1="-325.27" y1="399.1" x2="616" y2="209.75"/>
			<line class="st2" x1="-323.03" y1="400.85" x2="618.23" y2="211.5"/>
			<line class="st2" x1="-320.8" y1="402.59" x2="620.47" y2="213.24"/>
			<line class="st2" x1="-318.57" y1="404.34" x2="622.7" y2="214.99"/>
			<line class="st2" x1="-316.33" y1="406.09" x2="624.93" y2="216.74"/>
			<line class="st2" x1="-314.1" y1="407.84" x2="627.17" y2="218.48"/>
			<line class="st2" x1="-311.87" y1="409.58" x2="629.4" y2="220.23"/>
			<line class="st2" x1="-309.63" y1="411.33" x2="631.63" y2="221.98"/>
			<line class="st2" x1="-307.4" y1="413.08" x2="633.87" y2="223.72"/>
			<line class="st2" x1="-305.17" y1="414.82" x2="636.1" y2="225.47"/>
			<line class="st2" x1="-302.93" y1="416.57" x2="638.33" y2="227.22"/>
			<line class="st2" x1="-300.7" y1="418.32" x2="640.57" y2="228.96"/>
			<line class="st2" x1="-298.47" y1="420.06" x2="642.8" y2="230.71"/>
			<line class="st2" x1="-296.23" y1="421.81" x2="645.03" y2="232.46"/>
			<line class="st2" x1="-294" y1="423.56" x2="647.27" y2="234.21"/>
			<line class="st2" x1="-291.77" y1="425.3" x2="649.5" y2="235.95"/>
			<line class="st2" x1="-289.53" y1="427.05" x2="651.73" y2="237.7"/>
			<line class="st2" x1="-287.3" y1="428.8" x2="653.97" y2="239.45"/>
			<line class="st2" x1="-285.07" y1="430.55" x2="656.2" y2="241.19"/>
			<line class="st2" x1="-282.83" y1="432.29" x2="658.43" y2="242.94"/>
			<line class="st2" x1="-280.6" y1="434.04" x2="660.67" y2="244.69"/>
			<line class="st2" x1="-278.37" y1="435.79" x2="662.9" y2="246.43"/>
			<line class="st2" x1="-276.13" y1="437.53" x2="665.13" y2="248.18"/>
			<line class="st2" x1="-273.9" y1="439.28" x2="667.37" y2="249.93"/>
			<line class="st2" x1="-271.67" y1="441.03" x2="669.6" y2="251.67"/>
			<line class="st2" x1="-269.43" y1="442.77" x2="671.83" y2="253.42"/>
			<line class="st2" x1="-267.2" y1="444.52" x2="674.07" y2="255.17"/>
			<line class="st2" x1="-264.97" y1="446.27" x2="676.3" y2="256.92"/>
			<line class="st2" x1="-262.73" y1="448.01" x2="678.54" y2="258.66"/>
			<line class="st2" x1="-260.5" y1="449.76" x2="680.77" y2="260.41"/>
			<line class="st2" x1="-258.27" y1="451.51" x2="683" y2="262.16"/>
			<line class="st2" x1="-256.03" y1="453.26" x2="685.24" y2="263.9"/>
			<line class="st2" x1="-253.8" y1="455" x2="687.47" y2="265.65"/>
			<line class="st2" x1="-251.57" y1="456.75" x2="689.7" y2="267.4"/>
			<line class="st2" x1="-249.33" y1="458.5" x2="691.94" y2="269.14"/>
			<line class="st2" x1="-247.1" y1="460.24" x2="694.17" y2="270.89"/>
			<line class="st2" x1="-244.87" y1="461.99" x2="696.4" y2="272.64"/>
			<line class="st2" x1="-242.63" y1="463.74" x2="698.64" y2="274.38"/>
			<line class="st2" x1="-240.4" y1="465.48" x2="700.87" y2="276.13"/>
			<line class="st2" x1="-238.17" y1="467.23" x2="703.1" y2="277.88"/>
			<line class="st2" x1="-235.93" y1="468.98" x2="705.34" y2="279.62"/>
			<line class="st2" x1="-233.7" y1="470.72" x2="707.57" y2="281.37"/>
			<line class="st2" x1="-231.47" y1="472.47" x2="709.8" y2="283.12"/>
			<line class="st2" x1="-229.23" y1="474.22" x2="712.04" y2="284.87"/>
			<line class="st2" x1="-227" y1="475.97" x2="714.27" y2="286.61"/>
			<line class="st2" x1="-224.77" y1="477.71" x2="716.5" y2="288.36"/>
			<line class="st2" x1="-222.53" y1="479.46" x2="718.74" y2="290.11"/>
			<line class="st2" x1="-220.3" y1="481.21" x2="720.97" y2="291.85"/>
			<line class="st2" x1="-218.07" y1="482.95" x2="723.2" y2="293.6"/>
			<line class="st2" x1="-215.83" y1="484.7" x2="725.44" y2="295.35"/>
			<line class="st2" x1="-213.6" y1="486.45" x2="727.67" y2="297.09"/>
			<line class="st2" x1="-211.37" y1="488.19" x2="729.9" y2="298.84"/>
			<line class="st2" x1="-209.13" y1="489.94" x2="732.14" y2="300.59"/>
			<line class="st2" x1="-206.9" y1="491.69" x2="734.37" y2="302.33"/>
			<line class="st2" x1="-204.66" y1="493.43" x2="736.6" y2="304.08"/>
			<line class="st2" x1="-202.43" y1="495.18" x2="738.84" y2="305.83"/>
			<line class="st2" x1="-200.2" y1="496.93" x2="741.07" y2="307.58"/>
			<line class="st2" x1="-197.96" y1="498.68" x2="743.3" y2="309.32"/>
			<line class="st2" x1="-195.73" y1="500.42" x2="745.54" y2="311.07"/>
			<line class="st2" x1="-193.5" y1="502.17" x2="747.77" y2="312.82"/>
			<line class="st2" x1="-191.26" y1="503.92" x2="750" y2="314.56"/>
			<line class="st2" x1="-189.03" y1="505.66" x2="752.24" y2="316.31"/>
			<line class="st2" x1="-186.8" y1="507.41" x2="754.47" y2="318.06"/>
			<line class="st2" x1="-184.56" y1="509.16" x2="756.7" y2="319.8"/>
			<line class="st2" x1="-182.33" y1="510.9" x2="758.94" y2="321.55"/>
			<line class="st2" x1="-180.1" y1="512.65" x2="761.17" y2="323.3"/>
			<line class="st2" x1="-177.86" y1="514.4" x2="763.4" y2="325.04"/>
			<line class="st2" x1="-175.63" y1="516.14" x2="765.64" y2="326.79"/>
			<line class="st2" x1="-173.4" y1="517.89" x2="767.87" y2="328.54"/>
			<line class="st2" x1="-171.16" y1="519.64" x2="770.1" y2="330.29"/>
			<line class="st2" x1="-168.93" y1="521.39" x2="772.34" y2="332.03"/>
			<line class="st2" x1="-166.7" y1="523.13" x2="774.57" y2="333.78"/>
			<line class="st2" x1="-164.46" y1="524.88" x2="776.8" y2="335.53"/>
			<line class="st2" x1="-162.23" y1="526.63" x2="779.04" y2="337.27"/>
			<line class="st2" x1="-160" y1="528.37" x2="781.27" y2="339.02"/>
			<line class="st2" x1="-157.76" y1="530.12" x2="783.5" y2="340.77"/>
			<line class="st2" x1="-155.53" y1="531.87" x2="785.74" y2="342.51"/>
			<line class="st2" x1="-153.3" y1="533.61" x2="787.97" y2="344.26"/>
			<line class="st2" x1="-151.06" y1="535.36" x2="790.2" y2="346.01"/>
			<line class="st2" x1="-148.83" y1="537.11" x2="792.44" y2="347.75"/>
			<line class="st2" x1="-146.6" y1="538.85" x2="794.67" y2="349.5"/>
			<line class="st2" x1="-144.36" y1="540.6" x2="796.9" y2="351.25"/>
			<line class="st2" x1="-142.13" y1="542.35" x2="799.14" y2="352.99"/>
			<line class="st2" x1="-139.9" y1="544.1" x2="801.37" y2="354.74"/>
			<line class="st2" x1="-137.66" y1="545.84" x2="803.61" y2="356.49"/>
			<line class="st2" x1="-135.43" y1="547.59" x2="805.84" y2="358.24"/>
			<line class="st2" x1="-133.2" y1="549.34" x2="808.07" y2="359.98"/>
			<line class="st2" x1="-130.96" y1="551.08" x2="810.31" y2="361.73"/>
			<line class="st2" x1="-128.73" y1="552.83" x2="812.54" y2="363.48"/>
			<line class="st2" x1="-126.5" y1="554.58" x2="814.77" y2="365.22"/>
			<line class="st2" x1="-124.26" y1="556.32" x2="817.01" y2="366.97"/>
			<line class="st2" x1="-122.03" y1="558.07" x2="819.24" y2="368.72"/>
			<line class="st2" x1="-119.8" y1="559.82" x2="821.47" y2="370.46"/>
			<line class="st2" x1="-117.56" y1="561.56" x2="823.71" y2="372.21"/>
			<line class="st2" x1="-115.33" y1="563.31" x2="825.94" y2="373.96"/>
			<line class="st2" x1="-113.1" y1="565.06" x2="828.17" y2="375.7"/>
			<line class="st2" x1="-110.86" y1="566.81" x2="830.41" y2="377.45"/>
			<line class="st2" x1="-108.63" y1="568.55" x2="832.64" y2="379.2"/>
			<line class="st2" x1="-106.4" y1="570.3" x2="834.87" y2="380.95"/>
			<line class="st2" x1="-104.16" y1="572.05" x2="837.11" y2="382.69"/>
			<line class="st2" x1="-101.93" y1="573.79" x2="839.34" y2="384.44"/>
			<line class="st2" x1="-99.7" y1="575.54" x2="841.57" y2="386.19"/>
			<line class="st2" x1="-97.46" y1="577.29" x2="843.81" y2="387.93"/>
			<line class="st2" x1="-95.23" y1="579.03" x2="846.04" y2="389.68"/>
			<line class="st2" x1="-93" y1="580.78" x2="848.27" y2="391.43"/>
			<line class="st2" x1="-90.76" y1="582.53" x2="850.51" y2="393.17"/>
			<line class="st2" x1="-88.53" y1="584.27" x2="852.74" y2="394.92"/>
			<line class="st2" x1="-86.3" y1="586.02" x2="854.97" y2="396.67"/>
			<line class="st2" x1="-84.06" y1="587.77" x2="857.21" y2="398.41"/>
			<line class="st2" x1="-81.83" y1="589.52" x2="859.44" y2="400.16"/>
			<line class="st2" x1="-79.59" y1="591.26" x2="861.67" y2="401.91"/>
			<line class="st2" x1="-77.36" y1="593.01" x2="863.91" y2="403.65"/>
			<line class="st2" x1="-75.13" y1="594.76" x2="866.14" y2="405.4"/>
			<line class="st2" x1="-72.89" y1="596.5" x2="868.37" y2="407.15"/>
			<line class="st2" x1="-70.66" y1="598.25" x2="870.61" y2="408.9"/>
			<line class="st2" x1="-68.43" y1="600" x2="872.84" y2="410.64"/>
			<line class="st2" x1="-66.19" y1="601.74" x2="875.07" y2="412.39"/>
			<line class="st2" x1="-63.96" y1="603.49" x2="877.31" y2="414.14"/>
			<line class="st2" x1="-61.73" y1="605.24" x2="879.54" y2="415.88"/>
			<line class="st2" x1="-59.49" y1="606.98" x2="881.77" y2="417.63"/>
			<line class="st2" x1="-57.26" y1="608.73" x2="884.01" y2="419.38"/>
			<line class="st2" x1="-55.03" y1="610.48" x2="886.24" y2="421.12"/>
			<line class="st2" x1="-52.79" y1="612.22" x2="888.47" y2="422.87"/>
			<line class="st2" x1="-50.56" y1="613.97" x2="890.71" y2="424.62"/>
			<line class="st2" x1="-48.33" y1="615.72" x2="892.94" y2="426.36"/>
			<line class="st2" x1="-46.09" y1="617.47" x2="895.17" y2="428.11"/>
			<line class="st2" x1="-43.86" y1="619.21" x2="897.41" y2="429.86"/>
			<line class="st2" x1="-41.63" y1="620.96" x2="899.64" y2="431.61"/>
			<line class="st2" x1="-39.39" y1="622.71" x2="901.87" y2="433.35"/>
			<line class="st2" x1="-37.16" y1="624.45" x2="904.11" y2="435.1"/>
			<line class="st2" x1="-34.93" y1="626.2" x2="906.34" y2="436.85"/>
			<line class="st2" x1="-32.69" y1="627.95" x2="908.57" y2="438.59"/>
			<line class="st2" x1="-30.46" y1="629.69" x2="910.81" y2="440.34"/>
			<line class="st2" x1="-28.23" y1="631.44" x2="913.04" y2="442.09"/>
			<line class="st2" x1="-25.99" y1="633.19" x2="915.27" y2="443.83"/>
			<line class="st2" x1="-23.76" y1="634.93" x2="917.51" y2="445.58"/>
			<line class="st2" x1="-21.53" y1="636.68" x2="919.74" y2="447.33"/>
			<line class="st2" x1="-19.29" y1="638.43" x2="921.97" y2="449.07"/>
			<line class="st2" x1="-17.06" y1="640.18" x2="924.21" y2="450.82"/>
			<line class="st2" x1="-14.83" y1="641.92" x2="926.44" y2="452.57"/>
			<line class="st2" x1="-12.59" y1="643.67" x2="928.68" y2="454.31"/>
			<line class="st2" x1="-10.36" y1="645.42" x2="930.91" y2="456.06"/>
			<line class="st2" x1="-8.13" y1="647.16" x2="933.14" y2="457.81"/>
			<line class="st2" x1="-5.89" y1="648.91" x2="935.38" y2="459.56"/>
			<line class="st2" x1="-3.66" y1="650.66" x2="937.61" y2="461.3"/>
			<line class="st2" x1="-1.43" y1="652.4" x2="939.84" y2="463.05"/>
			<line class="st2" x1="0.81" y1="654.15" x2="942.08" y2="464.8"/>
			<line class="st2" x1="3.04" y1="655.9" x2="944.31" y2="466.54"/>
			<line class="st2" x1="5.27" y1="657.64" x2="946.54" y2="468.29"/>
		</g>
	</g>
</g>
<polygon class="st3" points="417.93,6.74 836.65,0 839.66,566.62 119.39,567.67 120.04,260.64 231.16,261.67 231.16,209.72 
	417.93,208.76 "/>
<g>
	<polygon class="st4" points="839.65,213.31 418.21,209.68 418.52,6.69 837.68,0.28 	"/>
	<rect x="504.18" y="209.58" class="st4" width="74.52" height="69.46"/>
	<polygon class="st4" points="839.67,207.62 577.83,207.62 577.98,566.69 839.97,566.36 	"/>
</g>
<polygon class="st5" points="419.74,665.06 449.85,665.06 434.8,638.99 419.74,612.92 404.7,638.99 389.65,665.06 "/>
<g>
	<g>
		<path class="st6" d="M361.57,703.43c0-0.39,0.32-0.75,0.75-0.75h10.72c4.73,0,8.6,3.74,8.6,8.44c0,3.63-2.41,6.62-5.84,8
			l5.4,10.01c0.27,0.51,0,1.14-0.67,1.14h-3.08c-0.31,0-0.55-0.2-0.63-0.35l-5.24-10.45h-5.96v10.05c0,0.39-0.35,0.75-0.75,0.75
			h-2.57c-0.43,0-0.75-0.35-0.75-0.75v-26.09H361.57z M372.73,716.09c2.57,0,4.81-2.17,4.81-4.89c0-2.56-2.25-4.69-4.81-4.69h-7.02
			v9.58H372.73z"/>
		<path class="st6" d="M387.45,703.43c0-0.39,0.35-0.75,0.75-0.75h2.64c0.43,0,0.75,0.35,0.75,0.75v16.28
			c0,3.94,2.52,7.02,6.55,7.02c4.06,0,6.62-3.04,6.62-6.94v-16.36c0-0.39,0.32-0.75,0.75-0.75h2.64c0.4,0,0.75,0.35,0.75,0.75v16.56
			c0,5.99-4.53,10.68-10.76,10.68c-6.19,0-10.68-4.69-10.68-10.68v-16.56H387.45z"/>
		<path class="st6" d="M412.5,729.26l12.1-26.53c0.12-0.24,0.47-0.43,0.67-0.43h0.39c0.2,0,0.56,0.2,0.67,0.43l12.03,26.53
			c0.24,0.51-0.08,1.02-0.67,1.02h-2.48c-0.47,0-0.75-0.24-0.91-0.59l-2.44-5.4h-12.9c-0.79,1.81-1.61,3.59-2.4,5.4
			c-0.12,0.28-0.43,0.59-0.91,0.59h-2.48C412.58,730.28,412.27,729.77,412.5,729.26z M430.36,720.9l-4.85-10.8h-0.2l-4.81,10.8
			H430.36z"/>
		<path class="st6" d="M448.87,726.22l1.54-1.42c0.39-0.32,0.75-0.28,1.06,0.08c0.24,0.32,2.45,2.44,5.36,2.44
			c2.57,0,4.93-1.62,4.93-4.26c0-2.37-2.01-4.61-6.23-4.61h-2.2c-0.44,0-0.75-0.28-0.75-0.83v-1.7c0-0.59,0.24-0.83,0.79-0.83h2.21
			c3.71,0,5.56-1.89,5.56-4.22c0-2.64-2.17-4.3-4.49-4.3c-2.37,0-3.79,1.34-4.58,2.21c-0.24,0.31-0.67,0.39-1.02,0.08l-1.46-1.3
			c-0.32-0.28-0.28-0.75,0-1.02c0,0,2.99-3.47,7.29-3.47c4.58,0,8.24,2.8,8.24,7.21c0,3.04-2.29,5.36-4.06,6.19v0.12
			c1.85,0.79,4.77,3.16,4.77,6.55c0,4.3-3.47,7.53-8.91,7.53c-4.89,0-7.22-2.48-8.08-3.51C448.6,726.89,448.6,726.46,448.87,726.22z
			"/>
		<path class="st6" d="M469.74,726.22l1.54-1.42c0.4-0.32,0.75-0.28,1.07,0.08c0.23,0.32,2.44,2.44,5.36,2.44
			c2.56,0,4.92-1.62,4.92-4.26c0-2.37-2.01-4.61-6.23-4.61h-2.21c-0.43,0-0.75-0.28-0.75-0.83v-1.7c0-0.59,0.24-0.83,0.79-0.83h2.21
			c3.71,0,5.56-1.89,5.56-4.22c0-2.64-2.17-4.3-4.5-4.3c-2.37,0-3.78,1.34-4.57,2.21c-0.24,0.31-0.67,0.39-1.02,0.08l-1.46-1.3
			c-0.32-0.28-0.28-0.75,0-1.02c0,0,3-3.47,7.3-3.47c4.57,0,8.24,2.8,8.24,7.21c0,3.04-2.28,5.36-4.06,6.19v0.12
			c1.86,0.79,4.77,3.16,4.77,6.55c0,4.3-3.47,7.53-8.91,7.53c-4.89,0-7.22-2.48-8.08-3.51
			C469.46,726.89,469.46,726.46,469.74,726.22z"/>
	</g>
</g>
<polygon class="st5" points="931.02,281.98 931.02,251.88 904.96,266.92 878.89,281.98 904.96,297.03 931.02,312.08 "/>
<g>
	<g>
		<path class="st6" d="M962.76,292.7l12.1-26.54c0.12-0.24,0.47-0.43,0.67-0.43h0.39c0.2,0,0.56,0.2,0.67,0.43l12.03,26.54
			c0.24,0.51-0.08,1.02-0.67,1.02h-2.48c-0.47,0-0.75-0.24-0.91-0.59l-2.44-5.4h-12.9c-0.79,1.81-1.61,3.59-2.4,5.4
			c-0.12,0.28-0.43,0.59-0.91,0.59h-2.48C962.83,293.72,962.52,293.21,962.76,292.7z M980.62,284.34l-4.85-10.8h-0.2l-4.81,10.8
			H980.62z"/>
		<path class="st6" d="M988.91,267.15c-0.24-0.51,0.08-1.02,0.67-1.02h2.8c0.32,0,0.59,0.24,0.67,0.43l8.68,19.52h0.24l8.67-19.52
			c0.08-0.2,0.32-0.43,0.67-0.43h2.8c0.59,0,0.91,0.51,0.67,1.02l-12.1,26.54c-0.12,0.23-0.35,0.43-0.67,0.43h-0.4
			c-0.27,0-0.55-0.2-0.67-0.43L988.91,267.15z"/>
		<path class="st6" d="M1018.77,266.87c0-0.39,0.32-0.75,0.75-0.75h15.77c0.44,0,0.75,0.35,0.75,0.75v2.21
			c0,0.39-0.32,0.75-0.75,0.75h-12.46v8.04h10.53c0.4,0,0.75,0.35,0.75,0.75v2.21c0,0.43-0.35,0.75-0.75,0.75h-10.53v8.48h12.46
			c0.44,0,0.75,0.36,0.75,0.75v2.17c0,0.39-0.32,0.75-0.75,0.75h-15.77c-0.43,0-0.75-0.35-0.75-0.75L1018.77,266.87L1018.77,266.87z
			"/>
		<path class="st6" d="M1042,266.44c0-0.39,0.36-0.71,0.75-0.71h0.99l17.11,19.79h0.04v-18.65c0-0.39,0.32-0.75,0.75-0.75h2.52
			c0.4,0,0.75,0.35,0.75,0.75v26.53c0,0.39-0.35,0.71-0.75,0.71h-1.02l-17.11-20.34h-0.04v19.2c0,0.39-0.32,0.75-0.75,0.75h-2.48
			c-0.39,0-0.75-0.35-0.75-0.75v-26.53H1042z"/>
		<path class="st6" d="M1072.58,266.87c0-0.39,0.36-0.75,0.75-0.75h2.6c0.4,0,0.75,0.35,0.75,0.75v26.1c0,0.39-0.35,0.75-0.75,0.75
			h-2.6c-0.39,0-0.75-0.35-0.75-0.75V266.87z"/>
		<path class="st6" d="M1084.33,266.87c0-0.39,0.32-0.75,0.71-0.75h9.07c7.61,0,13.84,6.19,13.84,13.76
			c0,7.65-6.23,13.84-13.84,13.84h-9.07c-0.4,0-0.71-0.35-0.71-0.75V266.87z M1093.56,289.97c5.79,0,10.01-4.26,10.01-10.09
			c0-5.79-4.22-10.01-10.01-10.01h-5.21v20.11L1093.56,289.97L1093.56,289.97z"/>
		<path class="st6" d="M1109.94,292.7l12.1-26.54c0.12-0.24,0.47-0.43,0.67-0.43h0.4c0.19,0,0.55,0.2,0.67,0.43l12.02,26.54
			c0.24,0.51-0.08,1.02-0.67,1.02h-2.48c-0.47,0-0.75-0.24-0.9-0.59l-2.45-5.4h-12.89c-0.79,1.81-1.62,3.59-2.4,5.4
			c-0.12,0.28-0.44,0.59-0.91,0.59h-2.48C1110.02,293.72,1109.7,293.21,1109.94,292.7z M1127.8,284.34l-4.85-10.8h-0.19l-4.81,10.8
			H1127.8z"/>
		<path class="st6" d="M1146.03,291.95c2.92-3.31,7.02-8.32,9.94-11.79c1.97-2.21,3-4.18,3-5.76c0-2.01-1.38-4.3-4.85-4.3
			c-2.17,0-3.94,1.5-5.01,2.64c-0.31,0.31-0.75,0.31-1.06,0l-1.34-1.34c-0.23-0.24-0.32-0.71-0.04-1.02c0,0,2.96-3.86,7.65-3.86
			c5.64,0,8.63,3.59,8.63,7.73c0,3.04-1.66,5.13-3.79,7.69c-2.09,2.52-4.85,5.76-7.17,8.4h10.05c0.39,0,0.75,0.35,0.75,0.75v1.89
			c0,0.39-0.35,0.75-0.75,0.75h-15.26c-0.44,0-0.75-0.35-0.75-0.75L1146.03,291.95L1146.03,291.95z"/>
		<path class="st6" d="M1165.68,287.1v-2.37l14.59-18.02c0.12-0.12,0.44-0.24,0.59-0.24h1.46c0.4,0,0.75,0.32,0.75,0.75v17.43h3.19
			c0.43,0,0.75,0.32,0.75,0.71v1.65c0,0.39-0.32,0.75-0.75,0.75h-3.19l0.04,5.2c0,0.39-0.36,0.75-0.75,0.75h-2.33
			c-0.4,0-0.75-0.35-0.75-0.75v-5.13h-12.85C1165.99,287.85,1165.68,287.49,1165.68,287.1z M1179.44,284.57v-11.59l-9.5,11.59
			H1179.44z"/>
	</g>
</g>
</svg>
